<svg xmlns="http://www.w3.org/2000/svg" viewBox="9.8 28.7 91 18.4">
    <path d="M63.9 36.4h-8.2c0.4-2.4 2-4 4.1-4C62.4 32.5 63.6 34.5 63.9 36.4M68.4 38.2c0-4.7-2.6-9.5-8.5-9.5 -4.9 0-8.6 4-8.6 9.2V38c0 5.3 3.8 9.2 9.1 9.2 2.8 0.1 5.5-1.1 7.2-3.3l0.2-0.2L65 41.2l-0.2 0.2c-1.4 1.4-2.7 2-4.5 2 -2.4 0-4.1-1.4-4.6-3.8h12.5l0-0.3L68.4 38.2z"></path>
    <path d="M83 41.4c-1.4 1.4-2.7 2-4.5 2 -2.5 0-4.4-1.6-4.8-4l0 0c-0.2-0.9-0.2-1.8 0-2.8 0.3-2.4 2.4-4.2 4.8-4.1 1.7 0 3 0.6 4.5 2l0.2 0.2 2.7-2.4L85.7 32c-1.8-2.2-4.4-3.4-7.2-3.3 -5.3 0-9.1 3.9-9.1 9.2V38c0 5.3 3.8 9.2 9.1 9.2 2.8 0.1 5.5-1.1 7.2-3.3l0.2-0.2 -2.7-2.4L83 41.4z"></path>
    <path d="M46.8 41.5c0 1.3-1.1 2-2.8 2h-5.3v-4H44C45.7 39.5 46.8 40.2 46.8 41.5L46.8 41.5zM38.7 32.4h4.5c1.7 0 2.6 0.7 2.6 1.9v0.1c0 1.3-1.1 1.9-2.9 1.9h-4.2V32.4zM47.3 37.5c1.3-0.7 2.4-1.9 2.4-3.9v0c0-1.1-0.4-2.3-1.2-3.1 -1-1-2.7-1.6-4.7-1.6h-9.1V47H44c4.1 0 6.8-1.7 6.8-4.9V42C50.7 39.6 49.4 38.4 47.3 37.5"></path>
    <path d="M9.8 32.9h4v-4h-4V32.9zM13.7 33.6h-4v4h4V33.6zM13.7 38.3h-4v8.7h10.1v-4h-6.1V38.3zM19.1 37.6h1.4v9.4h4V33.6h-5.4V37.6zM19.1 32.9h6.1v4.7h4v-8.7H19.1V32.9zM29.3 38.3h-4v4h4V38.3zM29.3 43h-4v4h4V43zM19.9 38.3h-1.4v-9.4h-4v13.4h5.4V38.3z"></path>
    <path d="M96.7 40.8c0 0.9-0.3 1.7-0.9 2.3C95 43.8 94.2 44 93 44c-1.7 0-2.7-1-2.7-2.3s0.9-2.4 2.5-2.4h3.9V40.8zM94.4 28.7c-2.5-0.2-4.9 0.5-6.9 2l1.9 3.1 0.2-0.1c1.3-0.9 2.9-1.3 4.4-1.3 2 0.1 2.7 1.1 2.7 2.9v1.1h-4c-4.1 0-6.1 2.5-6.1 5.4 0 1.4 0.5 2.8 1.5 3.8 1.1 1.1 2.5 1.6 4.5 1.6 2 0 3-0.5 4.2-1.7V47h4V35.1C100.8 31.2 98.9 29 94.4 28.7"></path>
</svg>