<?xml version="1.0" encoding="UTF-8"?>
<svg xmlns="http://www.w3.org/2000/svg" xmlns:xlink="http://www.w3.org/1999/xlink" id="Layer_1" data-name="Layer 1" viewBox="0 0 751.55 225.37">
  <defs>
    <clipPath id="clip-path">
      <rect x="-54.01" y="-3.94" width="250" height="" transform="translate(-61.55 77.79) rotate(-45)" fill="none"></rect>
    </clipPath>
    <linearGradient id="linear-gradient" x1="175.82" y1="573.97" x2="180.78" y2="573.97" gradientTransform="matrix(0, 42.69, 42.69, 0, -24439.98, -7466.78)" gradientUnits="userSpaceOnUse">
      <stop offset="0"></stop>
      <stop offset="0.14" stop-color="#030303"></stop>
      <stop offset="0.24" stop-color="#0b0b0b"></stop>
      <stop offset="0.31" stop-color="#1a1a1a"></stop>
      <stop offset="0.38" stop-color="#2f2f2f"></stop>
      <stop offset="0.45" stop-color="#4a4a4a"></stop>
      <stop offset="0.5" stop-color="#666"></stop>
      <stop offset="0.52" stop-color="#595959"></stop>
      <stop offset="0.55" stop-color="#3d3d3d"></stop>
      <stop offset="0.6" stop-color="#272727"></stop>
      <stop offset="0.65" stop-color="#151515"></stop>
      <stop offset="0.71" stop-color="#090909"></stop>
      <stop offset="0.79" stop-color="#020202"></stop>
      <stop offset="1"></stop>
    </linearGradient>
    <clipPath id="clip-path-2">
      <rect x="35.79" y="-3.88" width="234.35" height="234.34" transform="translate(-35.31 141.34) rotate(-45)" fill="none"></rect>
    </clipPath>
    <linearGradient id="linear-gradient-2" x1="175.82" y1="575.3" x2="180.78" y2="575.3" gradientTransform="matrix(0, 42.69, 42.69, 0, -24405.98, -7530.04)" xlink:href="#linear-gradient"></linearGradient>
    <clipPath id="clip-path-3">
      <rect x="-57.34" y="15.9" width="240.92" height="194.58" transform="translate(-65.81 126.26) rotate(-66.64)" fill="none"></rect>
    </clipPath>
    <linearGradient id="linear-gradient-3" x1="175.44" y1="581.91" x2="180.4" y2="581.91" gradientTransform="matrix(42.55, 0, 0, -42.55, -7486.54, 24872.39)" xlink:href="#linear-gradient"></linearGradient>
    <clipPath id="clip-path-4">
      <rect x="32.45" y="15.98" width="241.02" height="194.62" transform="translate(-11.69 208.81) rotate(-66.64)" fill="none"></rect>
    </clipPath>
    <linearGradient id="linear-gradient-4" x1="175.44" y1="580.28" x2="180.4" y2="580.28" gradientTransform="matrix(42.55, 0, 0, -42.55, -7432, 24802.4)" xlink:href="#linear-gradient"></linearGradient>
    <clipPath id="clip-path-5">
      <path d="M2.5,112.85a105.54,105.54,0,0,0,99.71,105.37V143.55A34.11,34.11,0,0,1,84.47,85.28l4.09-4.1,13,13-4.35,4.35A15.54,15.54,0,0,0,92.35,110a15.7,15.7,0,1,0,31.39,0,16.91,16.91,0,0,0-1.38-6.44,15.63,15.63,0,0,0-3.52-5L84.47,64.23A34.93,34.93,0,0,1,74.25,44.11a34.17,34.17,0,0,1,20.67-36A105.54,105.54,0,0,0,2.5,112.85" fill="none"></path>
    </clipPath>
    <mask id="mask" x="-268.17" y="-218.11" width="662.6" height="662.6" maskUnits="userSpaceOnUse">
      <g clip-path="url(#clip-path)">
        <rect x="-171.14" y="-121.08" width="468.53" height="468.53" transform="translate(-61.55 77.79) rotate(-45)" fill="url(#linear-gradient)"></rect>
      </g>
    </mask>
    <linearGradient id="linear-gradient-5" x1="175.82" y1="573.97" x2="180.78" y2="573.97" gradientTransform="matrix(0, 42.69, 42.69, 0, -24439.99, -7466.78)" gradientUnits="userSpaceOnUse">
      <stop offset="0" stop-color="#fff"></stop>
      <stop offset="0.43" stop-color="#fff"></stop>
      <stop offset="0.5" stop-color="#fff"></stop>
      <stop offset="0.57" stop-color="#fff"></stop>
      <stop offset="1" stop-color="#fff"></stop>
    </linearGradient>
    <clipPath id="clip-path-6">
      <path d="M118.87,196.42v-26l10.9,6.3L140.65,183l-10.88,6.29-.76.45.76.43,10.88,6.28-10.88,6.29-10.9,6.3Zm23.3-156.87a34.28,34.28,0,0,1-10.56,24.68l-4.07,4.08-13-13,4.34-4.34a15.54,15.54,0,0,0,4.9-11.39,15.7,15.7,0,0,0-31.39,0A16.09,16.09,0,0,0,93,43.9a15.5,15.5,0,0,0,4.29,7l34.36,34.34a34.21,34.21,0,0,1,9.9,18.23,48.45,48.45,0,0,1,.66,6.45,34.22,34.22,0,0,1-28.29,33.59v68.31l-11.07,6.39c1.73.09,3.48.14,5.23.14A105.53,105.53,0,0,0,121.49,8.2a34.16,34.16,0,0,1,20.68,31.35" fill="none"></path>
    </clipPath>
    <mask id="mask-2" x="-178.45" y="-218.12" width="662.83" height="662.83" maskUnits="userSpaceOnUse">
      <g clip-path="url(#clip-path-2)">
        <rect x="-81.38" y="-121.05" width="468.69" height="468.69" transform="translate(-35.31 141.34) rotate(-45)" fill="url(#linear-gradient-2)"></rect>
      </g>
    </mask>
    <linearGradient id="linear-gradient-6" x1="175.82" y1="575.3" x2="180.78" y2="575.3" gradientTransform="matrix(0, 42.69, 42.69, 0, -24405.97, -7530.05)" xlink:href="#linear-gradient-5"></linearGradient>
    <mask id="mask-3" x="-182.52" y="-135.75" width="491.29" height="497.87" maskUnits="userSpaceOnUse">
      <g clip-path="url(#clip-path-3)">
        <rect x="-128.15" y="-71.79" width="382.55" height="369.95" transform="translate(-65.81 126.27) rotate(-66.64)" fill="url(#linear-gradient-3)"></rect>
      </g>
    </mask>
    <linearGradient id="linear-gradient-7" x1="175.44" y1="581.91" x2="180.4" y2="581.91" gradientTransform="matrix(42.55, 0, 0, -42.55, -7486.55, 24872.39)" xlink:href="#linear-gradient-5"></linearGradient>
    <mask id="mask-4" x="-92.77" y="-135.72" width="491.45" height="498.04" maskUnits="userSpaceOnUse">
      <g clip-path="url(#clip-path-4)">
        <rect x="-38.38" y="-71.74" width="382.69" height="370.06" transform="translate(-11.69 208.81) rotate(-66.64)" fill="url(#linear-gradient-4)"></rect>
      </g>
    </mask>
    <linearGradient id="linear-gradient-8" x1="175.44" y1="580.28" x2="180.4" y2="580.28" gradientTransform="matrix(42.55, 0, 0, -42.55, -7432, 24802.41)" xlink:href="#linear-gradient-5"></linearGradient>
  </defs>
  <path d="M305.41,69.34q-5.15-3.66-21.82-7.73-12.88-3-18.7-6.92Q258,50.08,258,42.76a12.7,12.7,0,0,1,6.38-11.53A22.46,22.46,0,0,1,276.59,28q10.19,0,18.2,8a35.48,35.48,0,0,1,9.92,20l1.09.41V26.74q-1,.82-8.86,7.75a76.15,76.15,0,0,0-8-5.16q-5.58-2.58-14.3-2.59A24.36,24.36,0,0,0,257,34a23.91,23.91,0,0,0-7.42,17.76q0,11.7,8.13,17.83,5.55,4.06,19.72,7.93T297.25,85q8.28,5.14,8.27,14.1a15,15,0,0,1-6.11,12.21,18.39,18.39,0,0,1-11.68,4.21q-13.74,0-20.93-7.75a36.63,36.63,0,0,1-6.38-9.92,93.83,93.83,0,0,1-5.84-18.75l-1.09.14v37.5q.4-.41,8.56-11.14A26.29,26.29,0,0,0,273,114.1a37.67,37.67,0,0,0,14.34,2.59,26.59,26.59,0,0,0,17.8-6.24q8.69-7.32,8.69-20.76,0-14.23-8.4-20.35" fill="#231f20"></path>
  <path d="M478.67,85.19a37.34,37.34,0,0,1-8.73,18.62q-8.69,10-25.07,10-11.39,0-16-1.37a3,3,0,0,1-1.62-1.09c-.38-.73-.54-2.41-.54-5V36.69c0-2.45.22-4.09.67-4.91.18-.36.86-.77,2-1.22a25,25,0,0,1,6-1.1q4.27-.41,11.89-.4V27.83H391.52v1.23a83.18,83.18,0,0,1,10,.54,35.93,35.93,0,0,1,6.12,1.09c1,.37,1.65.73,1.82,1.09.37.64.55,2.28.55,4.91v69.78c0,2.54-.16,4.12-.48,4.7a3.72,3.72,0,0,1-2,1.51,25.18,25.18,0,0,1-5.78,1c-1.29.13-2.72.21-4.24.28-3.24-.15-5.33-.44-6.22-.89-1.36-.68-2.71-2.88-4.08-6.6L357.83,26.74h-2.72l-22.95,64q-4.49,12.39-7.35,16.33-5.16,7.08-14.52,7.07v1.37h34.5V114.1q-6.93,0-10.73-2.18t-3.81-7.23a23.55,23.55,0,0,1,1.62-7.78l4.19-12h26.17l8.65,24,.27,1.36c0,1.55-1.27,2.57-3.82,3.08s-7.19.74-14,.74v1.37h127V85.19ZM336.73,83.4l12.41-34.58L361.56,83.4Z" fill="#231f20"></path>
  <path d="M530,112.68a3.73,3.73,0,0,1-1.91-1.16c-.36-.73-.55-2.4-.55-5V32.88c0-2.1.19-3.28.55-3.55a7.89,7.89,0,0,1,3-.27q10.88,0,16.43,7c4,4.92,8.37,13.53,10.47,25.77h1.35V27.83H478.88v34h1.46c2.25-12.22,6.58-20.88,10.63-25.9q5.56-6.83,16.18-6.82a16.66,16.66,0,0,1,2.84.13c.54.19.82,1.45.82,3.82v73.46c0,2.55-.16,4.12-.47,4.71a3.85,3.85,0,0,1-2.11,1.5,28.3,28.3,0,0,1-6.25,1q-4.62.4-12.37.4v1.37h59.11V114.1q-7.89,0-12.5-.4a28.3,28.3,0,0,1-6.25-1" fill="#231f20"></path>
  <path d="M743.54,95.9a56.26,56.26,0,0,1-1.1,12.57c-.74,3-2.06,4.55-4,4.55-1.74,0-2.84-.58-3.3-1.76a17.34,17.34,0,0,1-.68-5.7q0-13.43-2.34-20.08Q727.48,72.18,713,69.33c9.47-1.08,16.38-3.68,20.75-7.75a16.82,16.82,0,0,0,5.45-12.93q0-6.66-6.92-12.92-8.71-7.89-23.38-7.89H653.33v1.22q13.3,0,17.25,1.5c1,.36,1.58.72,1.76,1.09.37.63.55,2.23.55,4.77v70.05c0,2.65-.18,4.3-.55,5a3.51,3.51,0,0,1-1.89,1.57c-1.91.72-7.6,1.09-17.12,1.09v1.36h55.29v-1.23c-3.53,0-6.91,0-10.13-.13a22.58,22.58,0,0,1-6.37-.75,3.38,3.38,0,0,1-2-1.71,16.68,16.68,0,0,1-.47-5.18V70h15.94c4.25,0,7.49.84,9.75,2.52s3.38,4.91,3.38,9.71c-.09,1-.13,1.95-.13,2.85v2.86q0,16,2.44,21.74,3,7.07,12.44,7.05c4.82,0,8.05-1.71,9.7-5.16,1-2.08,1.5-5.79,1.5-11.14V95.9ZM702.18,68.45H689.61v-32a25.64,25.64,0,0,1,.33-5.27,2.31,2.31,0,0,1,1.69-1.71,15.37,15.37,0,0,1,4.19-.41h6.5q10.81,0,15.49,4.72T722.49,50q0,10.4-5.7,14.78-4.72,3.67-14.61,3.68" fill="#231f20"></path>
  <path d="M646.77,85.19q-2.64,12.69-8.43,19.44-7.94,9.21-23.37,9.21-7.32,0-10.16-.14a18.7,18.7,0,0,1-5-.88c-1.45-.5-2.31-1.08-2.57-1.71a15.82,15.82,0,0,1-.41-4.77V70q14,0,17.56,3,5,4.36,7,23H623V42.37H621.4q-2,19-7.15,23.36-3.39,2.86-17.44,2.87V36.72c0-2.65.15-4.26.47-4.86A3.44,3.44,0,0,1,599,30.43a33,33,0,0,1,9.29-1.3c3.47-.05,6.93-.07,10.35-.07q12.89,0,19.93,12.68a42.72,42.72,0,0,1,4.15,10.68h2.89V27.83H561.76v1.23a85.5,85.5,0,0,1,9.91.54,34.15,34.15,0,0,1,6.12,1.09c1,.37,1.58.73,1.76,1.09.36.64.55,2.28.55,4.9v69.79c0,2.55-.17,4.12-.47,4.71a3.57,3.57,0,0,1-1.84,1.43c-2.63,1-8,1.5-16,1.5v1.36h88.3V85.19Z" fill="#231f20"></path>
  <path d="M286.59,196.7h-43v-.92q9.7,0,11.64-.75a2.32,2.32,0,0,0,1.29-1.06,9.09,9.09,0,0,0,.37-3.38V143.05a9.19,9.19,0,0,0-.37-3.34,2.23,2.23,0,0,0-1.2-.74c-1.79-.68-5.69-1-11.73-1v-.83h37.78q10,0,15.88,5.36,4.73,4.25,4.72,8.77c0,3.7-.95,6.46-2.86,8.32q-3.76,3.77-14.26,5.35,11.06,1.38,16.21,6.37a13.86,13.86,0,0,1,4.23,10.44q0,5.18-4.8,9.7a19.28,19.28,0,0,1-13.86,5.27m-18.37-32.14h8.55q6.72,0,9.93-2.52,3.87-3,3.87-9.95,0-7.82-3.13-11T276.87,138h-4.43a10.45,10.45,0,0,0-2.85.29,1.58,1.58,0,0,0-1.15,1.21,18.7,18.7,0,0,0-.22,3.62Zm10.94.83H268.22v25.2a11.72,11.72,0,0,0,.31,3.52,2.43,2.43,0,0,0,1.39,1.16,9.4,9.4,0,0,0,2.79.51q1.71.09,8,.09,6.58,0,9.83-4,3-3.63,3-10.1,0-7.69-3.43-11.86-3.7-4.55-10.93-4.54" fill="#231f20"></path>
  <path d="M367.41,183.4v3c0,3.63-.33,6.16-1,7.57q-1.67,3.53-6.59,3.52-6.41,0-8.45-4.82-1.67-3.87-1.67-14.77V176c0-.62,0-1.26.09-1.94q0-4.89-2.29-6.6a11,11,0,0,0-6.62-1.71H330v24.83a11.27,11.27,0,0,0,.32,3.52,2.34,2.34,0,0,0,1.38,1.16,15.84,15.84,0,0,0,4.35.51q3.29.09,6.88.09v.83h-37.6v-.92q9.71,0,11.64-.75a2.34,2.34,0,0,0,1.3-1.06,9.4,9.4,0,0,0,.36-3.38V143a8.67,8.67,0,0,0-.36-3.25,2.32,2.32,0,0,0-1.21-.74q-2.67-1-11.73-1v-.84h37.78c6.65,0,12,1.79,15.89,5.36,3.14,2.85,4.71,5.77,4.71,8.79a11.43,11.43,0,0,1-3.71,8.79q-4.45,4.17-14.09,5.28,9.84,1.93,13,11,1.59,4.51,1.59,13.66a11.93,11.93,0,0,0,.46,3.87q.46,1.2,2.25,1.2c1.3,0,2.21-1,2.71-3.1a37.93,37.93,0,0,0,.75-8.54ZM330,164.74h8.56q6.71,0,9.93-2.51c2.57-2,3.87-5.33,3.87-10,0-5.21-1.07-8.89-3.18-11S343.56,138,338.66,138h-4.42a10.94,10.94,0,0,0-2.85.27,1.6,1.6,0,0,0-1.16,1.16A19,19,0,0,0,330,143Z" fill="#231f20"></path>
  <path d="M426.07,166.87q0,13.57-9.14,22.53-8.31,8.13-18.75,8.14a26.38,26.38,0,0,1-18.76-7.76q-9.14-8.79-9.14-22.91,0-13.59,9.14-22.45,8.31-8,18.76-8a26.56,26.56,0,0,1,18.75,7.67q9.13,8.69,9.14,22.82m-12.28,0q0-14.57-3.92-22.13t-11.74-7.56q-7.74,0-11.65,7.56t-3.91,22.13q0,14.39,3.91,22.09t11.65,7.7q7.64,0,11.65-7.7t4-22.09" fill="#231f20"></path>
  <path d="M486.48,137.12v26.33h-1.3q-2.12-15.12-6.74-20.77Q474.65,138,467.27,138a5.12,5.12,0,0,0-2,.19c-.24.19-.37,1-.37,2.41v50a9.71,9.71,0,0,0,.37,3.42,2.53,2.53,0,0,0,1.29.8,19.49,19.49,0,0,0,4.26.69c2.09.19,4.92.27,8.49.27v.93H439.1v-.93c3.5,0,6.3-.08,8.4-.27a19.24,19.24,0,0,0,4.25-.69,2.55,2.55,0,0,0,1.43-1,8.92,8.92,0,0,0,.32-3.19v-50c0-1.6-.18-2.47-.55-2.59A9.42,9.42,0,0,0,451,138q-7.22,0-11,4.64-4.62,5.74-6.93,20.67h-1.3V137.12Z" fill="#231f20"></path>
  <path d="M540,190.59V166.68H513.63v23.91A9.71,9.71,0,0,0,514,194c.12.25.54.52,1.25.8a17.12,17.12,0,0,0,3.93.69q2.85.28,6.74.28v.92H489.71v-.92q4,0,6.88-.28a17.25,17.25,0,0,0,4-.69,2.55,2.55,0,0,0,1.39-1,8.83,8.83,0,0,0,.33-3.19V143.14a8.58,8.58,0,0,0-.38-3.33c-.12-.25-.54-.5-1.24-.74a22.87,22.87,0,0,0-4.16-.74,56.76,56.76,0,0,0-6.79-.38v-.83H526V138c-5.23,0-8.84.38-10.81,1.12a2,2,0,0,0-1.1.74,7.8,7.8,0,0,0-.47,3.33v22H540v-22a7.48,7.48,0,0,0-.46-3.33,2.2,2.2,0,0,0-1.2-.74,21.83,21.83,0,0,0-4.16-.74,56.18,56.18,0,0,0-6.65-.38v-.83h36.3V138c-2.77,0-5,.1-6.83.28a17.57,17.57,0,0,0-4.16.84l-.83.37c-.43.43-.65,1.66-.65,3.7v47.45a9.47,9.47,0,0,0,.37,3.42,2.08,2.08,0,0,0,1.11.75q2.67,1,11,1v.92H527.58v-.92q8.13,0,10.81-1c.67-.25,1.08-.5,1.2-.75a9,9,0,0,0,.37-3.42" fill="#231f20"></path>
  <path d="M590.2,165.76v24.73a11.15,11.15,0,0,0,.28,3.25c.19.43.77.81,1.75,1.15a11.85,11.85,0,0,0,3.41.61q1.93.09,6.91.09,10.5,0,15.89-6.25t6.77-20.08h1.2V196.7h-60v-.92c5.49,0,9.12-.35,10.91-1a2.28,2.28,0,0,0,1.24-1,9.17,9.17,0,0,0,.32-3.19V143.14a9.18,9.18,0,0,0-.36-3.33,2.2,2.2,0,0,0-1.2-.74,22.6,22.6,0,0,0-4.16-.75,59.44,59.44,0,0,0-6.75-.36v-.84h57v23.09h-1.2a27.74,27.74,0,0,0-3.6-13.63Q613.79,138,605,138q-3.49,0-7,0a23,23,0,0,0-6.3.88,2.32,2.32,0,0,0-1.15,1,9.33,9.33,0,0,0-.33,3.3v21.67c6.38,0,10.32-.64,11.86-1.94q3.48-3,4.87-15.89H608v36.4h-1.11q-1.39-12.66-4.78-15.61c-1.6-1.36-5.57-2-11.95-2" fill="#231f20"></path>
  <path d="M692.27,183.4v3c0,3.63-.34,6.16-1,7.57q-1.66,3.53-6.59,3.52-6.4,0-8.45-4.82-1.66-3.87-1.67-14.77V176c0-.62,0-1.26.09-1.94,0-3.26-.77-5.46-2.29-6.6s-3.75-1.71-6.63-1.71H654.86v24.83a11.15,11.15,0,0,0,.33,3.52,2.31,2.31,0,0,0,1.39,1.16,15.66,15.66,0,0,0,4.33.51q3.29.09,6.88.09v.83H630.2v-.92q9.7,0,11.64-.75a2.32,2.32,0,0,0,1.29-1.06,9.09,9.09,0,0,0,.37-3.38V143a8.38,8.38,0,0,0-.37-3.25,2.23,2.23,0,0,0-1.2-.74c-1.79-.68-5.69-1-11.73-1v-.84H668q10,0,15.89,5.36c3.14,2.85,4.71,5.77,4.71,8.79a11.43,11.43,0,0,1-3.71,8.79q-4.46,4.17-14.1,5.28,9.84,1.93,13,11,1.58,4.51,1.58,13.66a11.59,11.59,0,0,0,.47,3.87c.31.8,1.06,1.2,2.24,1.2s2.22-1,2.71-3.1a37.84,37.84,0,0,0,.76-8.54Zm-37.41-18.66h8.56q6.72,0,9.93-2.51,3.87-3,3.87-10,0-7.81-3.18-11c-2.11-2.14-5.63-3.21-10.53-3.21h-4.42a11,11,0,0,0-2.85.27,1.61,1.61,0,0,0-1.15,1.16,17.88,17.88,0,0,0-.23,3.58Z" fill="#231f20"></path>
  <path d="M730.32,141.65l6-5.27v20.14l-.74-.28a24,24,0,0,0-6.74-13.55,17,17,0,0,0-12.38-5.47,15.21,15.21,0,0,0-8.31,2.21,8.66,8.66,0,0,0-4.34,7.84q0,5,4.7,8.11,4,2.67,12.71,4.71,11.34,2.78,14.84,5.25,5.71,4.16,5.71,13.84,0,9.13-5.91,14.11a18,18,0,0,1-12.1,4.24,25.74,25.74,0,0,1-9.74-1.75,17.87,17.87,0,0,1-7.44-5.82c-3.7,4.86-5.63,7.39-5.82,7.57V172l.74-.1a64.36,64.36,0,0,0,4,12.76,25.18,25.18,0,0,0,4.34,6.74q4.9,5.26,14.22,5.26a12.47,12.47,0,0,0,8-2.86,10.19,10.19,0,0,0,4.16-8.3q0-6.09-5.62-9.59-3.88-2.4-13.5-5t-13.41-5.39q-5.54-4.17-5.53-12.12a16.26,16.26,0,0,1,5-12.08,16.53,16.53,0,0,1,12-5,23.29,23.29,0,0,1,9.73,1.76,53.93,53.93,0,0,1,5.46,3.51" fill="#231f20"></path>
  <path d="M102.21,143.55A34.1,34.1,0,0,1,84.47,85.29l4.09-4.1,13,13-4.35,4.35A15.54,15.54,0,0,0,92.35,110a15.7,15.7,0,1,0,31.39,0,16.91,16.91,0,0,0-1.38-6.44,15.66,15.66,0,0,0-3.53-5L84.47,64.23A34.84,34.84,0,0,1,74.25,44.11a34.17,34.17,0,0,1,20.67-36,105.52,105.52,0,0,0,7.29,210.07Z" fill="#bc9632"></path>
  <path d="M121.49,8.2a34.11,34.11,0,0,1,10.12,56l-4.08,4.08-13-13,4.34-4.34a15.54,15.54,0,0,0,4.9-11.39A15.7,15.7,0,1,0,97.25,50.94l34.36,34.35a34.16,34.16,0,0,1,9.9,18.21,48.68,48.68,0,0,1,.66,6.46,34.22,34.22,0,0,1-28.29,33.59v68.32l-11.07,6.39c1.73.08,3.48.13,5.23.13A105.52,105.52,0,0,0,121.49,8.2m8.27,181.94,10.89,6.29-10.89,6.28L118.87,209V170.4l10.89,6.29L140.65,183l-10.89,6.29-.76.44Z" fill="#bc9632"></path>
  <g clip-path="url(#clip-path-5)">
    <g mask="url(#mask)">
      <rect x="-54.01" y="-3.95" width="234.26" height="234.26" transform="translate(-61.55 77.79) rotate(-45)" fill="url(#linear-gradient-5)"></rect>
    </g>
  </g>
  <g clip-path="url(#clip-path-6)">
    <g mask="url(#mask-2)">
      <rect x="35.79" y="-3.88" width="234.35" height="234.34" transform="translate(-35.31 141.34) rotate(-45)" fill="url(#linear-gradient-6)"></rect>
    </g>
  </g>
  <g clip-path="url(#clip-path-5)">
    <g mask="url(#mask-3)">
      <rect x="-57.33" y="15.9" width="240.91" height="194.58" transform="translate(-65.81 126.27) rotate(-66.64)" fill="url(#linear-gradient-7)"></rect>
    </g>
  </g>
  <g clip-path="url(#clip-path-6)">
    <g mask="url(#mask-4)">
      <rect x="32.45" y="15.98" width="241.02" height="194.62" transform="translate(-11.69 208.81) rotate(-66.64)" fill="url(#linear-gradient-8)"></rect>
    </g>
  </g>
</svg>
