<svg width="34" height="48" viewBox="0 0 34 48" fill="none" xmlns="http://www.w3.org/2000/svg">
<g clip-path="url(#clip0_33_4990)">
<path d="M33.8589 14.5767C32.9248 7.7346 27.7605 2.06489 20.9922 0.472475C20.0756 0.262486 19.1591 0.157492 18.2426 0C17.4318 0 16.6034 0 15.7926 0C15.3167 0.0699963 14.8232 0.122494 14.3473 0.209989C7.57901 1.50492 3.01395 5.38972 0.793112 11.8819C-0.493565 15.6442 -0.123425 19.424 1.09275 23.1513C2.30892 26.8961 4.12437 30.3434 6.30996 33.6157C8.83044 37.3955 11.4743 41.0879 14.0653 44.7977C14.6469 45.6376 15.2286 46.4951 15.8278 47.335C16.4624 48.21 17.5728 48.21 18.2073 47.335C18.3659 47.125 18.507 46.8976 18.6656 46.6876C21.4504 42.7153 24.2706 38.778 27.0025 34.7532C29.2939 31.3759 31.2856 27.841 32.6604 23.9912C33.7356 20.9464 34.2996 17.8316 33.8589 14.5767ZM16.9911 25.3037C12.3203 25.2862 8.51317 21.4889 8.5308 16.8341C8.54842 12.1969 12.3732 8.41706 17.0616 8.43456C21.7325 8.45206 25.5396 12.2494 25.522 16.9041C25.5044 21.5414 21.6796 25.3212 16.9911 25.3037Z" fill="#AE9C86"/>
</g>
<defs>
<clipPath id="clip0_33_4990">
<rect width="34" height="48" fill="white"/>
</clipPath>
</defs>
</svg>
