<svg width="11" height="9" viewBox="0 0 11 9" fill="none" xmlns="http://www.w3.org/2000/svg">
<path fill-rule="evenodd" clip-rule="evenodd" d="M9.99973 2.19115V1.00024H1.00027V2.19115L5.5 4.44097L9.99973 2.19115ZM9.99973 3.30946L5.5 5.55928L1.00027 3.30873V8.00196H9.99973V3.30946ZM1.00027 0H9.99973C10.265 0 10.5194 0.105383 10.707 0.292965C10.8946 0.480547 11 0.734963 11 1.00024V7.99976C11 8.26504 10.8946 8.51945 10.707 8.70704C10.5194 8.89462 10.265 9 9.99973 9H1.00027C0.73498 9 0.480558 8.89462 0.292971 8.70704C0.105385 8.51945 0 8.26504 0 7.99976V1.00024C0 0.734963 0.105385 0.480547 0.292971 0.292965C0.480558 0.105383 0.73498 0 1.00027 0Z" fill="#AE9C86"/>
</svg>
