<svg width="11" height="11" viewBox="0 0 11 11" fill="none" xmlns="http://www.w3.org/2000/svg">
<path fill-rule="evenodd" clip-rule="evenodd" d="M4.94108 2.34077C5.07821 2.50419 5.14787 2.71374 5.13588 2.92673C5.12388 3.13972 5.03114 3.34012 4.87653 3.48712C4.80238 3.58509 4.72228 3.67841 4.63668 3.76656C4.59194 3.81423 4.55673 3.84943 4.48265 3.92351L4.0609 4.34523C4.27521 4.94007 4.63803 5.47025 5.11491 5.88543C5.52962 6.36301 6.05998 6.72616 6.65522 6.9401L7.07698 6.51838C7.23421 6.34771 7.40985 6.19496 7.60068 6.06292C7.74759 5.9367 7.93466 5.86694 8.12834 5.86613C8.32203 5.86533 8.50967 5.93353 8.65763 6.05852C9.34273 6.51615 9.99247 7.02463 10.6014 7.57965C10.8575 7.85456 11 8.21637 11 8.59214C11 8.96792 10.8575 9.32972 10.6014 9.60464C10.4305 9.78506 10.2141 10.0014 9.95809 10.2479C8.41118 11.7954 5.14719 10.8537 2.64528 8.34974C0.143377 5.84582 -0.792545 2.58354 0.7507 1.03967C1.02796 0.758035 1.11744 0.66709 1.38883 0.400856C1.66538 0.143238 2.0293 0 2.40727 0C2.78523 0 3.14915 0.143238 3.42571 0.400856C3.97557 1.01127 4.48194 1.6595 4.94108 2.34077ZM7.853 7.29728L7.43125 7.719C6.71464 8.43556 5.49412 7.82461 4.33449 6.66433C3.17485 5.50405 2.5668 4.28362 3.28341 3.56706L3.70516 3.14534C3.77264 3.07787 3.80345 3.04633 3.84012 3.00746C3.89073 2.95465 3.93181 2.90771 3.96555 2.86664C3.56519 2.27789 3.12686 1.71587 2.65335 1.18416C2.5822 1.13095 2.49575 1.1022 2.4069 1.1022C2.31806 1.1022 2.2316 1.13095 2.16045 1.18416C1.8942 1.44599 1.80691 1.53327 1.53112 1.81417C0.538724 2.80723 1.29861 5.4417 3.42864 7.57378C5.55867 9.70585 8.19627 10.4649 9.19307 9.46455C9.4449 9.22008 9.64978 9.01521 9.80773 8.84994C9.86713 8.77915 9.89968 8.68969 9.89968 8.59728C9.89968 8.50486 9.86713 8.41541 9.80773 8.34461C9.27929 7.87068 8.7188 7.43374 8.13025 7.03691C8.03349 7.11895 7.94095 7.20585 7.853 7.29728Z" fill="#AE9C86"/>
</svg>
