<svg width="46" height="35" viewBox="0 0 46 35" fill="none" xmlns="http://www.w3.org/2000/svg">
<path d="M41.3727 0C42.1288 1.09892 42.8849 2.1828 43.6863 3.32688C40.9039 4.87742 38.3937 6.71398 36.4279 9.1828C34.447 11.6667 33.2826 14.4817 32.8441 17.7032C34.1446 17.0559 35.4753 16.8301 36.8513 16.8753C41.3878 17.0258 44.9868 19.9462 45.8487 24.2215C46.6653 28.1957 44.2912 32.8624 40.7225 34.3226C37.0025 35.843 32.2997 34.7441 29.6232 31.7484C26.8257 28.6172 25.7521 24.914 25.8579 20.8043C26.0091 14.6172 28.7764 9.63441 33.1617 5.43441C35.445 3.26667 38.0459 1.55054 40.8888 0.210753C41.04 0.135484 41.1912 0.0903226 41.3727 0Z" fill="#AE9C86"/>
<path d="M15.5147 0C16.2859 1.11398 17.0419 2.19785 17.8283 3.32688C12.082 6.50323 7.93872 10.8538 7.00118 17.5828C7.84799 17.372 8.64944 17.0559 9.49625 16.9656C13.8815 16.4688 18.4029 18.7419 19.779 23.3484C21.2004 28.1054 18.3878 33.4796 13.7454 34.6387C9.78356 35.6323 6.30558 34.5936 3.58369 31.5075C0.650091 28.1806 -0.257207 24.1914 0.0603475 19.9011C0.529118 13.3527 3.82563 8.30968 8.74016 4.2C10.6757 2.57419 12.823 1.26452 15.1064 0.180645C15.2273 0.12043 15.3634 0.0752688 15.5147 0Z" fill="#AE9C86"/>
</svg>
