<svg width="11" height="13" viewBox="0 0 11 13" fill="none" xmlns="http://www.w3.org/2000/svg">
<path d="M5.20652 2.79433C4.72902 2.79433 4.26225 2.93593 3.86522 3.20122C3.46819 3.4665 3.15875 3.84357 2.97602 4.28472C2.79329 4.72587 2.74547 5.21131 2.83863 5.67963C2.93178 6.14796 3.16172 6.57815 3.49937 6.91579C3.83701 7.25344 4.2672 7.48337 4.73552 7.57653C5.20385 7.66969 5.68929 7.62188 6.13044 7.43914C6.5716 7.25641 6.94865 6.94696 7.21394 6.54994C7.47922 6.15291 7.62082 5.68613 7.62082 5.20863C7.62082 4.89158 7.55837 4.57763 7.43704 4.28472C7.31571 3.9918 7.13788 3.72565 6.91369 3.50147C6.6895 3.27728 6.42336 3.09944 6.13044 2.97811C5.83753 2.85679 5.52357 2.79433 5.20652 2.79433ZM5.20652 6.6052C4.93019 6.6052 4.66005 6.52326 4.43029 6.36973C4.20052 6.21621 4.02144 5.99799 3.91569 5.74269C3.80994 5.48739 3.78227 5.20646 3.83618 4.93543C3.89009 4.6644 4.02316 4.41544 4.21856 4.22004C4.41397 4.02464 4.66292 3.89157 4.93395 3.83766C5.20498 3.78375 5.48591 3.81142 5.74121 3.91717C5.99652 4.02292 6.21473 4.202 6.36825 4.43177C6.52178 4.66154 6.60372 4.93167 6.60372 5.20801C6.60323 5.57842 6.45587 5.93351 6.19396 6.19543C5.93204 6.45735 5.57693 6.60471 5.20652 6.6052Z" fill="#AE9C86"/>
<path d="M5.20806 0C3.82725 0.00147479 2.50341 0.550653 1.52703 1.52703C0.550652 2.50341 0.00147479 3.82725 0 5.20806V5.3523C0 6.80459 0.832621 8.49707 2.4762 10.3827C3.21759 11.2316 4.02486 12.0207 4.89049 12.7425L5.20806 13L5.52749 12.7419C6.39313 12.0201 7.20041 11.231 7.94178 10.3821C9.58412 8.49645 10.418 6.80397 10.418 5.35168V5.20806C10.4165 3.82693 9.86707 2.50281 8.89029 1.52638C7.9135 0.549944 6.58919 0.000983158 5.20806 0V0ZM9.39964 5.3523C9.39964 7.80683 6.23692 10.7776 5.20806 11.6796C4.17858 10.7776 1.01648 7.80621 1.01648 5.3523V5.20806C1.01648 4.65757 1.1249 4.11248 1.33557 3.60389C1.54623 3.09531 1.855 2.6332 2.24425 2.24394C2.63351 1.85469 3.09562 1.54592 3.6042 1.33526C4.11279 1.1246 4.65788 1.01617 5.20837 1.01617C5.75885 1.01617 6.30395 1.1246 6.81254 1.33526C7.32112 1.54592 7.78323 1.85469 8.17248 2.24394C8.56174 2.6332 8.87051 3.09531 9.08117 3.60389C9.29183 4.11248 9.40026 4.65757 9.40026 5.20806L9.39964 5.3523Z" fill="#AE9C86"/>
</svg>
