<svg xmlns="http://www.w3.org/2000/svg" width="48" height="48" id="financial"><path d="M24 0C10.751 0 0 10.751 0 24s10.751 24 24 24 24-10.751 24-24S37.249 0 24 0zm0 1c12.708 0 23 10.291 23 23S36.708 47 24 47 1 36.709 1 24 11.292 1 24 1zM13.5 9.99v.008a.5.5 0 0 0-.5.5V37.5a.5.5 0 0 0 .5.5h19a.5.5 0 0 0 .5-.5v-3.002a.5.5 0 1 0-1 0V37H14V10.998h14V14.5a.5.5 0 0 0 .5.5H32v6.498a.5.5 0 1 0 1 0v-6.966a.5.5 0 0 0 0-.024.5.5 0 0 0-.146-.362l-4-4a.5.5 0 0 0-.362-.146.5.5 0 0 0-.064 0 .5.5 0 0 0-.084-.01H13.5zM29 11.707 31.293 14H29v-2.293zm-12.55 1.291a.5.5 0 0 0 .05 1h1a.5.5 0 1 0 0-1h-1a.5.5 0 0 0-.05 0zm3.015 0a.5.5 0 0 0 .05 1h3.977a.5.5 0 1 0 0-1h-3.976a.5.5 0 0 0-.051 0zm-3.016 2a.5.5 0 0 0 .051 1h1a.5.5 0 1 0 0-1h-1a.5.5 0 0 0-.05 0zm3.016 0a.5.5 0 0 0 .05 1h3.977a.5.5 0 1 0 0-1h-3.976a.5.5 0 0 0-.051 0zm1.027 1.994a.5.5 0 0 0-.492.506v13a.5.5 0 0 0 .5.5h17a.5.5 0 1 0 0-1H37v-11.5a.5.5 0 0 0-.5-.5h-2a.5.5 0 0 0-.5.5v11.5h-1v-6.5a.5.5 0 0 0-.5-.5h-2a.5.5 0 0 0-.5.5v6.5h-1v-8.5a.5.5 0 0 0-.5-.5h-2a.5.5 0 0 0-.5.5v8.5h-1v-3.514a.5.5 0 0 0-.5-.5h-2a.5.5 0 0 0-.5.5v3.514h-1v-12.5a.5.5 0 0 0-.508-.506zM35 18.998h1v10.986h-1V18.998zm-8 3h1v7.986h-1v-7.986zm4 2h1v5.986h-1v-5.986zm-8 2.986h1v3h-1v-3zm.45 5.014a.5.5 0 1 0 .05 1h10.996a.5.5 0 1 0 0-1H23.5a.5.5 0 0 0-.05 0z" color="#000" font-family="sans-serif" font-weight="400" overflow="visible" style="line-height:normal;text-indent:0;text-align:start;text-decoration-line:none;text-decoration-style:solid;text-decoration-color:#000;text-transform:none;block-progression:tb;isolation:auto;mix-blend-mode:normal"></path></svg>