<svg xmlns="http://www.w3.org/2000/svg" width="96" height="96" fill="none" viewBox="0 0 96 96" id="banknote"><path stroke="#000" stroke-width="5" d="M77.5 41.0005L83.0001 41.0005C85.7615 41.0005 88.0001 43.2391 88.0001 46.0005V75.1672C88.0001 77.9286 85.7615 80.1672 83.0001 80.1672H29.3334C26.7561 80.1672 24.6667 78.0778 24.6667 75.5005V75.5005"></path><path stroke="#000" stroke-width="5" d="M75 54.333C75.8849 55.1541 77.008 55.722 78.2542 55.9216C78.7995 56.0089 79.2501 56.4482 79.2501 57.0005V63.3338C79.2501 63.8861 78.7994 64.3254 78.254 64.4128C75.2757 64.8898 73.0001 67.4711 73.0001 70.5838V70.5838C73.0001 70.8096 72.8225 71.0005 72.5968 71.0005H44.5"></path><rect width="63.333" height="39.167" x="8" y="46.29" stroke="#000" stroke-width="5" rx="5" transform="rotate(-28.571 8 46.29)"></rect><path stroke="#000" stroke-width="5" d="M54.0211 31.6657L25.6358 47.1234C25.1732 47.3754 24.9944 47.9417 25.1415 48.4476C25.8202 50.7807 25.0728 53.3156 23.2368 54.9073C22.8388 55.2524 22.6817 55.8251 22.9336 56.2878L26.0365 61.9857C26.2884 62.4483 26.8547 62.6271 27.3606 62.48C30.119 61.6775 33.1595 62.8685 34.5898 65.4951C34.6978 65.6933 34.945 65.7761 35.1433 65.6681L64.4408 49.7136C64.639 49.6056 64.7037 49.353 64.5957 49.1548C63.107 46.421 63.871 43.0658 66.2585 41.2225C66.6957 40.885 66.8814 40.2836 66.6173 39.7986L63.5884 34.2365C63.3242 33.7515 62.7182 33.5812 62.1975 33.7653C59.775 34.6219 57.07 33.8934 55.4015 31.9688C55.0564 31.5708 54.4837 31.4137 54.0211 31.6657Z"></path><circle cx="45.375" cy="48.709" r="4.167" fill="#000" transform="rotate(-28.571 45.375 48.71)"></circle></svg>