<svg xmlns="http://www.w3.org/2000/svg" width="96" height="96" fill="none" viewBox="0 0 24 24" id="smartphone"><path fill="#000" fill-rule="evenodd" d="M16.5 1.25C18.0188 1.25 19.25 2.48122 19.25 4L19.25 20C19.25 21.5188 18.0188 22.75 16.5 22.75L7.5 22.75C5.98122 22.75 4.75 21.5188 4.75 20L4.75 4C4.75 2.48122 5.98122 1.25 7.5 1.25L16.5 1.25ZM17.75 4C17.75 3.30964 17.1904 2.75 16.5 2.75L7.5 2.75C6.80964 2.75 6.25 3.30964 6.25 4L6.25 20C6.25 20.6904 6.80964 21.25 7.5 21.25L16.5 21.25C17.1904 21.25 17.75 20.6904 17.75 20L17.75 4Z" clip-rule="evenodd"></path><path fill="#000" fill-rule="evenodd" d="M10 1.25C9.79289 1.25 9.60539 1.33395 9.46967 1.46967L9.46887 1.47047C8.25952 2.6811 9.11686 4.75 10.8284 4.75H13.1716C14.8835 4.75 15.7409 2.68019 14.5303 1.46967L14 2V1.25H10Z" clip-rule="evenodd"></path></svg>