<svg xmlns="http://www.w3.org/2000/svg" width="48" height="48" id="target"><path d="M24 0C10.751 0 0 10.751 0 24s10.751 24 24 24 24-10.751 24-24S37.249 0 24 0zm0 1c12.708 0 23 10.291 23 23S36.708 47 24 47 1 36.709 1 24 11.292 1 24 1zm13.523 7v.002a.5.5 0 0 0-.048 0 .5.5 0 0 0-.329.144l-3 3a.5.5 0 0 0-.12.512l.402 1.207-3.14 3.14a12.043 12.043 0 0 0-8.186-3.208C16.424 12.797 11 18.22 11 24.898 11 31.576 16.424 37 23.102 37c6.677 0 12.103-5.424 12.103-12.102 0-3.159-1.224-6.029-3.21-8.185l3.14-3.14 1.207.402a.5.5 0 0 0 .512-.121l3-3a.5.5 0 0 0-.196-.829l-1.263-.42-.42-1.263A.5.5 0 0 0 37.523 8zm-.242 1.428.244.732a.5.5 0 0 0 .317.317l.732.244-2.209 2.209-.969-.323-.324-.97 2.21-2.21zm-14.18 4.37a11.05 11.05 0 0 1 7.483 2.913l-1.432 1.432a9.08 9.08 0 0 0-6.05-2.323 9.08 9.08 0 0 0-9.08 9.08 9.08 9.08 0 0 0 9.08 9.079 9.08 9.08 0 0 0 9.08-9.079 9.08 9.08 0 0 0-2.323-6.048l1.432-1.434a11.048 11.048 0 0 1 2.914 7.482 11.095 11.095 0 0 1-11.103 11.102A11.094 11.094 0 0 1 12 24.9 11.094 11.094 0 0 1 23.102 13.8zm0 4.04a7.062 7.062 0 0 1 4.624 1.734L26.297 21a5.044 5.044 0 0 0-3.195-1.145 5.044 5.044 0 0 0-5.043 5.045 5.044 5.044 0 0 0 5.043 5.043 5.044 5.044 0 0 0 5.044-5.043 5.044 5.044 0 0 0-1.142-3.193l1.432-1.432a7.062 7.062 0 0 1 1.728 4.625 7.062 7.062 0 0 1-7.062 7.06 7.062 7.062 0 0 1-7.063-7.06 7.062 7.062 0 0 1 7.063-7.062zm0 4.035a3.027 3.027 0 0 1 1.756.566l-1.502 1.502c-.083-.022-.163-.05-.253-.05a1.009 1.009 0 1 0 1.01 1.01c0-.089-.03-.169-.051-.25l1.503-1.506a3.027 3.027 0 0 1 .565 1.755 3.027 3.027 0 0 1-3.027 3.026 3.027 3.027 0 0 1-3.026-3.026 3.027 3.027 0 0 1 3.026-3.027z" color="#000" font-family="sans-serif" font-weight="400" overflow="visible" style="line-height:normal;text-indent:0;text-align:start;text-decoration-line:none;text-decoration-style:solid;text-decoration-color:#000;text-transform:none;block-progression:tb;isolation:auto;mix-blend-mode:normal"></path></svg>