<svg xmlns="http://www.w3.org/2000/svg" enable-background="new 0 0 64 64" viewBox="0 0 64 64" id="voice-assistance"><path d="M56.8827972,40.1683807c0.3009796-0.5940399,0.4641266-1.2497406,0.4641266-1.9369354v-9.2241211
		c0-1.1638184-0.4504395-2.2521973-1.2597656-3.0552979c-0.5049133-0.5172729-1.1171265-0.8889771-1.788208-1.0949249V12.7080536
		c0.8844452-0.3135223,1.5238037-1.1537933,1.5238037-2.1493378c0-1.2612305-1.0198975-2.2873535-2.2738037-2.2873535
		s-2.2741699,1.026123-2.2741699,2.2873535c0,0.9955444,0.6396332,1.8358154,1.5241699,2.1493378v11.9708862
		c-0.1399384,0.0076904-0.269165,0.0195465-0.369873,0.0393219c-0.3113251,0.0434875-0.6112518,0.1306458-0.9021606,0.2406921
		c-0.0134125-1.0125732-0.0435333-1.8681335-0.0946655-2.6620789c0-0.0000916-0.0000458-0.0001831-0.0000458-0.0001831
		l0.0000458-0.0005493c-0.2574463-3.923584-1.0579834-6.7452393-2.5960693-9.1497803
		c-4.21875-6.5749512-12.9536133-10.1228027-19.0305176-10.1228027c-5.8300781,0-14.2833252,3.2523193-18.4665527,9.2797852
		c-1.7844543,2.5659485-2.7272186,5.6439514-3.0576782,9.979248c0,0.0002747-0.0001831,0.0004578-0.0001831,0.0004578
		c-0.0001373,0.0018768-0.0002289,0.0036621-0.0003662,0.0052643v0.0001373
		c-0.0699005,0.8481903-0.1151276,1.7672424-0.141037,2.8064117c-0.3778381-0.1802216-0.7775116-0.3114166-1.1864777-0.3707428
		c-0.1246033-0.0236664-0.2615204-0.0365753-0.4053955-0.0447693V12.7080536
		c0.8844452-0.3135223,1.5238037-1.1537933,1.5238037-2.1493378c0-1.2612305-1.0198975-2.2873535-2.2738037-2.2873535
		s-2.2741699,1.026123-2.2741699,2.2873535c0,0.9955444,0.6396332,1.8358154,1.5241699,2.1493378v12.1517487
		C3.2857208,25.4032593,2,27.056427,2,29.0073242v9.2241211c0,2.3917236,1.9317627,4.3374023,4.3059082,4.3374023
		c1.1419373,0,2.2102661-0.4626617,2.9977112-1.2335815c2.9676361,11.5704803,11.210083,19.5078735,20.5020447,19.5078735
		c1.5850525,0,3.1458893-0.2316742,4.6456604-0.6767578c2.3094635,0.5341187,4.7362976,0.8100586,7.2206726,0.8100586
		C52.8809814,60.9764404,62,55.3708496,62,48.4805908C62,45.3771362,60.1883545,42.4471283,56.8827972,40.1683807z
		 M5.0238037,10.5587158c0-0.4343262,0.347168-0.7873535,0.7741699-0.7873535c0.4266357,0,0.7738037,0.3530273,0.7738037,0.7873535
		s-0.347168,0.7873535-0.7738037,0.7873535C5.3709717,11.3460693,5.0238037,10.993042,5.0238037,10.5587158z M6.3059082,41.0688477
		C4.758667,41.0688477,3.5,39.7958984,3.5,38.2314453v-9.2241211c0-1.5644531,1.258667-2.8374023,2.8059082-2.8374023
		c0.1252441,0,0.2504883,0.0054932,0.3995361,0.032959c0.5196533,0.0761719,1.0081787,0.2980957,1.4073486,0.6419678
		c-0.0009613,0.1135254,0.0005493,0.2335968-0.0001373,0.3476715c-0.0059967,0.9514618-0.0048065,1.9170227-0.0009613,2.9006195
		l0.0043945,1.8453369c0,0.5775146,0.0106201,1.1550293,0.0413818,1.7109375
		c0.0000458,0.0009155,0.0001373,0.0018311,0.0001831,0.0027466c0.0001373,0.0027008,0.0000458,0.0055389,0.0001831,0.0082397
		c0.0000458,0.0005493,0.0003662,0.0010071,0.000412,0.0015564c0.0197296,0.4875183,0.0499878,0.9754944,0.0899963,1.4634247
		c0.0125427,0.1530762,0.0319977,0.3056488,0.0465088,0.4586334c0.0319977,0.3372345,0.0633087,0.6744232,0.1048737,1.0109711
		c0.024353,0.1973419,0.0563965,0.3934021,0.0839996,0.590332c0.0409241,0.2917328,0.079834,0.5835571,0.1278534,0.8741455
		c0.0344238,0.2082367,0.0761261,0.4145966,0.1141663,0.6220093c0.0440826,0.2404175,0.0834503,0.4818878,0.1323853,0.7211151
		C8.4101563,40.4071045,7.4085693,41.0688477,6.3059082,41.0688477z M52.7747803,10.5587158
		c0-0.4343262,0.347168-0.7873535,0.7741699-0.7873535c0.4266357,0,0.7738037,0.3530273,0.7738037,0.7873535
		s-0.347168,0.7873535-0.7738037,0.7873535C53.1219482,11.3460693,52.7747803,10.993042,52.7747803,10.5587158z
		 M51.2147217,36.3634491c0.0258179-0.2180328,0.057312-0.43396,0.0791016-0.6525879
		c0.0682526-0.6843109,0.1209412-1.3692169,0.1490479-2.0504608c0.0001373-0.0025635,0.0000458-0.0052643,0.0001831-0.0078278
		c0.0000458-0.000824,0.0001373-0.0016022,0.0001831-0.0024261c0,0-0.0000916-0.000412-0.0000916-0.0006409
		c0.0306702-0.5635071,0.0414734-1.1371765,0.0414734-1.7110291c0-0.9898682,0.0131836-1.9639893,0.026001-2.9234619
		c0.0106201-0.8096924,0.0216064-1.6087646,0.0241699-2.3986816c0.333252-0.2164307,0.7148438-0.3588867,1.1374512-0.4185791
		c0.1179199-0.0223389,0.2435303-0.027832,0.3687744-0.027832c0.75,0,1.4505615,0.2947998,1.980835,0.8378906
		c0.5321045,0.5284424,0.8250732,1.2381592,0.8250732,1.9995117v9.2241211c0,0.3988037-0.0802002,0.7818604-0.2351074,1.1330566
		c-0.1396637-0.080658-0.2880249-0.1543121-0.4309845-0.2323151c-0.1291809-0.0704956-0.2574005-0.1414032-0.3891907-0.2097473
		c-0.3483124-0.1804504-0.7059174-0.3529816-1.0723572-0.5180511c-0.0722351-0.032547-0.1408539-0.0680695-0.2137299-0.0999756
		c-0.4390869-0.1922607-0.8922729-0.3717499-1.355484-0.5416718c-0.1279449-0.0469208-0.2600098-0.089447-0.3896942-0.1345825
		c-0.2231598-0.0777283-0.4426117-0.1591187-0.6708984-0.2316742
		C51.1402435,37.0539398,51.1739349,36.7081451,51.2147217,36.3634491z M12.5706787,13.1591797
		c3.8931885-5.6092529,11.7854004-8.6356201,17.2349854-8.6356201c5.6791992,0,13.8365479,3.3061523,17.7674561,9.4321289
		c1.2901611,2.0167236,2.0101318,4.3963623,2.3005371,7.6395264H9.8468018
		C10.2049561,17.9620361,11.0563965,15.3366699,12.5706787,13.1591797z M9.6160889,31.9384766l-0.0043945-1.8508301
		c-0.0047607-1.2026367-0.0091553-2.3854065,0.0043945-3.5405731v-0.0010529c0-0.0010529,0-0.002243,0-0.0032959
		c0.0095215-1.3286133,0.0446777-2.4437256,0.1094971-3.4475098h40.2487793
		c0.0421143,0.8942871,0.0611572,1.895874,0.0611572,3.1446533c0,0.9056396-0.0124512,1.8233643-0.0249023,2.7550049
		c-0.0128174,0.9664307-0.026001,1.9471436-0.026001,2.9436035c0,0.3100891-0.0143738,0.6205444-0.022522,0.9309082H9.6385193
		C9.6303253,32.5589752,9.6160889,32.2505341,9.6160889,31.9384766z M29.8056641,59.3431396
		c-9.0238037,0-17.0148926-8.2335205-19.4333496-20.0262451c-0.0936127-0.4430237-0.1768341-0.8887939-0.2529602-1.3359833
		c-0.0234833-0.1380157-0.0425262-0.2767639-0.0643616-0.4151459c-0.0490265-0.3106842-0.0960388-0.6216888-0.1365967-0.9337463
		c-0.0214233-0.1649323-0.0394592-0.3300934-0.0585022-0.4952087c-0.0331421-0.2878418-0.0636749-0.5759583-0.0896301-0.8644867
		c-0.0157013-0.1750488-0.0297546-0.3500519-0.0428009-0.5251007c-0.0093842-0.125885-0.0152435-0.2518616-0.0232086-0.3778381
		h40.1837311c-0.0284729,0.4417419-0.0504913,0.8836212-0.0961761,1.3243561
		c-0.0015564,0.0151062-0.0039368,0.0301208-0.0055389,0.0452271c-0.0433502,0.4131317-0.1085358,0.82164-0.1668091,1.2317963
		c-0.2341919-0.0614777-0.4774017-0.1062012-0.7147064-0.1619568c-0.2760315-0.0648651-0.5508728-0.1312408-0.8309784-0.188324
		c-0.4161072-0.0848694-0.8391266-0.1548615-1.2636566-0.2225647c-0.2704468-0.0431213-0.5381012-0.0915527-0.8118439-0.1277161
		c-0.4721375-0.0623474-0.9523773-0.1057892-1.4337158-0.1472626c-0.2345123-0.0201874-0.4650879-0.0493927-0.7016602-0.0646362
		c-0.721756-0.046463-1.4514313-0.0731964-2.1909027-0.0731964c-11.2086182,0-20.3276367,5.6055908-20.3276367,12.4954834
		c0,0.3054199,0.0207825,0.6080933,0.0553436,0.9087982c0.0113068,0.0983734,0.0318146,0.1951904,0.0467834,0.2930145
		c0.0308533,0.201828,0.0645905,0.4030609,0.1106873,0.6023254c0.0262756,0.1134338,0.0593719,0.2254028,0.0904999,0.3378754
		c0.050354,0.1820068,0.1044617,0.3630981,0.1674042,0.5425873c0.0404663,0.1154022,0.084549,0.2297974,0.1301422,0.344101
		c0.0699921,0.1755524,0.1462555,0.3495026,0.2281494,0.5222168c0.0526428,0.1110535,0.1055145,0.2217407,0.1630096,0.3315582
		c0.0928802,0.1773834,0.1947784,0.3522491,0.3001556,0.5262909c0.0604248,0.0997467,0.1177826,0.2002258,0.1821899,0.2988281
		c0.1281738,0.1962433,0.2682495,0.3886871,0.4121704,0.5800781c0.0541077,0.0718689,0.1026764,0.1454773,0.1589355,0.2166595
		c0.2066803,0.2615662,0.4267731,0.5185547,0.6622467,0.7699127c0.0353394,0.037674,0.0754395,0.0734253,0.1113739,0.1108704
		c0.2031555,0.2115784,0.4142761,0.4199982,0.6373901,0.6236115c0.0869293,0.0792847,0.1804962,0.1555939,0.2703552,0.2336426
		c0.1824188,0.1583862,0.3674927,0.3154449,0.5619507,0.4684296c0.1086273,0.0854645,0.2216492,0.1685486,0.3339844,0.2522278
		c0.1889648,0.1408539,0.3816376,0.2796021,0.5808563,0.415329c0.1222687,0.083313,0.2464142,0.16539,0.3724823,0.2466888
		c0.2044373,0.1318817,0.4144592,0.2604675,0.6286926,0.3869476c0.1292267,0.0763092,0.2578125,0.1528015,0.3905182,0.2270508
		c0.2319489,0.129776,0.4716339,0.2546539,0.7140198,0.3780212c0.1243286,0.0633087,0.2455444,0.1283112,0.3725281,0.1898346
		c0.3002014,0.1454773,0.6100616,0.284317,0.9249115,0.4197693c0.0772705,0.0331879,0.1505127,0.0691681,0.2286072,0.1017609
		c0.3805847,0.1589355,0.7702789,0.3112335,1.1709595,0.4550171C30.8394775,59.3167725,30.3238525,59.3431396,29.8056641,59.3431396
		z M41.6719971,59.4764404c-2.4375,0-4.81604-0.2724609-7.0686035-0.8096924
		c-7.0334473-1.6864014-11.7590332-5.7799072-11.7590332-10.1861572c0-6.0629883,8.4459229-10.9954834,18.8276367-10.9954834
		c2.958252,0,5.7714844,0.3896484,8.3653564,1.1590576c0.8467255,0.24646,1.647583,0.5375519,2.4180908,0.8548737
		c0.1959229,0.080658,0.3952332,0.1581116,0.5859375,0.2432098c0.8624268,0.3850708,1.674408,0.8124847,2.4232178,1.2855835
		l0.0004578,0.0001831l0.0002747,0.0001831C58.711792,43.0756836,60.5,45.72229,60.5,48.4805908
		C60.5,54.5435791,52.0537109,59.4764404,41.6719971,59.4764404z"></path><path d="M27.3875732 46.6630859c-.4141846 0-.75.3358154-.75.75v2.135376c0 .4141846.3358154.75.75.75s.75-.3358154.75-.75v-2.135376C28.1375732 46.9989014 27.8017578 46.6630859 27.3875732 46.6630859zM30.5622559 46.6630859c-.4141846 0-.75.3358154-.75.75v2.135376c0 .4141846.3358154.75.75.75s.75-.3358154.75-.75v-2.135376C31.3122559 46.9989014 30.9764404 46.6630859 30.5622559 46.6630859zM33.7373047 46.1291504c-.4141846 0-.75.3358154-.75.75v3.2028809c0 .4141846.3358154.75.75.75s.75-.3358154.75-.75v-3.2028809C34.4873047 46.4649658 34.1514893 46.1291504 33.7373047 46.1291504zM36.9123535 44.52771c-.4141846 0-.75.3358154-.75.75v6.4057617c0 .4141846.3358154.75.75.75s.75-.3358154.75-.75V45.27771C37.6623535 44.8635254 37.3265381 44.52771 36.9123535 44.52771zM40.0870361 41.8587646c-.4141846 0-.75.3358154-.75.75v11.7440186c0 .4141846.3358154.75.75.75s.75-.3358154.75-.75V42.6087646C40.8370361 42.1945801 40.5012207 41.8587646 40.0870361 41.8587646zM43.262085 39.7233887c-.4141846 0-.75.3358154-.75.75V56.487793c0 .4141846.3358154.75.75.75s.75-.3358154.75-.75V40.4733887C44.012085 40.0592041 43.6762695 39.7233887 43.262085 39.7233887zM46.4371338 42.4897461c-.4141846 0-.75.3358154-.75.75v10.4820557c0 .4141846.3358154.75.75.75s.75-.3358154.75-.75V43.2397461C47.1871338 42.8255615 46.8513184 42.4897461 46.4371338 42.4897461zM49.6118164 45.809082c-.4141846 0-.75.3358154-.75.75v3.8433838c0 .4141846.3358154.75.75.75s.75-.3358154.75-.75V46.559082C50.3618164 46.1448975 50.026001 45.809082 49.6118164 45.809082zM52.7868652 46.6630859c-.4141846 0-.75.3358154-.75.75v2.135376c0 .4141846.3358154.75.75.75s.75-.3358154.75-.75v-2.135376C53.5368652 46.9989014 53.2010498 46.6630859 52.7868652 46.6630859zM55.9619141 45.5955811c-.4141846 0-.75.3358154-.75.75v4.2703857c0 .4141846.3358154.75.75.75s.75-.3358154.75-.75v-4.2703857C56.7119141 45.9313965 56.3760986 45.5955811 55.9619141 45.5955811z"></path></svg>