<svg xmlns="http://www.w3.org/2000/svg" viewBox="0 0 80 80" id="control"><path d="M57 25c4.83 0 8.87-3.441 9.798-8H75v-4h-8.202C65.87 8.441 61.83 5 57 5s-8.87 3.441-9.798 8H5v4h42.202c.929 4.559 4.969 8 9.798 8zm0-16c3.309 0 6 2.691 6 6s-2.691 6-6 6-6-2.691-6-6 2.691-6 6-6zM41 50c4.83 0 8.87-3.441 9.798-8H75v-4H50.798c-.929-4.559-4.969-8-9.798-8s-8.87 3.441-9.798 8H5v4h26.202c.929 4.559 4.969 8 9.798 8zm0-16c3.309 0 6 2.691 6 6s-2.691 6-6 6-6-2.691-6-6 2.691-6 6-6zM25 75c4.83 0 8.87-3.441 9.798-8H75v-4H34.798c-.929-4.559-4.969-8-9.798-8s-8.87 3.441-9.798 8H5v4h10.202c.929 4.559 4.969 8 9.798 8zm0-16c3.309 0 6 2.691 6 6s-2.691 6-6 6-6-2.691-6-6 2.691-6 6-6z"></path></svg>