<svg width="1192" height="489" viewBox="0 0 1192 489" fill="none" xmlns="http://www.w3.org/2000/svg">
<g clip-path="url(#clip0_33_805)">
<path d="M-4.20976e-05 301.148C15.4001 297.564 30.774 293.822 46.2268 290.422C59.4683 287.523 72.8152 284.993 85.8461 282.358C83.0293 273.924 79.7387 265.517 77.501 256.873C73.7102 242.352 71.7095 227.62 76.369 212.783C79.9756 201.319 87.3993 192.49 96.2182 184.847C106.748 175.729 117.936 167.322 128.256 157.966C133.837 152.933 138.207 146.581 143.103 140.783C145.104 138.412 144.393 136.619 141.945 134.959C128.177 125.709 113.382 122.309 97.2448 127.369C89.8212 129.688 85.1616 135.328 81.8183 142.022C75.9742 153.75 74.4473 166.584 73.1574 179.339C70.7618 203.005 68.8401 226.698 66.5761 250.39C66.1549 254.791 65.3652 259.219 64.0226 263.409C63.2855 265.675 61.0215 267.441 59.442 269.418C57.5466 267.678 54.7298 266.255 53.9664 264.121C51.5708 257.453 49.2279 250.601 48.1749 243.643C43.8049 214.338 45.674 185.743 59.6 158.889C66.813 144.974 76.5796 133.352 90.5846 125.656C93.6383 123.996 96.2971 121.624 99.2982 119.885C108.96 114.35 111.724 105.785 110.776 95.2436C109.776 84.2012 108.486 73.1588 108.354 62.0901C108.249 51.3904 111.092 41.0596 115.962 31.4403C121.806 20.029 130.809 12.6499 143.761 10.8051C158.503 8.69675 172.851 10.4625 186.54 16.3658C189.962 17.8416 193.252 20.0817 195.938 22.6644C202.256 28.6731 201.203 36.3422 193.753 40.9014C192.147 41.8765 190.409 42.6935 188.356 43.774C191.41 54.2366 194.305 64.7255 197.622 75.0563C198.465 77.639 200.623 79.8528 202.335 82.0929C205.546 86.2305 204.757 88.7868 199.781 89.7883C192.41 91.2904 192.436 91.2904 193.437 98.7223C194.621 107.577 195.174 116.38 192.041 125.05C188.356 135.17 182.222 138.095 172.403 133.721C167.507 131.533 162.926 128.634 158.266 125.946C155.555 124.391 154.002 124.945 152.791 127.87C150.764 132.824 149.447 136.909 153.975 141.996C158.266 146.845 160.873 153.328 163.689 159.31C176.878 187.246 190.33 215.076 202.729 243.353C207.573 254.422 210.258 266.519 213.128 278.325C214.286 283.095 214.102 288.524 213.207 293.4C211.469 302.808 203.73 305.892 196.28 299.962C191.541 296.193 187.145 291.476 184.012 286.311C174.377 270.472 165.716 254.053 156.081 238.241C151.501 230.73 145.657 223.957 140.128 217.078C138.549 215.102 136.048 213.837 133.126 212.994C135.864 218.054 138.786 223.034 141.339 228.2C157.371 260.747 173.008 293.505 189.462 325.868C196.043 338.808 204.151 351.01 211.891 363.344C214.049 366.77 217.261 369.563 220.315 372.304C221.578 373.437 224.237 374.676 225.237 374.096C226.659 373.279 227.949 370.775 227.844 369.062C227.343 361.024 226.659 352.96 225.448 344.975C223.79 333.853 221.473 322.811 219.709 311.716C217.129 295.666 222.289 281.013 228.37 266.571C229.528 263.831 230.45 260.905 231.003 257.98C233.451 245.198 238.953 233.866 247.298 224.062C265.831 202.267 287.917 184.584 312.163 169.536C323.088 162.763 334.276 162.051 345.543 168.086C357.1 174.306 368.367 181.105 379.818 187.562C382.793 189.249 385.899 190.672 389.559 192.543C390.348 187.035 387.847 183.741 385.031 180.842C378.186 173.805 369.999 168.771 360.891 165.187C358.521 164.265 356.178 163.29 353.73 162.631C341.463 159.258 334.276 151.404 332.223 138.781C330.038 125.366 327.037 112.031 325.615 98.5115C323.772 81.0124 325.536 63.6977 331.775 47.0156C342.674 17.8153 380.766 -1.6077 413.725 22.4536C425.361 30.9659 434.311 41.613 440.261 54.79C444.604 64.4093 444.841 73.9495 438.918 82.9098C432.837 92.1074 432.679 101.147 438.102 110.634C440.129 114.192 441.814 118.013 443.183 121.861C444.868 126.605 443.025 129.504 438.207 130.637C437.892 130.716 437.576 130.743 437.26 130.795C426.677 132.614 426.151 132.693 427.835 143.524C429.968 157.307 425.15 167.322 413.646 174.622C411.645 175.887 409.829 177.442 407.881 178.812C398.562 185.375 398.588 196.812 400.852 205.035C402.168 209.857 405.117 210.595 408.355 206.827C412.04 202.531 415.515 197.893 418.227 192.938C423.228 183.767 428.572 174.596 431.995 164.792C438.681 145.606 452.607 133.721 469.403 124.18C481.328 117.407 484.855 116.538 503.52 115.879C502.914 108.052 502.414 100.224 501.625 92.4237C501.493 91.2114 500.177 90.0782 499.334 88.9449C496.912 85.6243 494.227 82.4618 492.121 78.9567C491.042 77.1646 490.647 74.7928 490.489 72.6318C490.226 69.0212 491.542 65.8588 495.306 64.8309C499.361 63.7504 501.309 66.8339 502.151 69.8646C503.625 75.1617 504.389 80.6697 505.442 86.0987C505.705 87.4691 505.547 89.2875 506.363 90.1572C512.628 96.614 518.999 102.965 528.634 107.999C528.976 103.229 529.819 99.4075 529.424 95.7443C528.318 85.0445 528.108 85.0709 538.322 82.7517C537.769 72.2628 532.214 61.5103 539.138 50.7315C526.502 47.3318 514.103 46.5412 502.572 54.711C501.282 55.6334 500.098 56.7139 498.781 57.5836C496.149 59.2966 494.332 58.506 493.253 55.6597C489.752 46.4885 495.175 32.5999 504.152 28.2251C513.208 23.7976 522.869 21.9792 532.793 23.4814C544.956 25.3262 551.853 33.4959 555.38 44.6964C559.54 57.9262 557.46 71.0769 554.117 84.0958C551.853 92.8717 549.326 101.7 542.323 108.052C540.085 110.081 536.979 111.926 534.11 112.242C530.345 112.637 527.976 114.429 525.133 116.485C521.316 119.226 516.682 120.833 512.312 122.968C517.288 136.251 532.162 139.439 542.244 128.608C544.929 125.709 547.509 122.705 550.142 119.726C554.722 114.508 560.25 113.533 566.463 116.169C568.622 117.091 570.728 118.277 572.676 119.621C579.336 124.128 583.443 131.349 591.288 135.065C597.5 138.016 599.001 145.949 600.133 152.775C602.976 170.168 604.003 187.562 597.079 204.297C595.079 209.12 591.709 213.626 588.076 217.421C586.286 219.292 581.89 220.531 579.705 219.608C577.493 218.686 575.308 214.759 575.256 212.124C575.151 203.77 575.651 195.336 576.651 187.035C578.125 175.096 580.468 163.237 581.969 151.299C582.495 147.161 581.758 142.813 581.337 138.57C581.021 135.275 579.047 134.88 576.282 136.198C571.939 138.253 569.175 141.653 568.359 146.265C567.411 151.562 567.069 156.938 566.463 162.288C565.542 170.616 565.358 179.129 563.541 187.246C560.698 199.896 551.826 207.617 538.927 207.802C525.686 207.986 512.418 206.484 499.176 205.667C492.069 205.219 484.934 204.086 478.406 208.303C472.035 212.44 472.246 221.849 479.196 225.116C483.276 227.04 487.883 228.279 492.358 228.832C521.79 232.417 551.195 231.916 580.31 226.118C592.762 223.641 604.635 224.168 615.823 230.256C623.72 234.578 630.723 233.813 639.015 230.361C659.259 221.954 675.265 207.96 691.297 193.755C696.746 188.932 702.248 184.083 708.224 179.972C716.569 174.227 725.414 171.96 735.497 176.783C737.84 177.916 742.341 174.886 745.685 173.41C747.817 172.487 749.686 170.906 751.292 168.666C733.917 166.294 729.152 154.672 727.389 140.599C722.203 142.892 720.57 142.365 717.727 137.7C713.936 131.48 714.121 128.792 718.596 123.521C719.122 122.915 719.359 121.835 719.307 121.018C718.991 116.327 718.517 111.636 718.069 106.444C718.122 106.47 717.569 106.207 717.016 105.97C710.725 103.334 709.619 99.4866 714.331 94.3212C722.913 84.9128 733.733 79.7474 746.448 78.7459C755.714 78.0343 764.77 78.825 773.431 82.5936C785.119 87.7063 789.99 97.6945 786.646 110.107C786.304 111.32 785.857 112.505 785.383 113.85C789.884 116.406 791.543 120.412 790.911 125.366C790.384 129.583 787.594 131.612 783.066 132.166C783.066 139.123 782.513 145.975 783.198 152.722C784.119 161.709 790.885 167.322 796.834 173.225C797.308 173.7 798.677 173.7 799.44 173.436C806.364 170.853 811.418 174.411 816.078 178.654C817.236 179.708 818.263 182.555 817.657 183.503C816.789 184.874 814.156 186.271 812.656 185.928C807.812 184.821 803.152 182.95 797.992 181.237C794.86 185.691 791.753 191.12 787.699 195.653C782.777 201.161 777.617 206.774 771.562 210.885C757.241 220.584 741.841 213.758 738.445 196.891C737.55 192.411 736.602 187.957 735.602 183.029C723.993 186.534 713.699 191.172 704.512 198.051C693.087 206.59 681.978 215.55 670.447 223.931C664.314 228.384 657.917 232.812 650.993 235.632C645.044 238.056 638.173 238.214 631.697 239.348C629.67 239.717 627.643 240.007 624.958 240.428C627.064 243.643 628.88 245.831 630.038 248.334C631.96 252.472 629.564 255.634 625.01 255.318C619.271 254.923 616.112 250.416 617.244 244.724C617.508 243.406 617.034 241.034 616.112 240.534C608.478 236.291 600.238 234.156 591.472 235.474C586.312 236.238 584.68 238.926 586.049 243.933C588.708 253.737 595.579 259.034 605.24 260.747C615.112 262.487 625.063 261.801 634.119 257.532C655.152 247.623 675.923 237.134 696.772 226.856C698.905 225.802 700.853 224.431 702.959 223.298C710.225 219.371 712.383 220.452 713.857 228.384C714.305 230.835 715.042 233.339 716.095 235.579C718.201 240.033 721.07 242.51 726.862 241.693C734.996 240.56 743.289 240.507 751.529 240.534C764.665 240.56 774.616 235.395 781.671 224.141C787.568 214.733 794.096 205.562 803.336 199.131C810.181 194.361 817.341 189.802 824.949 186.508C834.426 182.396 840.086 186.402 840.297 196.865C840.771 220.663 832.241 240.033 810.971 252.235C795.07 261.353 778.275 268.074 759.4 264.094C746.29 261.327 734.207 255.766 722.861 248.572C720.939 247.359 718.175 246.621 715.963 246.911C703.749 248.572 691.613 250.627 679.451 252.551C679.424 253.078 679.398 253.579 679.398 254.106C683.215 254.897 687.006 255.845 690.849 256.451C729.916 262.697 768.93 269.418 808.128 274.926C832.61 278.378 857.382 279.353 881.943 274.636C886.287 273.792 890.736 273.028 894.816 271.421C897.264 270.472 899.37 268.179 901.213 266.123C918.983 246.305 936.489 226.276 954.495 206.669C959.365 201.345 965.42 197.023 971.264 192.701C989.981 178.97 1010.23 177.732 1031.05 186.85C1041.29 191.357 1050.95 197.207 1060.8 202.61C1067.43 206.273 1073.91 210.226 1080.38 213.995C1082.62 209.831 1084.59 206.168 1086.59 202.505C1089.31 197.55 1089.38 192.648 1085.54 188.353C1080.8 183.055 1075.88 177.89 1070.75 172.962C1061.16 163.711 1051.29 154.777 1045.05 142.655C1036.42 125.867 1035.79 108.025 1037.42 89.7619C1038.47 77.7708 1039.68 65.7533 1039.74 53.7359C1039.79 41.4549 1033.73 34.8136 1021.68 33.2324C1009.12 31.5721 997.01 33.6277 986.006 40.2953C979.557 44.222 978.583 46.3831 980.952 53.5778C983.137 60.1926 985.611 66.7284 988.612 73.0007C999.643 96.1132 1003.2 120.385 1000.75 145.712C1000.72 145.87 1000.72 146.028 1000.72 146.186C998.669 162.051 993.061 164.054 977.766 156.675C973.607 154.672 973.633 150.271 973.791 146.212C974.028 140.045 974.607 133.852 974.45 127.685C974.186 118.751 971.975 116.511 963.288 114.377C961.735 113.981 959.339 113.006 959.155 111.978C958.918 110.503 959.918 108.21 961.155 107.235C971.554 98.9331 973.502 88.1543 971.896 75.6361C970.553 65.279 970.159 54.8955 974.897 44.8282C977.345 39.6628 977.161 33.2588 979.636 28.1197C986.296 14.2838 998.3 6.90467 1012.88 3.68947C1033.55 -0.843429 1054.37 -1.44957 1075.06 3.47864C1092.54 7.66894 1104 19.1066 1111.29 35.1035C1119.74 53.6305 1123.66 73.3697 1126.27 93.3724C1129.71 119.621 1132.19 145.975 1135.95 172.171C1137.82 185.216 1142.06 197.735 1151.59 207.775C1154.93 211.281 1154.91 215.392 1151.28 216.551C1138.61 220.584 1128.66 231.441 1114.76 231.758C1105.47 231.969 1096.05 231.521 1086.88 230.045C1066.27 226.724 1045.82 222.27 1025.2 218.871C1005.75 215.655 986.533 215.761 969.5 227.857C962.156 233.075 954.995 238.61 947.993 244.302C933.698 255.924 919.193 267.151 901.582 273.529C900.213 274.03 899.002 275.295 897.975 276.454C867.57 310.688 837.19 344.948 806.785 379.209C805.679 380.447 804.626 381.739 803.573 383.004C803.81 383.452 804.047 383.9 804.284 384.321C816.815 381.106 829.504 378.471 841.797 374.544C859.567 368.852 876.941 361.894 894.711 356.175C901.819 353.883 909.505 352.591 916.982 352.301C927.643 351.88 936.12 357.519 941.333 366.374C947.835 377.39 952.995 389.197 958.839 400.608C962.577 407.935 966.026 415.472 970.422 422.403C975.397 430.257 980.241 430.52 986.19 423.352C990.929 417.659 995.141 411.413 998.827 404.983C1009.86 385.745 1019.97 365.953 1031.5 347.03C1044.74 325.315 1061.51 306.709 1083.59 293.268C1104.44 280.539 1127.08 277.166 1150.78 279.775C1163.17 281.145 1175.44 283.912 1187.76 286.047C1188.53 286.179 1189.45 286.232 1190.03 286.68C1190.82 287.259 1191.34 288.182 1191.97 288.972C1190.97 289.499 1189.89 290.58 1189 290.422C1184.16 289.631 1179.39 288.498 1174.57 287.549C1158.51 284.413 1142.4 282.015 1125.98 283.491C1100.26 285.784 1079.54 298.144 1061.48 315.748C1041.66 335.066 1028.49 358.943 1015.57 383.004C1009.28 394.731 1002.67 406.301 995.773 417.659C993.193 421.929 989.692 425.803 985.98 429.176C980.504 434.157 974.792 434.078 970.211 428.333C965.631 422.588 961.84 416.052 958.47 409.463C952.047 396.919 946.729 383.794 939.911 371.487C932.593 358.31 922.168 354.146 907.452 356.887C903.582 357.625 899.739 358.653 896.001 359.918C876.862 366.506 857.908 373.727 838.559 379.736C826.371 383.531 813.603 385.481 801.125 388.459C799.124 388.933 797.018 390.04 795.57 391.49C790.727 396.26 786.172 401.346 781.434 406.274C775.748 412.204 768.824 414.26 761.058 411.73C749.028 407.829 736.892 404.034 725.23 399.159C709.856 392.755 693.982 389.592 677.555 387.537C648.44 383.9 620.272 376.626 595.342 360.181C588.761 355.833 582.653 350.694 576.546 345.713C575.308 344.685 574.887 342.656 574.098 341.074C575.94 340.785 578.046 339.783 579.599 340.337C595.237 345.95 610.821 351.748 626.379 357.625C650.967 366.875 675.396 376.679 700.221 385.244C707.776 387.853 716.464 387.906 724.624 387.827C746.606 387.563 768.587 386.72 790.542 385.692C793.438 385.56 796.966 383.663 798.94 381.449C828.477 348.77 857.829 315.906 887.182 283.069C888.709 281.356 890.104 279.485 892.078 277.008C884.549 278.22 878.073 279.538 871.518 280.276C850.142 282.727 828.688 282.094 807.548 278.905C763.243 272.238 719.096 264.621 674.923 257.242C672.58 256.847 670.5 254.897 668.289 253.684C670.526 252.34 672.632 250.232 675.054 249.758C687.164 247.307 699.326 245.277 711.488 243.116C712.515 242.932 713.542 242.695 714.437 242.537C712.357 236.791 710.409 231.362 708.224 225.275C705.407 226.777 702.459 228.437 699.458 229.966C679.53 239.98 659.707 250.258 639.568 259.851C628.827 264.964 617.244 266.914 605.293 264.911C594.263 263.066 586.26 257.374 582.522 246.542C579.52 237.846 583.101 232.206 592.235 231.152C595.026 230.835 597.948 230.993 600.765 231.283C603.555 231.547 606.293 232.258 609.11 232.469C601.686 227.936 593.604 227.857 585.47 229.465C560.461 234.472 535.189 235.711 509.812 234.472C501.94 234.077 494.043 233.023 486.251 231.758C477.326 230.308 470.087 226.619 469.692 215.471C464.006 217.869 462.348 214.338 461.11 210.226C460.663 208.698 460.241 207.196 459.768 205.667C458.609 201.899 456.082 200.739 452.397 201.925C450.58 202.505 448.816 203.19 447 203.717C441.735 205.245 439.129 203.19 439.181 197.656C439.26 190.039 443.762 183.793 450.238 182.291C458.636 180.315 467.823 184.294 471.43 192.095C473.246 196.022 473.931 200.475 475.168 204.956C488.883 197.207 503.494 203.111 517.946 203.612C523.948 203.822 529.977 204.402 535.979 204.086C550.642 203.348 558.671 196.074 560.803 181.5C561.804 174.622 561.988 167.612 562.514 160.654C562.778 157.334 562.804 153.987 563.304 150.719C564.963 139.334 567.306 136.145 578.02 130.663C573.439 124.602 568.201 119.832 560.54 119.041C558.408 118.83 555.723 120.438 553.88 121.94C551.353 124.022 549.326 126.763 547.167 129.293C535.347 143.05 520.658 143.313 510.838 128.16C504.441 118.277 496.228 118.224 488.067 121.018C466.349 128.423 447.5 139.677 437.628 162.446C431.284 177.073 423.07 190.883 415.489 204.929C414.252 207.222 412.172 209.172 410.171 210.938C405.406 215.128 400.615 214.074 397.772 208.461C392.955 198.868 395.771 183.951 403.879 176.968C406.881 174.385 410.092 172.039 413.383 169.826C422.017 163.975 425.598 156.042 423.939 145.685C423.465 142.707 423.07 139.703 422.913 136.725C422.623 130.874 424.492 128.634 430.178 127.606C441.051 125.656 441.051 125.656 435.97 115.51C434.917 113.375 434.022 111.161 432.916 109.053C428.335 100.224 428.809 91.4749 434.206 83.3315C440.919 73.1588 440.471 63.2233 434.838 52.8662C426.967 38.3451 416.121 26.8811 401.063 19.9499C378.844 9.75091 351.545 19.133 339.251 41.2177C329.643 58.4796 328.537 77.3491 330.485 96.693C330.854 94.2157 331.222 91.7385 331.591 89.2875C331.986 86.7839 332.302 84.2539 332.828 81.803C336.066 66.4913 342.753 52.8135 352.361 40.5061C360.864 29.6219 371.789 25.8533 385.189 28.6995C401.405 32.1255 416.437 38.1343 428.836 49.4402C438.286 58.0579 437.339 66.175 426.098 72.5C420.78 75.5043 414.962 77.6127 409.118 80.2217C414.91 87.5745 416.094 95.8233 413.33 104.441C412.461 107.129 410.487 109.844 408.276 111.636C403.221 115.747 397.061 114.087 394.797 107.973C393.297 103.888 392.797 99.4075 391.691 94.4266C390.77 95.7443 389.848 96.8248 389.164 98.0898C384.82 106.181 380.634 114.377 376.212 122.441C374.158 126.183 372.052 129.952 369.446 133.325C361.601 143.498 349.808 144.578 339.962 136.251C338.672 135.144 337.461 133.931 336.092 132.64C334.881 143.182 341.041 153.091 350.861 157.281C359.574 160.997 368.314 164.687 376.712 169.035C380.713 171.091 384.346 174.253 387.426 177.574C390.032 180.394 392.165 183.978 393.428 187.588C394.165 189.697 393.56 193.307 392.112 194.809C390.954 196.022 387.137 195.916 385.241 194.941C377.923 191.172 370.999 186.719 363.786 182.713C356.468 178.628 349.097 174.596 341.594 170.88C333.539 166.874 325.431 167.085 317.454 171.46C298.448 181.948 281.81 195.6 265.989 210.279C256.09 219.477 246.798 229.228 240.822 241.614C240.216 242.905 239.611 244.197 239.084 245.515C238.874 246.068 238.795 246.674 238.663 247.28C243.402 243.802 247.719 239.875 252.668 237.134C264.936 230.335 278.335 230.993 291.129 234.261C311.952 239.559 332.46 246.226 353.098 252.261C357.574 253.579 362.102 254.686 366.629 255.898C366.866 255.476 367.103 255.028 367.314 254.607C365.261 252.736 363.365 250.654 361.128 249.046C349.966 240.982 338.646 233.102 327.484 225.011C322.614 221.48 317.928 217.685 313.348 213.784C311.084 211.86 308.978 209.594 307.293 207.143C302.817 200.581 304.976 195.02 312.689 193.254C321.508 191.251 330.196 193.017 338.356 196.048C365.208 206.036 392.112 215.893 418.49 227.04C443.973 237.819 458.109 258.323 462.848 285.336C466.217 304.548 468.587 323.918 472.456 343.025C474.641 353.803 478.143 364.503 482.565 374.544C487.672 386.087 494.175 386.193 500.493 375.282C506.205 365.426 510.838 354.963 516.209 344.896C519.262 339.177 522.922 333.801 526.081 328.108C526.844 326.711 527.213 324.55 526.739 323.075C524.027 314.615 525.738 309.081 533.241 304.31C540.796 299.514 549.299 297.775 558.092 297.195C575.572 296.009 592.63 298.117 608.741 305.127C613.796 307.341 618.666 310.899 622.43 314.958C627.274 320.149 625.405 325.868 618.534 327.581C611.821 329.241 604.819 329.716 597.922 330.744C591.814 331.64 585.707 332.457 579.626 333.537C562.278 336.621 551.8 347.241 547.588 364.002C544.903 374.755 543.087 385.718 540.77 396.576C534.82 424.485 524.053 450.128 504.52 471.369C499.755 476.561 494.148 481.225 488.251 485.073C479.248 490.95 470.166 490.37 462.611 482.78C456.319 476.455 450.738 469.129 446.131 461.46C436.996 446.254 429.02 430.362 419.964 415.103C415.173 407.012 409.092 399.66 403.485 391.832C394.508 397.604 385.584 396.655 377.238 394.784C348.834 388.485 320.534 381.607 292.287 374.597C281.099 371.83 270.095 368.166 259.065 364.767C243.981 360.128 235.399 349.692 233.74 334.17C231.924 317.171 230.924 300.067 229.607 283.016C229.476 281.488 229.581 279.933 229.581 277.825C226.238 281.989 222.842 291.634 223.395 299.092C224.237 310.583 226.027 322.02 227.554 333.484C228.976 344.158 230.766 354.779 231.95 365.478C232.477 370.169 232.529 375.677 227.37 378.023C221.92 380.526 218.077 376.336 214.655 372.857C204.651 362.685 197.438 350.483 191.12 337.886C175.615 307.025 160.609 275.901 145.209 244.987C139.918 234.367 133.995 224.036 128.519 213.494C127.624 211.729 127.65 209.515 127.229 207.486C129.467 207.591 131.968 207.064 133.889 207.907C141.576 211.202 147.315 217.131 151.632 223.957C159.688 236.66 166.98 249.837 174.641 262.776C179.563 271.078 184.407 279.459 189.725 287.523C191.936 290.896 194.964 293.927 198.149 296.431C203.598 300.726 208.6 298.882 209.337 291.977C209.943 286.416 209.574 280.513 208.416 275.031C203.519 251.734 193.516 230.282 183.381 208.935C174.43 190.039 165.111 171.301 155.792 152.564C153.791 148.532 151.106 144.868 148.237 140.23C137.048 160.101 118.805 171.117 102.694 184.162C80.4231 202.188 72.9994 224.458 80.4231 251.787C82.8977 260.932 86.4252 269.76 89.4789 278.747C90.4266 281.541 92.2431 282.41 95.2704 282.226C104.984 281.62 114.619 282.41 123.781 286.021C126.703 287.18 129.862 288.366 132.152 290.369C134.205 292.188 136.627 295.376 136.285 297.564C135.943 299.725 132.626 302.387 130.151 303.072C116.541 306.761 103.905 304.205 94.744 293.268C90.0054 287.628 85.7408 286.337 79.0542 287.892C52.7291 294.085 26.325 299.936 -0.0263672 305.918C-4.20976e-05 304.337 -4.20976e-05 302.756 -4.20976e-05 301.148ZM778.933 144.842C778.301 145.975 777.459 147.056 777.117 148.294C774.8 156.253 770.062 162.183 762.138 164.792C757.926 166.189 754.556 167.612 752.74 172.171C751.924 174.253 749.317 175.808 747.264 177.178C744.816 178.812 742.078 179.998 739.393 181.395C740.893 187.984 742.052 194.361 743.842 200.554C745.711 207.064 750.923 210.516 757.636 210.859C765.27 211.228 771.246 207.591 776.011 202.399C781.96 195.916 787.015 188.616 792.596 181.764C795.07 178.733 794.728 176.73 791.806 173.937C783.54 166.083 777.09 157.228 778.933 144.842C778.933 136.54 778.933 128.265 778.933 121.334C775.037 119.542 772.273 118.303 769.614 117.065C775.669 125.129 778.512 134.564 778.933 144.842ZM529.371 330.164C526.581 334.96 523.316 340.152 520.473 345.581C515.024 355.965 510.364 366.796 504.336 376.811C495.412 391.701 485.672 391.305 478.485 375.493C474.009 365.636 470.745 354.989 468.587 344.369C464.796 325.578 462.268 306.551 459.188 287.628C454.555 259.113 438.866 239.348 412.198 228.358C402.537 224.379 392.849 220.478 383.056 216.841C366.287 210.622 349.597 204.191 332.539 198.815C326.457 196.891 319.455 197.26 312.953 197.603C308.925 197.814 307.977 200.713 310.267 204.139C312.005 206.721 314.111 209.278 316.612 211.122C329.801 220.979 343.226 230.519 356.468 240.323C360.917 243.617 365.313 247.069 369.262 250.917C370.815 252.419 371.131 255.239 372 257.453C369.736 258.112 367.288 259.667 365.234 259.271C358.732 257.98 352.309 256.241 346.017 254.159C325.852 247.544 305.924 240.138 284.785 237.16C274.65 235.737 264.462 235.289 255.09 240.428C244.218 246.358 235.241 254.897 234.188 267.547C232.345 289.71 234.293 311.9 237.689 333.906C239.874 348.006 247.535 357.414 261.382 361.209C292.498 369.774 323.588 378.576 354.888 386.43C366.761 389.408 379.213 390.146 391.454 391.569C393.823 391.832 396.35 390.62 398.957 390.04C398.457 388.828 398.404 388.485 398.193 388.275C396.614 386.693 395.034 385.165 393.455 383.61C383.609 374.07 379.345 361.973 378.186 348.691C377.976 346.319 379.871 343.736 380.792 341.259C383.083 342.392 386.084 342.919 387.532 344.711C397.009 356.465 402.089 370.143 404.38 384.98C404.643 386.693 405.301 388.538 406.275 389.935C413.304 399.87 421.07 409.305 427.44 419.636C435.654 432.971 442.393 447.229 450.528 460.617C454.845 467.706 460.215 474.347 466.112 480.198C471.956 485.996 478.695 486.154 485.751 481.832C489.91 479.302 493.885 476.245 497.36 472.845C515.261 455.319 526.554 433.814 533.136 409.938C537.032 395.759 539.454 381.159 542.586 366.77C547.062 346.187 558.724 332.72 580.179 329.083C585.022 328.266 589.866 327.555 594.736 326.87C601.949 325.868 609.215 325.209 616.349 323.865C621.509 322.89 622.404 319.938 618.508 316.354C615.217 313.297 611.295 310.504 607.188 308.764C590.524 301.675 572.939 299.224 555.091 301.622C547.799 302.597 540.507 305.681 533.899 309.107C528.529 311.9 528.318 316.987 531.688 321.994C539.954 318.963 545.535 320.123 550.352 326.026C552.511 328.662 554.538 331.613 552.379 335.066C550.194 338.571 546.404 339.072 543.087 337.701C538.664 335.935 534.61 333.142 529.371 330.164ZM980.531 38.0552C993.246 30.3071 1006.83 27.6717 1021.26 28.9894C1034.66 30.228 1043.16 38.187 1043.68 51.5485C1044.11 61.7739 1043.08 72.1047 1042.18 82.3564C1041.03 95.4807 1039.68 108.579 1042.16 121.677C1045.4 138.965 1054.9 152.432 1067.48 164.212C1074.85 171.117 1082.01 178.338 1088.78 185.849C1093.94 191.594 1093.6 198.288 1089.94 204.85C1088.67 207.143 1087.36 209.409 1086.07 211.702C1086.28 212.203 1086.52 212.677 1086.73 213.178C1091.07 212.414 1095.62 212.15 1099.76 210.753C1109.08 207.591 1111.76 202.426 1108.76 193.123C1106.73 186.824 1103.71 180.842 1101.18 174.701C1095.18 160.075 1088.36 145.712 1083.44 130.716C1077.99 114.087 1077.12 96.7984 1082.12 79.6683C1082.86 77.1119 1083.86 74.5293 1085.25 72.2892C1085.91 71.1823 1087.86 70.1018 1088.99 70.2862C1090.15 70.4971 1091.6 72.1047 1091.94 73.396C1092.7 76.1105 1093.04 78.9831 1093.18 81.8293C1094.68 112.242 1102.31 140.757 1117.16 167.559C1125.85 183.293 1137.01 198.341 1137.11 218.502C1141.69 216.604 1145.72 214.917 1150.01 213.152C1149.09 211.518 1148.83 210.727 1148.3 210.2C1137.48 198.841 1133.4 184.399 1131.29 169.615C1127.79 145 1125.63 120.175 1122.48 95.5071C1119.97 75.8206 1116.13 56.3713 1108.15 38.0552C1100.44 20.3716 1087.62 8.67039 1068.06 6.32488C1056.66 4.95447 1045.03 4.58551 1033.55 4.8227C1022.47 5.03353 1011.46 7.08915 1001.35 12.0964C990.508 17.4463 983.453 26.1168 980.531 38.0552ZM334.065 107.077C334.065 109.923 334.065 112.795 334.065 115.642C334.092 124.655 338.857 130.901 346.149 135.302C352.809 139.334 359.495 138.385 364.55 132.508C367.709 128.819 370.236 124.523 372.658 120.28C378.555 109.975 384.109 99.4866 390.006 89.1821C393.534 83.0416 398.957 79.1676 405.591 76.6639C412.093 74.213 418.648 71.7094 424.703 68.3624C432.732 63.9086 433.1 58.9276 426.387 52.6554C414.936 41.982 400.905 36.4739 385.926 32.8107C372.474 29.5165 362.233 33.7595 354.046 44.8018C340.304 63.3551 334.329 84.2539 334.065 107.077ZM186.434 39.8209C188.172 39.0303 189.646 38.5032 190.988 37.7389C196.964 34.3656 197.675 29.8327 192.673 25.1944C190.383 23.0861 187.645 21.2149 184.802 20.0026C172.14 14.6791 158.925 12.8607 145.288 14.6528C132.889 16.2604 124.386 23.1915 119.2 34.2866C112.987 47.5163 111.381 61.4576 112.619 76.0051C113.935 91.3168 120.437 107.551 105.09 121.281C121.069 120.016 134.337 124.18 146.499 133.009C147.289 131.006 147.868 129.557 148.421 128.081C151.475 119.726 153.923 118.804 161.847 123.179C165.164 125.024 168.349 127.132 171.745 128.845C181.669 133.879 186.25 131.823 189.093 121.044C189.778 118.462 190.225 115.721 190.172 113.059C190.093 107.841 189.672 102.623 189.251 97.4046C188.461 87.6536 188.804 87.1792 198.202 85.8088C198.438 85.7824 198.623 85.4398 199.202 84.9128C189.067 73.7913 190.541 58.0316 183.828 45.0654C178.379 46.5939 173.193 48.0434 168.033 49.4929C164.453 50.4943 162.873 52.8662 164.505 56.2922C167.849 63.3288 165.769 67.9934 160.583 73.844C155.002 80.1427 150.711 84.3857 142.866 78.3242C142.866 83.7795 143.393 88.7341 142.629 93.4778C142.261 95.797 139.839 99.0385 137.785 99.5129C135.706 100.014 132.257 98.2479 130.625 96.3768C122.912 87.6272 123.965 78.1134 133.205 70.787C122.859 59.8237 124.017 47.1474 128.493 34.3129C133.784 19.133 144.709 14.073 160.109 19.0539C171.35 22.6908 180.327 29.2529 186.434 39.8209ZM906.926 265.385C907.163 265.728 907.399 266.097 907.636 266.44C909.874 265.359 912.243 264.516 914.297 263.172C921.457 258.507 928.697 253.948 935.541 248.861C945.834 241.219 955.653 232.944 965.973 225.327C979.583 215.313 995.22 211.36 1011.78 213.442C1030.29 215.787 1048.55 219.688 1067.03 222.376C1082.49 224.616 1098.05 226.25 1113.6 227.778C1116.74 228.094 1120.03 226.777 1123.24 226.223C1122.11 225.09 1121.16 225.011 1120.21 225.116C1102.15 226.935 1085.73 222.059 1070.35 212.941C1063.14 208.645 1056.16 203.901 1048.74 200.054C1040.18 195.653 1031.44 191.462 1022.44 188.142C1004.64 181.606 988.112 185.243 973.107 196.285C947.071 215.524 927.88 241.298 906.926 265.385ZM728.073 245.541C738.919 253.184 750.344 258.613 762.98 260.431C781.25 263.066 797.229 256.056 812.076 246.542C830.03 235.052 836.585 217.474 836.322 196.918C836.216 189.67 833.163 187.246 826.713 190.171C819.447 193.465 812.524 197.708 805.943 202.267C795.807 209.225 789.595 219.767 782.698 229.597C776.116 238.952 767.271 243.802 755.872 244.197C748.922 244.434 741.973 244.803 735.023 245.146C732.706 245.198 730.39 245.383 728.073 245.541ZM181.854 41.2704C176.141 29.1212 158.345 19.2384 146.131 21.8738C142.392 22.6908 138.075 25.5634 136.022 28.7786C128.94 39.8473 124.07 56.872 138.602 70.7606C141.84 73.8704 146.631 75.7415 151.053 76.9802C152.291 77.3228 154.713 73.3433 156.608 71.3668C157.055 70.9187 157.424 70.3653 157.951 70.049C162.742 67.0447 162.873 63.3024 160.873 58.2688C158.056 51.2322 160.057 47.7799 167.428 45.408C172.087 43.9058 176.799 42.7199 181.854 41.2704ZM1091.41 217.5C1097.12 220.636 1108 222.059 1119.61 221.137C1133.53 220.03 1135.95 216.472 1130.53 203.243C1126.95 194.493 1122.79 185.875 1118.03 177.705C1100.7 148.031 1090.2 116.406 1089.25 81.8557C1089.2 80.1163 1088.7 78.4033 1088.25 75.6361C1087.38 77.3228 1087.04 77.8235 1086.83 78.4033C1086.41 79.5892 1086.04 80.8015 1085.73 82.0402C1081.62 97.9844 1083.04 113.744 1087.12 129.451C1091.46 146.133 1099.26 161.34 1106.65 176.783C1109.5 182.739 1111.97 189.011 1113.45 195.442C1115.42 204.033 1112.5 209.436 1104.55 213.231C1100.44 215.102 1095.89 216.051 1091.41 217.5ZM975.871 54.5265C975.608 56.7666 975.16 58.7432 975.213 60.6934C975.503 68.4415 976.003 76.1896 976.371 83.9113C976.792 92.7663 974.028 100.409 967.5 106.576C966.447 107.577 965.578 108.79 964.156 110.45C975.029 111.899 978.425 118.778 978.635 127.712C978.767 134.169 977.898 140.678 978.03 147.135C978.082 149.322 979.214 152.722 980.82 153.407C992.877 158.704 994.562 158.177 996.615 146.476C996.878 144.921 996.931 143.34 997.089 141.759C1000.3 110.424 989.665 82.3564 975.871 54.5265ZM59.7053 264.358C60.416 261.353 61.3374 258.692 61.6796 255.951C62.7853 246.99 63.7593 238.004 64.6544 229.017C66.6024 208.988 68.1819 188.932 70.4986 168.93C71.4726 160.364 73.8945 151.984 75.6319 143.682C51.992 160.338 40.2773 245.383 59.7053 264.358ZM768.482 115.141C765.771 109.554 761.953 107.314 757.478 107.156C746.895 106.76 736.313 106.866 725.73 106.892C724.861 106.892 723.677 107.656 723.203 108.421C721.36 111.478 722.518 121.914 725.309 124.233C729.205 127.475 730.153 131.77 731.021 136.356C732.101 141.917 732.864 147.688 734.918 152.906C737.892 160.496 744.631 163.87 751.581 162.236C751.318 157.255 750.976 152.247 750.792 147.214C750.476 138.543 750.528 138.543 758.873 136.751C759.084 136.699 759.189 136.277 759.584 135.671C758.715 134.379 757.662 133.035 756.794 131.559C754.635 127.923 752.003 124.444 750.634 120.517C749.317 116.748 750.739 112.901 754.24 110.529C757.478 108.342 760.611 109.686 763.507 111.583C764.823 112.453 766.139 113.454 768.482 115.141ZM586.497 135.776C586.233 136.198 585.97 136.619 585.733 137.041C585.944 140.836 586.681 144.657 586.26 148.373C585.128 158.283 583.338 168.113 582.153 178.022C580.863 188.853 579.836 199.737 579.02 210.622C578.889 212.335 580.468 214.206 581.258 215.998C583.048 215.181 585.417 214.812 586.497 213.415C589.129 210.095 591.709 206.537 593.315 202.689C599.685 187.325 598.817 171.328 596.395 155.384C595.684 150.772 593.947 146.212 591.972 141.943C590.867 139.518 588.366 137.779 586.497 135.776ZM552.063 50.468C551.695 39.0039 542.349 28.4887 531.319 27.25C522.316 26.2486 513.655 27.9352 505.6 32.0465C498.492 35.657 495.043 45.0127 497.781 52.8662C515.208 39.6364 533.399 43.7213 552.063 50.468ZM790.937 391.121C766.35 391.701 743.131 392.228 719.912 392.755C734.891 398.5 750.186 403.797 765.692 408.33C768.482 409.147 772.826 407.671 775.3 405.747C780.75 401.583 785.435 396.418 790.937 391.121ZM585.812 346.688C602.186 364.819 661.813 387.036 682.452 383.241C649.914 370.934 617.876 358.811 585.812 346.688ZM754.556 141.89C754.925 148.479 755.293 155.199 755.688 162.473C762.401 160.892 767.64 158.256 770.904 152.432C777.169 141.258 773.168 123.943 762.164 115.8C760.611 114.667 758.242 114.667 756.241 114.139C755.767 116.485 754.424 119.068 755.004 121.097C755.793 123.838 757.926 126.262 759.716 128.661C766.639 137.911 766.113 139.518 754.556 141.89ZM780.249 113.191C786.515 104.151 783.751 92.7399 774.51 87.5218C757.926 78.1398 731.758 81.9347 718.57 95.6916C717.332 96.9829 716.516 98.6432 715.516 100.145C715.753 100.699 716.016 101.279 716.253 101.832C718.333 101.41 721.044 101.648 722.36 100.409C728.626 94.4793 736.102 91.2641 744.395 90.1836C759.11 88.2861 776.774 92.0811 780.249 113.191ZM553.511 55.4225C550.694 55.2908 548.641 55.3171 546.64 55.0536C541.086 54.3684 539.717 55.3171 539.928 61.115C540.112 65.9905 540.665 70.9187 541.507 75.7415C543.139 84.8337 544.245 87.2319 533.478 88.0489C533.241 88.0752 533.004 88.4442 533.241 88.2334C533.241 95.1381 533.241 101.648 533.241 109.686C536.663 106.76 540.322 104.836 542.244 101.779C551.168 87.6536 553.511 71.8148 553.511 55.4225ZM774.142 115.536C776.116 106.47 770.878 98.8277 762.506 95.8233C750.634 91.554 733.101 94.7955 727.862 102.386C735.681 102.386 743.368 102.386 751.055 102.386C760.084 102.386 767.929 104.757 772.852 113.059C773.326 113.85 773.721 114.693 774.142 115.536ZM94.7966 286.073C101.536 299.145 122.728 304.917 133.152 296.352C121.99 286.785 108.907 285.968 94.7966 286.073ZM466.349 211.623C470.798 209.12 471.588 202.109 468.429 195.099C465.138 187.773 457.004 184.004 450.001 186.56C445.236 188.3 442.577 194.229 444.078 199.79C459.715 197.392 459.715 197.392 466.349 211.623ZM640.805 233.866C641.042 234.367 641.253 234.867 641.49 235.368C646.676 232.944 652.309 231.125 656.969 227.936C667.815 220.557 678.319 212.625 688.77 204.666C699.221 196.68 709.514 188.484 721.887 183.53C724.782 182.37 727.678 181.211 730.574 180.051C723.861 177.178 717.675 178.443 712.199 182.212C706.592 186.033 701.3 190.355 696.167 194.809C681.372 207.696 667.288 221.506 649.177 229.939C646.386 231.231 643.596 232.548 640.805 233.866ZM411.882 96.9039C411.593 96.6667 411.303 96.4295 410.987 96.1923C410.382 93.4251 410.303 90.3944 409.013 87.9962C407.881 85.8879 405.275 82.9626 403.616 83.1207C401.431 83.3315 398.535 85.8879 397.667 88.1016C395.271 94.2157 396.193 100.593 398.693 106.576C400.141 110.028 403.564 110.951 405.907 108.078C408.513 104.863 409.934 100.673 411.882 96.9039ZM399.694 382.846C396.587 369.352 392.718 356.333 382.556 346.345C383.372 360.866 387.611 373.754 399.694 382.846ZM505.81 96.2977C506.337 101.437 506.574 105.522 507.179 109.554C508.469 118.145 512.497 119.937 519.973 115.299C521.658 114.245 523.079 112.769 524.685 111.451C518.525 106.497 512.681 101.806 505.81 96.2977ZM139.76 89.1294C139.023 85.2817 138.681 82.2773 137.812 79.4575C137.391 78.0607 135.443 75.7679 135.048 75.9524C133.205 76.7166 130.335 78.1134 130.23 79.4575C129.941 82.8835 130.362 86.6521 131.599 89.841C132.468 92.1074 135.127 93.6623 136.996 95.5334C137.996 93.2143 138.996 90.8688 139.76 89.1294ZM534.031 326.474C536.663 330.744 540.428 333.3 545.324 334.064C547.167 334.354 549.484 334.196 548.72 331.192C547.299 325.499 539.138 322.811 534.031 326.474ZM497.413 67.8617C493.016 73.0534 495.175 79.6946 501.625 83.147C500.203 77.9816 498.939 73.4487 497.413 67.8617ZM802.994 176.072C802.731 176.73 802.441 177.389 802.178 178.048C805.469 179.392 808.759 180.763 812.05 182.107C812.313 181.5 812.55 180.894 812.813 180.288C809.549 178.865 806.258 177.468 802.994 176.072Z" fill="#4F5955"/>
</g>
<defs>
<clipPath id="clip0_33_805">
<rect width="1192" height="489" fill="white"/>
</clipPath>
</defs>
</svg>
