<svg width="532" height="356" viewBox="0 0 532 356" fill="none" xmlns="http://www.w3.org/2000/svg">
<g clip-path="url(#clip0_33_785)">
<path d="M532 298.448C518.683 295.908 505.315 293.76 491.709 295.09C480.592 296.181 469.509 297.63 458.409 298.874C455.289 299.215 452.134 299.505 448.997 299.505C441.682 299.505 438.033 296.812 438.187 289.464C438.408 278.503 439.909 267.575 440.847 256.614C441.563 248.09 442.228 239.567 442.927 231.043C442.432 230.992 441.938 230.941 441.443 230.889C440.199 239.209 438.937 247.528 437.726 255.847C436.737 262.649 435.68 269.451 434.947 276.27C434.419 281.128 432.117 284.401 427.325 285.151C421.426 286.055 415.458 286.72 409.507 286.907C384.494 287.725 359.464 288.117 334.467 289.123C322.378 289.601 310.306 291.067 298.234 292.089C297.757 292.124 297.297 292.158 296.819 292.175C279.189 292.993 274.483 289.089 271.993 271.582C271.789 270.098 271.414 268.632 270.953 266.314C267.765 276.815 264.798 286.396 261.933 296.01C257.858 309.699 249.026 318.598 235.044 321.701C217.09 325.69 198.948 328.912 181.011 333.003C153.712 339.225 126.533 345.908 99.2864 352.403C97.7518 352.761 96.2684 353.272 94.7338 353.665C85.1172 356.153 81.7241 354.892 75.8586 346.692C66.6342 333.787 57.4097 320.865 48.1341 307.995C47.1452 306.614 45.8664 305.455 43.8885 304.602C44.9968 306.972 45.8834 309.495 47.2646 311.694C53.5392 321.667 60.1208 331.469 66.225 341.544C68.2199 344.851 71.0503 349.539 70.0443 352.369C68.3904 357.057 62.4738 355.949 58.2623 355.608C38.8244 354.04 19.4037 352.113 -0.0341797 350.306C-0.0341797 349.369 -0.0341797 348.414 -0.0341797 347.476C22.4216 349.658 44.7581 353.528 68.8849 352.454C67.2651 349.147 66.4466 347.05 65.2701 345.175C58.842 335.1 52.2434 325.127 45.9005 315.001C43.9056 311.83 42.2687 308.37 40.9558 304.858C40.3931 303.358 41.024 301.397 41.1263 299.641C42.7632 300.255 44.9457 300.392 45.9517 301.551C51.783 308.353 57.6144 315.172 62.9171 322.383C68.6973 330.224 73.9149 338.492 79.354 346.573C82.5425 351.312 86.72 353.017 92.3808 351.312C136.167 338.117 181.062 329.781 225.922 321.343C245.309 317.695 257.364 307.551 261.626 288.152C263.519 279.56 266.247 271.172 268.378 262.632C270.459 254.261 265.565 245.67 257.006 244.868C250.68 244.289 243.706 245.175 237.738 247.357C224.899 252.062 212.674 258.353 199.954 263.382C178.197 271.991 155.827 272.928 133.183 267.183C130.148 266.416 127.164 265.291 124.317 263.978C115.314 259.836 113.234 255.455 115.655 245.277C108.136 246.624 100.872 247.732 93.7278 249.318C89.9426 250.153 88.0499 253.358 87.7601 257.023C87.061 265.785 86.5835 274.565 86.1914 283.361C85.731 293.573 85.5264 303.784 85.066 313.995C84.9296 316.791 84.4522 319.638 83.7361 322.349C82.6448 326.474 79.7462 328.622 75.4324 328.707C71.0333 328.792 68.237 326.542 67.1628 322.417C66.3614 319.382 65.6794 316.263 65.4918 313.16C64.9632 304.04 60.6153 297.101 53.8291 291.356C49.1401 287.401 44.1954 283.668 40.035 279.202C36.983 275.929 35.0221 271.65 32.4134 267.558C30.3673 268.99 27.2981 271.377 23.9903 273.389C16.3686 278.042 10.0599 275.741 7.60455 267.149C4.75708 257.177 6.06998 247.05 8.21838 237.248C13.5382 212.99 19.3525 188.851 25.2009 164.712C27.8949 153.563 30.7083 142.431 34.2719 131.537C37.4263 121.872 42.5415 112.888 50.8111 106.751C55.824 103.034 61.9793 100.324 68.0324 98.7043C74.5116 96.9825 77.8536 100.273 77.9218 107.057C78.007 114.286 77.2739 121.531 77.4955 128.742C78.0923 146.948 86.1573 160.654 103.038 168.411C105.936 169.741 109.38 170.116 112.637 170.405C115.655 170.678 117.531 168.837 117.087 165.734C116.064 158.609 116.559 151.244 110.472 145.312C107.488 142.397 105.749 137.351 105.118 133.038C103.038 118.616 94.8873 109.12 82.4914 102.489C79.0301 100.631 75.654 98.5679 72.4826 96.2665C68.8167 93.6241 68.595 90.2658 72.4996 88.4758C84.5545 82.9355 88.2034 72.3831 90.0107 60.6886C93.6767 37.0781 106.993 20.0477 126.67 7.73955C143.192 -2.59115 160.72 -2.43772 177.362 7.07471C195.521 17.4565 195.026 40.8285 176.765 50.8694C169.501 54.8585 161.641 57.9611 153.729 60.5011C136.406 66.0927 126.738 77.9235 122.765 95.2948C119.116 111.285 116.15 127.31 116.883 143.829C117.036 147.068 118.025 149.216 121.162 150.255C123.839 151.142 126.448 152.386 129.176 153C140.021 155.421 145.767 151.483 146.278 140.402C146.653 132.424 145.801 124.395 145.477 116.399C145.409 114.678 145.17 112.956 145.136 111.217C145.016 105.557 146.483 104.688 151.496 107.177C155.724 109.274 159.953 111.422 164.352 113.092C173.321 116.485 176.714 114.916 181.096 105.881C180.823 105.881 180.482 105.779 180.363 105.898C170.763 115.189 169.28 115.394 158.384 107.569C152.519 103.358 146.636 99.0793 141.197 94.3231C135.519 89.3623 135.042 84.6572 138.622 78.8441C142.322 72.8434 148.699 69.9624 154.804 73.0309C163.039 77.1564 171.462 78.094 180.414 77.8042C183.534 77.7019 186.688 79.0487 190.371 79.8499C189.485 72.0081 194.225 66.0245 197.976 59.5124C201.608 53.1878 201.42 46.6928 196.68 40.5728C194.89 38.2543 193.764 35.3904 192.639 32.6628C192.349 31.9809 193.219 30.8046 193.56 29.867C194.378 30.1909 195.231 30.4466 195.981 30.8728C196.356 31.0774 196.629 31.5547 196.868 31.9468C209.229 52.54 216.63 75.213 198.556 101.023C196.851 103.443 195.265 106.069 194.276 108.83C192.997 112.41 193.134 115.24 197.584 117.593C200.772 119.297 203.535 123.27 204.779 126.832C206.331 131.316 206.723 136.413 206.621 141.22C206.058 164.575 209.332 187.299 216.868 209.427C217.567 211.507 218.011 213.672 218.539 215.82C219.733 220.61 219.341 224.906 214.873 228.69C221.557 227.906 228.241 227.071 234.942 226.338C244.013 225.349 253.101 224.377 262.189 223.576C265.309 223.303 268.498 223.303 271.618 223.627C276.785 224.173 278.609 226.406 277.756 231.588C276.563 238.868 274.534 246.045 273.562 253.341C272.198 263.62 274.5 273.61 277.927 283.225C279.444 287.487 283.69 289.089 287.987 289.021C296.785 288.885 305.583 288.339 314.381 287.964C342.993 286.72 371.621 285.526 400.232 284.231C408.859 283.839 417.504 283.293 426.115 282.475C430.36 282.083 432.372 279.355 431.793 274.377C424.103 280.634 415.424 279.304 407.154 278.213C382.55 274.991 358.151 276.781 333.717 279.952C324.373 281.162 314.91 281.554 305.481 282.117C303.009 282.27 300.451 281.844 297.979 281.401C289.556 279.901 287.049 276.662 287.134 268.24C287.373 244.357 287.509 220.474 287.697 196.607C287.714 195.039 287.867 193.471 287.936 191.902C288.123 188.032 290.186 186.771 293.903 187.248C333.7 192.379 373.718 191.766 413.702 191.885C414.913 191.885 416.106 191.749 418.152 191.629C416.72 189.618 415.68 188.186 415.458 187.862C407.905 187.862 401.272 188.697 394.929 187.709C370.018 183.873 345.09 183.873 320.008 185.22C312.625 185.612 305.038 184.112 297.706 182.662C294.398 182.015 291.465 179.355 287.936 177.378C287.356 182.202 286.776 186.839 286.214 191.493C284.526 205.642 276.29 213.433 261.967 214.388C256.153 214.78 252.811 212.598 251.089 206.819C248.207 197.204 249.009 187.436 250.884 177.838C255.863 152.301 265.531 128.401 278.012 105.728C288.106 87.4019 312.011 84.4697 326.982 98.9941C327.306 99.318 327.698 99.5737 328.926 100.528C323.589 89.0896 330.784 83.2934 337.587 77.361C344.783 71.0875 352.746 70.9512 360.93 74.9061C369.694 79.1509 378.066 83.9412 380.419 96.1642C382.073 91.033 383.812 87.2655 384.409 83.3446C385.398 76.8325 386.012 70.2181 386.114 63.6208C386.267 52.7957 380.436 45.346 369.643 45.0562C358.27 44.7664 346.846 46.6757 335.456 47.869C333.802 48.0395 332.268 49.5738 332.131 50.8353C332.626 57.1598 333.308 63.4674 333.495 69.7919C333.529 71.241 331.841 72.7241 330.955 74.1902C329.966 72.9116 328.363 71.7524 328.124 70.3375C327.289 65.4108 326.283 60.3477 326.59 55.421C326.794 51.9093 326.01 49.8977 323.282 48.0054C316.803 43.4879 314.194 36.9246 314.245 29.2533C314.279 24.4119 316.206 22.8776 320.997 22.8947C335.303 22.9628 349.608 22.8435 363.914 23.0651C370.495 23.1674 377.179 23.3038 383.641 24.446C392.457 25.9973 396.566 31.4865 396.225 40.5387C396.003 46.4712 394.963 52.3695 394.435 56.9553C396.856 58.8987 399.703 60.0238 400.232 61.8479C401.63 66.6211 401.34 71.7865 397.453 75.4346C396.191 76.6109 393.156 75.9119 389.967 76.1336C386.37 84.572 385.96 94.6129 387.631 104.824C388.177 108.2 390.615 109.956 393.906 110.279C396.566 110.535 399.26 110.552 401.92 110.45C419.499 109.887 431.162 119.485 440.216 133.072C442.023 135.799 442.688 139.516 443.114 142.891C445.007 157.688 446.439 172.536 448.4 187.333C449.594 196.352 449.884 205.08 446.252 213.74C445.007 216.723 445.263 220.371 445.058 223.73C444.257 237.197 443.66 250.681 442.756 264.149C442.279 271.36 441.017 278.52 440.693 285.731C440.284 294.766 442.807 297.255 451.776 296.471C463.371 295.465 474.931 293.879 486.491 292.55C501.837 290.811 516.961 292.345 531.983 295.516C532 296.556 532 297.511 532 298.448ZM118.247 152.966C118.809 156.597 119.594 160.262 119.901 163.979C120.497 171.19 117.275 174.241 110.062 173.321C107.437 172.98 104.743 172.383 102.321 171.326C87.4361 164.916 78.2457 153.494 75.7222 137.726C74.307 128.844 75.1255 119.57 75.2619 110.484C75.3812 101.688 72.7725 99.0623 64.5881 102.386C58.8079 104.739 53.1641 108.472 48.7139 112.854C40.9387 120.508 36.7102 130.532 34.0502 140.999C27.8267 165.53 21.5862 190.061 15.9765 214.729C13.0267 227.719 11.0999 240.964 9.29257 254.176C8.71285 258.387 9.49718 263.024 10.6566 267.166C12.2765 272.962 16.4368 274.445 21.6203 271.445C24.9963 269.485 28.0143 266.876 31.2198 264.626C34.8175 262.103 38.3129 259.376 42.1323 257.245C47.5203 254.244 53.0618 254.517 58.177 258.131C63.0706 261.575 67.93 265.052 72.636 268.718C74.4775 270.15 76.1144 271.957 77.4444 273.866C78.1946 274.957 78.1605 276.593 78.4674 277.991C77.1545 277.582 75.5006 277.514 74.5628 276.679C71.1697 273.644 68.4416 269.621 64.6563 267.303C59.6775 264.268 54.119 261.813 48.4752 260.415C44.0249 259.324 39.7281 261.677 37.5627 266.143C35.5337 270.32 38.0913 273.508 40.8535 276.133C45.5254 280.565 50.4019 284.793 55.3466 288.936C62.7978 295.175 67.6061 302.727 68.2881 312.649C68.4927 315.615 69.1236 318.564 69.8227 321.462C70.5218 324.394 72.602 326.627 75.5517 325.741C77.7172 325.093 80.0531 323.03 81.025 320.985C82.1674 318.547 82.1504 315.478 82.2527 312.666C82.8324 296.948 83.037 281.23 83.8384 265.53C84.6739 249.181 87.078 246.88 103.14 244.561C111.478 243.368 120.037 243.01 126.653 236.481C128.324 234.827 131.052 233.805 133.439 233.361C144.215 231.316 155.025 229.219 165.904 227.906C171.564 227.224 175.333 225.11 177.481 219.877C181.829 209.273 185.205 198.67 181.42 187.01C180.175 183.191 180.124 178.963 179.766 174.906C179.629 173.389 179.885 171.718 180.431 170.303C181.607 167.337 184.472 166.945 186.177 169.621C187.217 171.275 188.052 173.406 188.052 175.332C188.07 181.742 187.643 188.169 187.422 194.579C187.319 197.374 187.098 200.187 187.285 202.983C187.592 207.841 188.411 212.666 188.598 217.524C189.076 230.054 189.621 230.583 202.034 228.588C216.63 226.236 218.539 223.866 214.004 210.058C206.621 187.538 203.176 164.558 203.722 140.896C203.824 136.243 202.955 131.503 201.949 126.918C201.216 123.593 199.255 120.781 195.026 119.826C195.691 122.86 196.339 125.417 196.817 128.009C199.255 140.896 192.298 151.21 179.51 153.784C174.173 154.858 170.098 153.341 167.523 149.352C161.504 140.044 163.926 126.713 173.389 121.036C178.504 117.968 184.489 116.382 190.695 113.876C189.928 108.387 193.423 103.546 196.782 98.5338C199.05 95.1584 201.335 91.6467 202.784 87.8792C207.2 76.4234 207.439 64.7459 204.234 53.273C201.574 58.1486 198.811 62.8537 196.441 67.7463C195.111 70.5079 193.747 73.5765 193.611 76.5597C193.099 88.4929 189.706 99.2839 182.988 109.222C177.038 118.019 173.099 119.655 163.175 115.786C158.248 113.859 153.457 111.558 147.983 109.137C148.273 113.552 148.733 117.439 148.751 121.326C148.785 129.321 149.364 137.402 148.307 145.261C147.182 153.682 141.061 157.586 132.569 156.41C127.829 155.711 123.209 154.176 118.247 152.966ZM383.283 97.5962C381.578 101.176 380.709 104.364 378.799 106.699C375.986 110.126 372.882 113.825 369.08 115.82C363.164 118.922 356.599 120.798 350.222 122.98C343.248 125.366 337.451 123.099 333.802 116.672C332.336 114.081 331.21 111.285 329.812 108.643C325.26 100.051 319.292 92.84 308.669 92.9252C297.126 93.0275 286.435 95.5846 280.382 107.177C268.668 129.56 258.694 152.659 253.988 177.548C252.351 186.191 253.152 195.329 253.374 204.227C253.459 207.739 255.369 210.927 259.546 211.558C269.043 213.007 281.098 204.926 282.582 195.55C284.219 185.151 286.64 174.906 282.531 164.132C279.683 156.648 279.802 148.107 284.986 141.101C286.435 139.141 290.186 137.351 292.403 137.811C295.95 138.561 294.807 142.328 294.244 145.039C292.659 152.727 291.073 160.433 289.197 168.053C288.26 171.854 289.538 174.309 292.42 176.594C297.603 180.685 303.605 182.492 309.999 182.509C318.815 182.543 327.63 182.168 336.428 181.708C357.912 180.617 379.191 182.748 400.453 185.475C404.375 185.987 408.501 185.032 413.19 184.708C410.036 177.327 408.928 171.19 411.98 165.121C412.696 163.689 414.554 162.155 416.021 162.018C417.01 161.933 419.124 164.183 419.175 165.428C419.329 170.508 419.67 175.826 418.34 180.617C417.419 183.924 417.3 185.902 419.499 188.459C421.494 190.76 423.421 192.277 426.678 191.953C428.843 191.732 431.077 192.073 433.259 192.294C437.539 192.703 439.875 195.175 438.63 199.301C436.874 205.114 439.943 209.001 442.773 213.365C446.814 205.659 447.155 199.795 445.57 187.913C443.575 173.133 442.142 158.285 440.318 143.471C439.96 140.556 439.534 137.299 437.982 134.947C429.525 122.178 418.698 113.075 402.193 113.348C387.222 113.57 386.523 112.905 383.283 97.5962ZM291.141 190.163C290.971 192.499 290.63 194.63 290.664 196.778C291.09 220.661 292.727 244.527 290.152 268.411C289.419 275.247 291.891 278.247 298.899 278.571C307.97 278.98 317.144 278.827 326.18 277.957C347.323 275.929 368.33 272.246 389.694 273.9C398.8 274.599 407.888 275.622 417.01 275.946C428.741 276.355 432.731 271.922 431.52 260.296C429.764 243.3 429.747 226.406 433.702 209.648C433.975 208.455 434.282 207.074 433.958 205.966C432.935 202.54 421.221 194.783 417.487 194.715C384.272 194.067 351.057 193.522 317.86 192.618C309.096 192.397 300.366 191.05 291.141 190.163ZM113.012 144.374C113.319 144.255 113.626 144.135 113.933 144.016C113.984 143.454 114.069 142.891 114.052 142.311C113.438 125.98 116.388 110.109 120.071 94.289C124.232 76.3552 134.223 63.7401 152.212 58.1315C154.463 57.4326 156.747 56.7337 158.862 55.7279C166.074 52.2843 173.525 49.2328 180.277 45.0221C186.74 40.999 188.564 34.2652 187.439 26.8155C186.211 18.6328 181.914 12.4446 174.634 8.64306C162.92 2.50601 150.08 0.835373 138.043 5.60863C117.241 13.8766 102.373 28.8101 95.5011 50.6307C93.472 57.0576 92.3638 63.7572 90.7269 70.3204C88.6126 78.7759 84.2817 85.6119 76.1315 89.5498C74.9038 90.1294 73.8808 91.1011 71.8347 92.5502C76.2679 95.3289 79.9338 97.9542 83.8725 100.051C97.0357 107.057 105.766 117.149 107.829 132.373C108.204 135.117 109.414 137.794 110.472 140.402C111.034 141.8 112.126 143.044 113.012 144.374ZM270.8 252.13C271.908 246.965 272.761 242.993 273.579 239.021C276.273 225.98 275.932 224.974 262.769 226.559C216.561 232.168 170.422 238.373 124.249 244.203C120.515 244.681 118.656 246.454 117.599 249.727C116.456 253.222 117.718 256.103 120.361 258.08C122.97 260.023 125.92 261.694 128.972 262.819C141.282 267.32 154.07 268.343 167.08 267.78C183.773 267.047 198.982 261.251 214.021 254.602C223.501 250.409 232.93 245.942 242.751 242.771C253.34 239.345 263.417 240.453 270.8 252.13ZM350.393 117.951C353.581 116.86 356.974 116.468 359.344 114.712C364.511 110.893 369.37 106.614 373.94 102.097C377.964 98.1246 378.049 94.1526 375.15 89.26C365.602 73.1332 345.107 71.3092 333.222 85.5266C328.977 90.6068 328.397 94.2378 332.234 99.5907C336.24 105.199 340.827 110.416 345.414 115.564C346.488 116.809 348.585 117.149 350.393 117.951ZM327.834 47.8861C331.91 46.4712 335.354 44.7494 338.969 44.1698C346.079 42.9935 353.291 42.0047 360.487 41.732C379.976 41.016 386.455 46.4541 389.882 65.4278C391.195 57.4326 392.695 49.4203 393.258 41.3569C393.889 32.4582 389.848 27.9748 380.913 26.7815C376.719 26.2189 372.456 25.9802 368.228 25.9461C352.524 25.8438 336.82 25.9461 321.133 25.8438C318.252 25.8268 317.178 26.9519 317.144 29.6795C317.007 38.0839 321.219 43.897 327.834 47.8861ZM139.219 86.6688C140.276 88.1349 141.555 90.9818 143.738 92.7206C150.456 98.1246 157.515 103.12 164.42 108.285C168.222 111.132 171.974 110.859 174.838 107.262C179.203 101.773 183.449 96.1131 187.132 90.1465C190.61 84.5379 188.479 80.7704 181.676 80.7704C171.854 80.7704 162.476 80.1567 153.354 75.6221C147.267 72.6218 139.356 78.6907 139.219 86.6688ZM194.617 133.583C194.617 133.106 194.651 132.646 194.617 132.168C193.696 117.729 187.899 114.865 175.588 122.741C167.148 128.128 164.505 139.158 170.013 147.426C171.155 149.13 173.611 150.699 175.622 150.954C184.779 152.131 194.753 142.806 194.617 133.583ZM126.636 240.999C147.489 238.049 168.342 235.1 189.587 232.083C183.159 224.991 187.507 216.45 184.745 208.677C183.108 213.007 181.624 216.911 180.141 220.814C177.703 227.292 173.031 230.446 166.091 230.583C162.016 230.668 157.924 231.026 153.866 231.537C144.215 232.765 134.718 234.521 126.636 240.999ZM436.925 209.7C432.696 225.298 432.765 240.18 434.419 255.165C435.101 253.75 435.425 252.301 435.663 250.818C437.164 241.698 438.255 232.475 440.301 223.474C441.478 218.309 440.079 214.422 436.925 209.7ZM292.25 140.146C284.099 142.618 281.508 155.216 286.401 166.45C288.396 157.398 290.272 149.028 292.25 140.146ZM346.334 120.849C341.594 115.666 336.94 110.569 331.995 105.165C335.695 116.655 339.992 122.008 346.334 120.849ZM415.901 165.036C412.184 169.877 412.065 175.4 415.475 180.532C417.675 175.349 418.272 170.457 415.901 165.036ZM398.118 62.1718C392.082 66.0245 391.434 70.4056 396.242 74.7527C396.958 69.9624 397.538 66.0756 398.118 62.1718ZM184.847 171.462C184.029 171.548 183.193 171.616 182.375 171.701C182.971 177.02 183.568 182.356 184.165 187.674C184.762 187.623 185.358 187.555 185.955 187.504C185.58 182.168 185.222 176.815 184.847 171.462ZM435.066 202.267C436.84 195.278 435.101 193.811 427.036 195.516C429.849 197.869 432.372 200 435.066 202.267Z" fill="#4F5955"/>
</g>
<defs>
<clipPath id="clip0_33_785">
<rect width="532" height="356" fill="white"/>
</clipPath>
</defs>
</svg>
