<svg xmlns="http://www.w3.org/2000/svg" fill-rule="evenodd" stroke-linejoin="round" stroke-miterlimit="2" clip-rule="evenodd" viewBox="0 0 96 96" id="select"><rect width="96" height="96" fill="none"></rect><path d="M24.51 50.371c.274-.086.71-.208 1.145-.259 3.315-.392 6.014 1.198 8.11 3.241.593.578 1.543.566 2.121-.027.578-.592.566-1.543-.027-2.121-2.715-2.647-6.262-4.581-10.556-4.072-2.319.274-3.342 1.143-3.707 1.951-.405.898-.21 2.14.775 3.513.889 1.24 2.45 2.765 3.901 4.448 1.251 1.45 2.445 3.014 2.813 4.639 1.221 5.393 1.331 10.4 8.011 18.413 3.172 3.804 3.777 9.248 3.86 12.479.021.827.71 1.482 1.538 1.461.828-.022 1.482-.711 1.461-1.538-.095-3.717-.905-9.946-4.554-14.323-6.214-7.453-6.254-12.139-7.39-17.154-.746-3.292-4.049-6.525-6.237-8.995-.454-.512-.849-.985-1.128-1.416-.046-.072-.094-.159-.136-.24zm43.178 42.098c-.067-4.002.145-11.284 2.562-14.912 4.747-7.122 4.362-16.269 4.362-16.269-.036-.827-.737-1.469-1.564-1.434-.827.036-1.469.737-1.433 1.564 0 0 .361 8.14-3.861 14.476-2.702 4.053-3.14 12.153-3.066 16.625.014.828.697 1.489 1.525 1.475.828-.014 1.489-.697 1.475-1.525zM49.862 61.626l0-38.134c0-3.105-2.521-5.626-5.626-5.626-3.106 0-5.627 2.521-5.627 5.626 0 0 0 38.134 0 38.134 0 .828.672 1.5 1.5 1.5.828 0 1.5-.672 1.5-1.5l0-38.134c0-1.449 1.177-2.626 2.627-2.626 1.449 0 2.626 1.177 2.626 2.626 0 0 0 38.134 0 38.134 0 .828.672 1.5 1.5 1.5.828 0 1.5-.672 1.5-1.5zM58.115 61.626l0-22.917c0-3.105-2.521-5.626-5.626-5.626-.828 0-1.5.672-1.5 1.5 0 .828.672 1.5 1.5 1.5 1.449 0 2.626 1.177 2.626 2.626 0 0 0 22.917 0 22.917 0 .828.672 1.5 1.5 1.5.828 0 1.5-.672 1.5-1.5zM66.368 61.626l0-17.123c0-3.105-2.521-5.626-5.627-5.626-.827 0-1.5.672-1.5 1.5 0 .828.673 1.5 1.5 1.5 1.45 0 2.627 1.177 2.627 2.626 0 0 0 17.123 0 17.123 0 .828.672 1.5 1.5 1.5.828 0 1.5-.672 1.5-1.5z"></path><path d="M74.566 61.633l.055-11.935c0-3.105-2.521-5.626-5.627-5.626-.828 0-1.5.672-1.5 1.5 0 .828.672 1.5 1.5 1.5 1.449 0 2.626 1.176 2.627 2.625 0 0-.055 11.922-.055 11.922-.004.828.665 1.503 1.493 1.507.828.004 1.503-.665 1.507-1.493zM42.736 3.463l0 6.545c0 .828.672 1.5 1.5 1.5.828 0 1.5-.672 1.5-1.5l0-6.545c0-.828-.672-1.5-1.5-1.5-.828 0-1.5.672-1.5 1.5zM25.604 23.594l6.545 0c.828 0 1.5-.672 1.5-1.5 0-.828-.672-1.5-1.5-1.5l-6.545 0c-.828 0-1.5.672-1.5 1.5 0 .828.672 1.5 1.5 1.5zM56.322 23.594l6.545 0c.828 0 1.5-.672 1.5-1.5 0-.828-.672-1.5-1.5-1.5l-6.545 0c-.828 0-1.5.672-1.5 1.5 0 .828.672 1.5 1.5 1.5zM30.001 9.98l4.628 4.628c.585.586 1.535.586 2.121 0 .585-.585.585-1.535 0-2.121l-4.628-4.628c-.586-.585-1.536-.585-2.121 0-.586.586-.586 1.536 0 2.121zM56.35 7.859l-4.628 4.628c-.586.586-.586 1.536 0 2.121.585.586 1.535.586 2.121 0l4.628-4.628c.585-.585.585-1.535 0-2.121-.586-.585-1.536-.585-2.121 0z"></path></svg>