<svg xmlns="http://www.w3.org/2000/svg" data-name="Layer 1" viewBox="0 0 100 100" id="seo-report"><path fill="#1d1d1b" d="M95.41,13A1.59,1.59,0,0,0,97,11.36V7a1.59,1.59,0,0,0-1.59-1.59H4.59A1.59,1.59,0,0,0,3,7v4.36A1.59,1.59,0,0,0,4.59,13H9.72V65.4H4.59A1.59,1.59,0,0,0,3,67v4.36a1.59,1.59,0,0,0,1.59,1.59H48.4v8a6.91,6.91,0,1,0,3.18.12V72.94H95.41A1.59,1.59,0,0,0,97,71.35V67a1.59,1.59,0,0,0-1.59-1.59H90.27V13ZM53.47,87.69A3.72,3.72,0,1,1,49.76,84,3.72,3.72,0,0,1,53.47,87.69ZM6.18,8.59H93.82V9.77H6.18ZM93.82,69.76H6.18V68.58H93.82ZM87.09,65.4H12.9V13H87.09Z"></path><path fill="#1d1d1b" d="M21.08,62.45,41.41,34.84,54.6,49a3.7,3.7,0,0,0,5.7-.33l18.37-25L79.81,39.6,83,39.37,81.42,17.66l-23.68,5.6.74,3.1,17.32-4.1L57.74,46.79a.54.54,0,0,1-.41.21.56.56,0,0,1-.41-.16l-15.8-17-22.6,30.7Z"></path></svg>