<svg width="774" height="504" viewBox="0 0 774 504" fill="none" xmlns="http://www.w3.org/2000/svg">
<g clip-path="url(#clip0_32_502)">
<path d="M314.125 255.388C314.125 256.893 313.779 258.274 313.089 259.532C312.398 260.765 311.337 261.764 309.907 262.529C308.476 263.294 306.7 263.676 304.579 263.676H300.657V273H294.33V247.026H304.579C306.651 247.026 308.402 247.384 309.833 248.099C311.263 248.814 312.336 249.801 313.052 251.059C313.767 252.317 314.125 253.76 314.125 255.388ZM304.098 258.644C305.306 258.644 306.207 258.36 306.799 257.793C307.391 257.226 307.687 256.424 307.687 255.388C307.687 254.352 307.391 253.55 306.799 252.983C306.207 252.416 305.306 252.132 304.098 252.132H300.657V258.644H304.098ZM326.446 273.296C324.424 273.296 322.598 272.864 320.97 272.001C319.367 271.138 318.097 269.904 317.159 268.301C316.247 266.698 315.79 264.823 315.79 262.677C315.79 260.556 316.259 258.693 317.196 257.09C318.134 255.462 319.416 254.216 321.044 253.353C322.672 252.49 324.498 252.058 326.52 252.058C328.543 252.058 330.368 252.49 331.996 253.353C333.624 254.216 334.907 255.462 335.844 257.09C336.782 258.693 337.25 260.556 337.25 262.677C337.25 264.798 336.769 266.673 335.807 268.301C334.87 269.904 333.575 271.138 331.922 272.001C330.294 272.864 328.469 273.296 326.446 273.296ZM326.446 267.82C327.655 267.82 328.679 267.376 329.517 266.488C330.381 265.6 330.812 264.33 330.812 262.677C330.812 261.024 330.393 259.754 329.554 258.866C328.74 257.978 327.729 257.534 326.52 257.534C325.287 257.534 324.263 257.978 323.449 258.866C322.635 259.729 322.228 261 322.228 262.677C322.228 264.33 322.623 265.6 323.412 266.488C324.226 267.376 325.238 267.82 326.446 267.82ZM346.564 245.62V273H340.237V245.62H346.564ZM353.961 250.208C352.851 250.208 351.939 249.887 351.223 249.246C350.533 248.58 350.187 247.766 350.187 246.804C350.187 245.817 350.533 245.003 351.223 244.362C351.939 243.696 352.851 243.363 353.961 243.363C355.047 243.363 355.935 243.696 356.625 244.362C357.341 245.003 357.698 245.817 357.698 246.804C357.698 247.766 357.341 248.58 356.625 249.246C355.935 249.887 355.047 250.208 353.961 250.208ZM357.106 252.354V273H350.779V252.354H357.106ZM372.828 267.635V273H369.609C367.315 273 365.527 272.445 364.244 271.335C362.962 270.2 362.32 268.363 362.32 265.822V257.608H359.804V252.354H362.32V247.322H368.647V252.354H372.791V257.608H368.647V265.896C368.647 266.513 368.795 266.957 369.091 267.228C369.387 267.499 369.881 267.635 370.571 267.635H372.828ZM379.165 250.208C378.055 250.208 377.142 249.887 376.427 249.246C375.736 248.58 375.391 247.766 375.391 246.804C375.391 245.817 375.736 245.003 376.427 244.362C377.142 243.696 378.055 243.363 379.165 243.363C380.25 243.363 381.138 243.696 381.829 244.362C382.544 245.003 382.902 245.817 382.902 246.804C382.902 247.766 382.544 248.58 381.829 249.246C381.138 249.887 380.25 250.208 379.165 250.208ZM382.31 252.354V273H375.983V252.354H382.31ZM385.267 262.714C385.267 260.667 385.686 258.841 386.525 257.238C387.388 255.635 388.535 254.389 389.966 253.501C391.421 252.588 393 252.132 394.702 252.132C396.009 252.132 397.181 252.366 398.217 252.835C399.253 253.279 400.091 253.908 400.733 254.722V252.354H407.06V282.842H400.733V270.41C400.017 271.273 399.142 271.964 398.106 272.482C397.094 273 395.935 273.259 394.628 273.259C392.95 273.259 391.396 272.815 389.966 271.927C388.535 271.039 387.388 269.793 386.525 268.19C385.686 266.587 385.267 264.761 385.267 262.714ZM400.733 262.677C400.733 261.567 400.511 260.642 400.067 259.902C399.647 259.137 399.092 258.57 398.402 258.2C397.711 257.805 396.983 257.608 396.219 257.608C395.479 257.608 394.763 257.805 394.073 258.2C393.382 258.57 392.815 259.137 392.371 259.902C391.927 260.667 391.705 261.604 391.705 262.714C391.705 263.824 391.927 264.761 392.371 265.526C392.815 266.266 393.382 266.833 394.073 267.228C394.763 267.598 395.479 267.783 396.219 267.783C396.959 267.783 397.674 267.598 398.365 267.228C399.08 266.833 399.647 266.254 400.067 265.489C400.511 264.724 400.733 263.787 400.733 262.677ZM431.654 252.354V273H425.327V270.188C424.686 271.101 423.81 271.841 422.7 272.408C421.615 272.951 420.406 273.222 419.074 273.222C417.495 273.222 416.102 272.877 414.893 272.186C413.684 271.471 412.747 270.447 412.081 269.115C411.415 267.783 411.082 266.217 411.082 264.416V252.354H417.372V263.565C417.372 264.946 417.73 266.019 418.445 266.784C419.16 267.549 420.122 267.931 421.331 267.931C422.564 267.931 423.539 267.549 424.254 266.784C424.969 266.019 425.327 264.946 425.327 263.565V252.354H431.654ZM455.291 262.344C455.291 262.936 455.254 263.553 455.18 264.194H440.861C440.959 265.477 441.366 266.463 442.082 267.154C442.822 267.82 443.722 268.153 444.783 268.153C446.361 268.153 447.459 267.487 448.076 266.155H454.81C454.464 267.512 453.835 268.733 452.923 269.818C452.035 270.903 450.912 271.754 449.556 272.371C448.199 272.988 446.682 273.296 445.005 273.296C442.982 273.296 441.181 272.864 439.603 272.001C438.024 271.138 436.791 269.904 435.903 268.301C435.015 266.698 434.571 264.823 434.571 262.677C434.571 260.531 435.002 258.656 435.866 257.053C436.754 255.45 437.987 254.216 439.566 253.353C441.144 252.49 442.957 252.058 445.005 252.058C447.003 252.058 448.779 252.477 450.333 253.316C451.887 254.155 453.095 255.351 453.959 256.905C454.847 258.459 455.291 260.272 455.291 262.344ZM448.816 260.679C448.816 259.594 448.446 258.73 447.706 258.089C446.966 257.448 446.041 257.127 444.931 257.127C443.87 257.127 442.97 257.435 442.23 258.052C441.514 258.669 441.07 259.544 440.898 260.679H448.816ZM347.509 298.095V303.349H355.982V308.233H347.509V313.931H357.092V319H341.182V293.026H357.092V298.095H347.509ZM370.227 319.259C368.328 319.259 366.626 318.951 365.121 318.334C363.616 317.717 362.408 316.805 361.495 315.596C360.607 314.387 360.138 312.932 360.089 311.23H366.823C366.922 312.192 367.255 312.932 367.822 313.45C368.389 313.943 369.129 314.19 370.042 314.19C370.979 314.19 371.719 313.98 372.262 313.561C372.805 313.117 373.076 312.513 373.076 311.748C373.076 311.107 372.854 310.576 372.41 310.157C371.991 309.738 371.46 309.392 370.819 309.121C370.202 308.85 369.314 308.541 368.155 308.196C366.478 307.678 365.109 307.16 364.048 306.642C362.987 306.124 362.075 305.359 361.31 304.348C360.545 303.337 360.163 302.017 360.163 300.389C360.163 297.972 361.039 296.085 362.79 294.728C364.541 293.347 366.823 292.656 369.635 292.656C372.496 292.656 374.803 293.347 376.554 294.728C378.305 296.085 379.243 297.984 379.366 300.426H372.521C372.472 299.587 372.163 298.934 371.596 298.465C371.029 297.972 370.301 297.725 369.413 297.725C368.648 297.725 368.032 297.935 367.563 298.354C367.094 298.749 366.86 299.328 366.86 300.093C366.86 300.932 367.255 301.585 368.044 302.054C368.833 302.523 370.067 303.028 371.744 303.571C373.421 304.138 374.778 304.681 375.814 305.199C376.875 305.717 377.787 306.469 378.552 307.456C379.317 308.443 379.699 309.713 379.699 311.267C379.699 312.747 379.317 314.091 378.552 315.3C377.812 316.509 376.727 317.471 375.296 318.186C373.865 318.901 372.176 319.259 370.227 319.259ZM400.465 301.24C399.996 300.377 399.318 299.723 398.43 299.279C397.566 298.81 396.543 298.576 395.359 298.576C393.311 298.576 391.671 299.254 390.438 300.611C389.204 301.943 388.588 303.731 388.588 305.976C388.588 308.369 389.229 310.243 390.512 311.6C391.819 312.932 393.607 313.598 395.877 313.598C397.431 313.598 398.738 313.203 399.799 312.414C400.884 311.625 401.673 310.49 402.167 309.01H394.138V304.348H407.902V310.231C407.433 311.81 406.631 313.277 405.497 314.634C404.387 315.991 402.968 317.088 401.242 317.927C399.515 318.766 397.566 319.185 395.396 319.185C392.83 319.185 390.536 318.63 388.514 317.52C386.516 316.385 384.949 314.819 383.815 312.821C382.705 310.823 382.15 308.541 382.15 305.976C382.15 303.411 382.705 301.129 383.815 299.131C384.949 297.108 386.516 295.542 388.514 294.432C390.512 293.297 392.793 292.73 395.359 292.73C398.467 292.73 401.081 293.482 403.203 294.987C405.349 296.492 406.767 298.576 407.458 301.24H400.465Z" fill="#4F5955"/>
<path d="M334.483 13.0088C334.104 13.6355 333.554 14.1483 332.814 14.5281C332.075 14.9079 331.183 15.0978 330.121 15.0978C329.079 15.0978 328.149 14.9269 327.334 14.5661C326.519 14.2052 325.855 13.6925 325.362 13.0278C324.869 12.3631 324.584 11.5845 324.509 10.6919H327.637C327.713 11.2996 327.941 11.7934 328.358 12.1922C328.775 12.591 329.306 12.7809 329.989 12.7809C330.596 12.7809 331.07 12.61 331.392 12.2871C331.714 11.9643 331.885 11.5465 331.885 11.0148C331.885 10.559 331.752 10.1791 331.487 9.87529C331.221 9.57144 330.88 9.34355 330.482 9.15364C330.084 8.98272 329.515 8.75483 328.813 8.52694C327.903 8.22309 327.144 7.91923 326.557 7.61538C325.969 7.31152 325.476 6.87473 325.058 6.305C324.641 5.73528 324.452 4.99463 324.452 4.06407C324.452 2.79168 324.907 1.80416 325.817 1.06351C326.727 0.322864 327.941 -0.0379639 329.439 -0.0379639C330.994 -0.0379639 332.245 0.341854 333.156 1.0825C334.085 1.84214 334.597 2.82966 334.729 4.08307H331.563C331.487 3.55132 331.259 3.11453 330.899 2.77269C330.539 2.43086 330.046 2.25994 329.42 2.25994C328.87 2.25994 328.434 2.41186 328.111 2.67774C327.77 2.9626 327.618 3.3804 327.618 3.93114C327.618 4.36793 327.751 4.72876 327.998 5.01362C328.244 5.29848 328.586 5.52638 328.984 5.71628C329.382 5.90619 329.913 6.0961 330.596 6.32399C331.544 6.66583 332.302 6.96969 332.89 7.27354C333.478 7.5584 333.99 7.99519 334.407 8.58391C334.824 9.17263 335.033 9.93227 335.033 10.8818C335.052 11.6794 334.862 12.3631 334.483 13.0088Z" fill="#4F5955"/>
<path d="M342.561 12.4201V14.9458H341.025C339.736 14.9458 338.731 14.623 338.048 13.9963C337.365 13.3696 337.024 12.3251 337.024 10.8628V5.86819H335.412V3.38038H337.024V0.531738H339.963V3.39937H342.542V5.88718H339.963V10.9388C339.963 11.4895 340.077 11.8883 340.304 12.1162C340.532 12.3441 340.911 12.458 341.423 12.458H342.561V12.4201Z" fill="#4F5955"/>
<path d="M348.496 3.85515C349.198 3.43735 349.994 3.22845 350.867 3.22845V6.38095H350.013C347.852 6.38095 346.771 7.38747 346.771 9.38151V14.9648H343.832V3.38038H346.771V5.60232C347.207 4.86167 347.776 4.27295 348.496 3.85515Z" fill="#4F5955"/>
<path d="M362.415 9.74238H353.939C353.976 10.7679 354.261 11.5275 354.773 12.0213C355.285 12.5151 355.93 12.7429 356.688 12.7429C357.371 12.7429 357.94 12.572 358.395 12.2492C358.85 11.9263 359.134 11.4706 359.267 10.9008H362.377C362.225 11.6984 361.903 12.4391 361.391 13.0658C360.898 13.7115 360.253 14.2052 359.457 14.5661C358.679 14.9269 357.807 15.1168 356.84 15.1168C355.721 15.1168 354.716 14.8699 353.844 14.3952C352.971 13.9204 352.289 13.2367 351.796 12.3441C351.303 11.4516 351.075 10.4071 351.075 9.19165C351.075 7.97623 351.322 6.93173 351.796 6.02016C352.289 5.12759 352.971 4.44392 353.844 3.96914C354.716 3.49437 355.721 3.26648 356.84 3.26648C357.978 3.26648 358.983 3.49437 359.836 3.96914C360.689 4.44392 361.353 5.08961 361.808 5.92521C362.282 6.76081 362.51 7.69136 362.51 8.75485C362.529 9.02073 362.491 9.36256 362.415 9.74238ZM358.831 6.28604C358.3 5.79227 357.636 5.54539 356.859 5.54539C356.062 5.54539 355.399 5.79227 354.849 6.28604C354.299 6.7798 354.014 7.48246 353.958 8.43201H359.57C359.608 7.50145 359.362 6.7798 358.831 6.28604Z" fill="#4F5955"/>
<path d="M371.138 4.31095C371.991 5.01361 372.522 5.96316 372.731 7.15959H369.981C369.867 6.60885 369.621 6.15307 369.223 5.83022C368.825 5.48839 368.332 5.33646 367.706 5.33646C367.213 5.33646 366.814 5.45041 366.53 5.69729C366.246 5.92518 366.113 6.24802 366.113 6.66582C366.113 6.98867 366.227 7.23555 366.454 7.44445C366.682 7.63436 366.947 7.78629 367.289 7.90023C367.63 8.01418 368.104 8.14712 368.73 8.29904C369.602 8.48895 370.323 8.69785 370.873 8.90675C371.422 9.11565 371.897 9.45749 372.295 9.93226C372.693 10.407 372.883 11.0337 372.883 11.8314C372.883 12.8189 372.503 13.6165 371.726 14.2242C370.948 14.8319 369.905 15.1358 368.616 15.1358C367.118 15.1358 365.904 14.7939 365.013 14.1293C364.122 13.4646 363.553 12.496 363.363 11.2426H366.189C366.265 11.8124 366.511 12.2681 366.947 12.591C367.383 12.9138 367.933 13.0848 368.635 13.0848C369.128 13.0848 369.526 12.9708 369.773 12.7239C370.038 12.477 370.171 12.1732 370.171 11.7744C370.171 11.4325 370.057 11.1667 369.83 10.9578C369.602 10.7489 369.318 10.5969 368.976 10.483C368.635 10.3691 368.161 10.2361 367.535 10.0842C366.663 9.89428 365.98 9.68538 365.43 9.49547C364.88 9.30556 364.444 8.96373 364.046 8.52693C363.667 8.09014 363.477 7.46344 363.477 6.68482C363.477 5.6783 363.856 4.86169 364.615 4.23499C365.373 3.60829 366.435 3.28544 367.782 3.28544C369.166 3.24746 370.285 3.5893 371.138 4.31095Z" fill="#4F5955"/>
<path d="M381.586 4.31095C382.44 5.01361 382.971 5.96316 383.179 7.15959H380.429C380.316 6.60885 380.069 6.15307 379.671 5.83022C379.273 5.48839 378.78 5.33646 378.154 5.33646C377.661 5.33646 377.263 5.45041 376.978 5.69729C376.694 5.92518 376.561 6.24802 376.561 6.66582C376.561 6.98867 376.675 7.23555 376.902 7.44445C377.13 7.63436 377.395 7.78629 377.737 7.90023C378.078 8.01418 378.552 8.14712 379.178 8.29904C380.05 8.48895 380.771 8.69785 381.321 8.90675C381.871 9.11565 382.345 9.45749 382.743 9.93226C383.141 10.407 383.331 11.0337 383.331 11.8314C383.331 12.8189 382.952 13.6165 382.174 14.2242C381.397 14.8319 380.354 15.1358 379.064 15.1358C377.566 15.1358 376.353 14.7939 375.461 14.1293C374.57 13.4646 374.001 12.496 373.812 11.2426H376.637C376.713 11.8124 376.959 12.2681 377.395 12.591C377.832 12.9138 378.382 13.0848 379.083 13.0848C379.576 13.0848 379.974 12.9708 380.221 12.7239C380.486 12.477 380.619 12.1732 380.619 11.7744C380.619 11.4325 380.505 11.1667 380.278 10.9578C380.05 10.7489 379.766 10.5969 379.424 10.483C379.083 10.3691 378.609 10.2361 377.983 10.0842C377.111 9.89428 376.428 9.68538 375.878 9.49547C375.329 9.30556 374.892 8.96373 374.494 8.52693C374.115 8.09014 373.925 7.46344 373.925 6.68482C373.925 5.6783 374.305 4.86169 375.063 4.23499C375.822 3.60829 376.883 3.28544 378.23 3.28544C379.614 3.24746 380.733 3.5893 381.586 4.31095Z" fill="#4F5955"/>
<path d="M394.557 12.4201V14.9458H393.021C391.731 14.9458 390.726 14.623 390.044 13.9963C389.361 13.3696 389.02 12.3251 389.02 10.8628V5.86819H387.408V3.38038H389.02V0.531738H391.959V3.39937H394.538V5.88718H391.959V10.9388C391.959 11.4895 392.073 11.8883 392.3 12.1162C392.528 12.3441 392.907 12.458 393.419 12.458H394.557V12.4201Z" fill="#4F5955"/>
<path d="M406.598 9.74238H398.122C398.16 10.7679 398.444 11.5275 398.956 12.0213C399.468 12.5151 400.113 12.7429 400.871 12.7429C401.554 12.7429 402.123 12.572 402.578 12.2492C403.033 11.9263 403.317 11.4706 403.45 10.9008H406.56C406.408 11.6984 406.086 12.4391 405.574 13.0658C405.081 13.7115 404.436 14.2052 403.64 14.5661C402.862 14.9269 401.99 15.1168 401.023 15.1168C399.904 15.1168 398.899 14.8699 398.027 14.3952C397.155 13.9204 396.472 13.2367 395.979 12.3441C395.486 11.4516 395.258 10.4071 395.258 9.19165C395.258 7.97623 395.505 6.93173 395.979 6.02016C396.472 5.12759 397.155 4.44392 398.027 3.96914C398.899 3.49437 399.904 3.26648 401.023 3.26648C402.161 3.26648 403.166 3.49437 404.019 3.96914C404.872 4.44392 405.536 5.08961 405.991 5.92521C406.465 6.76081 406.693 7.69136 406.693 8.75485C406.693 9.02073 406.674 9.36256 406.598 9.74238ZM402.995 6.28604C402.464 5.79227 401.8 5.54539 401.023 5.54539C400.227 5.54539 399.563 5.79227 399.013 6.28604C398.463 6.7798 398.179 7.48246 398.122 8.43201H403.735C403.773 7.50145 403.526 6.7798 402.995 6.28604Z" fill="#4F5955"/>
<path d="M415.321 4.31095C416.174 5.01361 416.705 5.96316 416.914 7.15959H414.164C414.051 6.60885 413.804 6.15307 413.406 5.83022C413.008 5.48839 412.515 5.33646 411.889 5.33646C411.396 5.33646 410.998 5.45041 410.713 5.69729C410.429 5.92518 410.296 6.24802 410.296 6.66582C410.296 6.98867 410.41 7.23555 410.637 7.44445C410.865 7.63436 411.13 7.78629 411.472 7.90023C411.813 8.01418 412.287 8.14712 412.913 8.29904C413.785 8.48895 414.506 8.69785 415.056 8.90675C415.606 9.11565 416.08 9.45749 416.478 9.93226C416.876 10.407 417.066 11.0337 417.066 11.8314C417.066 12.8189 416.686 13.6165 415.909 14.2242C415.131 14.8319 414.089 15.1358 412.799 15.1358C411.301 15.1358 410.087 14.7939 409.196 14.1293C408.305 13.4646 407.736 12.496 407.546 11.2426H410.372C410.448 11.8124 410.694 12.2681 411.13 12.591C411.566 12.9138 412.116 13.0848 412.818 13.0848C413.311 13.0848 413.709 12.9708 413.956 12.7239C414.221 12.477 414.354 12.1732 414.354 11.7744C414.354 11.4325 414.24 11.1667 414.013 10.9578C413.785 10.7489 413.501 10.5969 413.159 10.483C412.818 10.3691 412.344 10.2361 411.718 10.0842C410.846 9.89428 410.163 9.68538 409.613 9.49547C409.063 9.30556 408.627 8.96373 408.229 8.52693C407.85 8.09014 407.66 7.46344 407.66 6.68482C407.66 5.6783 408.039 4.86169 408.798 4.23499C409.556 3.60829 410.618 3.28544 411.965 3.28544C413.349 3.24746 414.468 3.5893 415.321 4.31095Z" fill="#4F5955"/>
<path d="M424.575 12.4201V14.9458H423.039C421.749 14.9458 420.744 14.623 420.062 13.9963C419.379 13.3696 419.038 12.3251 419.038 10.8628V5.86819H417.426V3.38038H419.038V0.531738H421.977V3.39937H424.556V5.88718H421.977V10.9388C421.977 11.4895 422.091 11.8883 422.318 12.1162C422.546 12.3441 422.925 12.458 423.437 12.458H424.575V12.4201Z" fill="#4F5955"/>
<path d="M338.977 22.96V25.2959H332.776V29.246H337.744V31.5059H332.776V37.716H329.837V22.96H338.977Z" fill="#4F5955"/>
<path d="M340.285 21.6497C340.627 21.3458 341.063 21.1939 341.594 21.1939C342.125 21.1939 342.58 21.3458 342.902 21.6497C343.244 21.9535 343.395 22.3334 343.395 22.8081C343.395 23.2639 343.225 23.6437 342.902 23.9476C342.58 24.2514 342.125 24.4034 341.594 24.4034C341.063 24.4034 340.608 24.2514 340.285 23.9476C339.963 23.6437 339.792 23.2639 339.792 22.8081C339.792 22.3524 339.963 21.9535 340.285 21.6497ZM343.054 26.1315V37.697H340.115V26.1315H343.054Z" fill="#4F5955"/>
<path d="M354.963 27.29C355.759 28.1636 356.157 29.398 356.157 30.9932V37.716H353.237V31.3161C353.237 30.4045 353.01 29.6829 352.536 29.1701C352.061 28.6573 351.417 28.4105 350.601 28.4105C349.767 28.4105 349.103 28.6763 348.591 29.2271C348.098 29.7778 347.833 30.5564 347.833 31.563V37.697H344.894V26.1316H347.833V28.4484C348.136 27.6698 348.648 27.0621 349.35 26.6253C350.051 26.1885 350.867 25.9606 351.777 25.9606C353.123 25.9796 354.185 26.4164 354.963 27.29Z" fill="#4F5955"/>
<path d="M364.937 26.6823C365.639 27.1381 366.132 27.7648 366.416 28.5434V26.1505H369.336V37.716H366.416V35.2852C366.132 36.0638 365.62 36.6905 364.937 37.1463C364.235 37.621 363.401 37.8489 362.434 37.8489C361.467 37.8489 360.576 37.621 359.798 37.1463C359.021 36.6715 358.414 35.9878 357.978 35.0952C357.542 34.2027 357.314 33.1392 357.314 31.9238C357.314 30.7083 357.542 29.6638 357.978 28.7523C358.414 27.8597 359.021 27.176 359.798 26.7013C360.576 26.2265 361.448 25.9986 362.434 25.9986C363.42 25.9986 364.254 26.2265 364.937 26.6823ZM361.144 29.4549C360.595 30.0627 360.31 30.8793 360.31 31.9238C360.31 32.9683 360.595 33.7849 361.144 34.3736C361.694 34.9623 362.434 35.2662 363.363 35.2662C364.254 35.2662 364.994 34.9623 365.563 34.3546C366.132 33.7469 366.435 32.9303 366.435 31.9238C366.435 30.8983 366.151 30.0816 365.563 29.4739C364.994 28.8662 364.254 28.5624 363.363 28.5624C362.434 28.5624 361.694 28.8662 361.144 29.4549Z" fill="#4F5955"/>
<path d="M381.245 27.29C382.041 28.1636 382.44 29.398 382.44 30.9932V37.716H379.519V31.3161C379.519 30.4045 379.292 29.6829 378.818 29.1701C378.344 28.6573 377.699 28.4105 376.884 28.4105C376.049 28.4105 375.385 28.6763 374.873 29.2271C374.38 29.7778 374.115 30.5564 374.115 31.563V37.697H371.176V26.1316H374.115V28.4484C374.418 27.6698 374.93 27.0621 375.632 26.6253C376.334 26.1885 377.149 25.9606 378.059 25.9606C379.406 25.9796 380.467 26.4164 381.245 27.29Z" fill="#4F5955"/>
<path d="M393.116 27.195C394.102 28.0117 394.727 29.0941 394.974 30.4995H391.864C391.731 29.8918 391.447 29.398 391.011 29.0562C390.575 28.6953 390.006 28.5244 389.323 28.5244C388.546 28.5244 387.901 28.8093 387.37 29.398C386.839 29.9677 386.592 30.8223 386.592 31.9428C386.592 33.0632 386.858 33.8988 387.37 34.4876C387.882 35.0573 388.546 35.3611 389.323 35.3611C390.006 35.3611 390.575 35.1902 391.011 34.8294C391.447 34.4686 391.731 33.9938 391.864 33.3861H394.974C394.727 34.7724 394.102 35.8739 393.116 36.6905C392.13 37.4881 390.878 37.9059 389.399 37.9059C388.28 37.9059 387.275 37.659 386.403 37.1843C385.531 36.7095 384.848 36.0258 384.355 35.1332C383.862 34.2407 383.634 33.1962 383.634 31.9808C383.634 30.7653 383.881 29.7208 384.355 28.8093C384.848 27.9167 385.531 27.233 386.403 26.7583C387.275 26.2835 388.28 26.0556 389.399 26.0556C390.878 25.9986 392.111 26.3974 393.116 27.195Z" fill="#4F5955"/>
<path d="M396.396 21.6497C396.737 21.3458 397.173 21.1939 397.704 21.1939C398.235 21.1939 398.69 21.3458 399.013 21.6497C399.354 21.9535 399.506 22.3334 399.506 22.8081C399.506 23.2639 399.335 23.6437 399.013 23.9476C398.69 24.2514 398.235 24.4034 397.704 24.4034C397.173 24.4034 396.718 24.2514 396.396 23.9476C396.073 23.6437 395.903 23.2639 395.903 22.8081C395.903 22.3524 396.073 21.9535 396.396 21.6497ZM399.164 26.1315V37.697H396.225V26.1315H399.164Z" fill="#4F5955"/>
<path d="M411.775 32.4935H403.298C403.336 33.519 403.621 34.2786 404.133 34.7724C404.645 35.2662 405.29 35.494 406.048 35.494C406.731 35.494 407.3 35.3231 407.755 35.0003C408.21 34.6774 408.494 34.2217 408.627 33.6519H411.737C411.585 34.4495 411.263 35.1902 410.751 35.8169C410.258 36.4626 409.613 36.9563 408.817 37.3172C408.039 37.678 407.167 37.8679 406.2 37.8679C405.081 37.8679 404.076 37.621 403.204 37.1463C402.331 36.6715 401.649 35.9878 401.156 35.0952C400.663 34.2027 400.435 33.1582 400.435 31.9427C400.435 30.7273 400.682 29.6828 401.156 28.7713C401.649 27.8787 402.331 27.195 403.204 26.7202C404.076 26.2455 405.081 26.0176 406.2 26.0176C407.337 26.0176 408.342 26.2455 409.196 26.7202C410.049 27.195 410.713 27.8407 411.168 28.6763C411.642 29.5119 411.87 30.4425 411.87 31.506C411.87 31.7718 411.832 32.1137 411.775 32.4935ZM408.172 29.0371C407.641 28.5434 406.977 28.2965 406.2 28.2965C405.403 28.2965 404.74 28.5434 404.19 29.0371C403.64 29.5309 403.355 30.2336 403.298 31.1831H408.911C408.949 30.2526 408.703 29.5309 408.172 29.0371Z" fill="#4F5955"/>
<path d="M417.786 26.6063C418.488 26.1885 419.284 25.9796 420.156 25.9796V29.1321H419.303C417.141 29.1321 416.06 30.1386 416.06 32.1327V37.716H413.121V26.1505H416.06V28.3725C416.496 27.6128 417.065 27.0431 417.786 26.6063Z" fill="#4F5955"/>
<path d="M654.958 280.14C653.985 280.14 653.105 279.973 652.318 279.64C651.545 279.307 650.932 278.827 650.478 278.2C650.025 277.573 649.792 276.833 649.778 275.98H652.778C652.818 276.553 653.018 277.007 653.378 277.34C653.752 277.673 654.258 277.84 654.898 277.84C655.552 277.84 656.065 277.687 656.438 277.38C656.812 277.06 656.998 276.647 656.998 276.14C656.998 275.727 656.872 275.387 656.618 275.12C656.365 274.853 656.045 274.647 655.658 274.5C655.285 274.34 654.765 274.167 654.098 273.98C653.192 273.713 652.452 273.453 651.878 273.2C651.318 272.933 650.832 272.54 650.418 272.02C650.018 271.487 649.818 270.78 649.818 269.9C649.818 269.073 650.025 268.353 650.438 267.74C650.852 267.127 651.432 266.66 652.178 266.34C652.925 266.007 653.778 265.84 654.738 265.84C656.178 265.84 657.345 266.193 658.238 266.9C659.145 267.593 659.645 268.567 659.738 269.82H656.658C656.632 269.34 656.425 268.947 656.038 268.64C655.665 268.32 655.165 268.16 654.538 268.16C653.992 268.16 653.552 268.3 653.218 268.58C652.898 268.86 652.738 269.267 652.738 269.8C652.738 270.173 652.858 270.487 653.098 270.74C653.352 270.98 653.658 271.18 654.018 271.34C654.392 271.487 654.912 271.66 655.578 271.86C656.485 272.127 657.225 272.393 657.798 272.66C658.372 272.927 658.865 273.327 659.278 273.86C659.692 274.393 659.898 275.093 659.898 275.96C659.898 276.707 659.705 277.4 659.318 278.04C658.932 278.68 658.365 279.193 657.618 279.58C656.872 279.953 655.985 280.14 654.958 280.14ZM665.386 271.22V276.58C665.386 276.953 665.472 277.227 665.646 277.4C665.832 277.56 666.139 277.64 666.566 277.64H667.866V280H666.106C663.746 280 662.566 278.853 662.566 276.56V271.22H661.246V268.92H662.566V266.18H665.386V268.92H667.866V271.22H665.386ZM672.48 270.64C672.84 270.053 673.306 269.593 673.88 269.26C674.466 268.927 675.133 268.76 675.88 268.76V271.7H675.14C674.26 271.7 673.593 271.907 673.14 272.32C672.7 272.733 672.48 273.453 672.48 274.48V280H669.68V268.92H672.48V270.64ZM687.866 274.22C687.866 274.62 687.839 274.98 687.786 275.3H679.686C679.752 276.1 680.032 276.727 680.526 277.18C681.019 277.633 681.626 277.86 682.346 277.86C683.386 277.86 684.126 277.413 684.566 276.52H687.586C687.266 277.587 686.652 278.467 685.746 279.16C684.839 279.84 683.726 280.18 682.406 280.18C681.339 280.18 680.379 279.947 679.526 279.48C678.686 279 678.026 278.327 677.546 277.46C677.079 276.593 676.846 275.593 676.846 274.46C676.846 273.313 677.079 272.307 677.546 271.44C678.012 270.573 678.666 269.907 679.506 269.44C680.346 268.973 681.312 268.74 682.406 268.74C683.459 268.74 684.399 268.967 685.226 269.42C686.066 269.873 686.712 270.52 687.166 271.36C687.632 272.187 687.866 273.14 687.866 274.22ZM684.966 273.42C684.952 272.7 684.692 272.127 684.186 271.7C683.679 271.26 683.059 271.04 682.326 271.04C681.632 271.04 681.046 271.253 680.566 271.68C680.099 272.093 679.812 272.673 679.706 273.42H684.966ZM693.949 280.18C693.043 280.18 692.229 280.02 691.509 279.7C690.789 279.367 690.216 278.92 689.789 278.36C689.376 277.8 689.149 277.18 689.109 276.5H691.929C691.983 276.927 692.189 277.28 692.549 277.56C692.923 277.84 693.383 277.98 693.929 277.98C694.463 277.98 694.876 277.873 695.169 277.66C695.476 277.447 695.629 277.173 695.629 276.84C695.629 276.48 695.443 276.213 695.069 276.04C694.709 275.853 694.129 275.653 693.329 275.44C692.503 275.24 691.823 275.033 691.289 274.82C690.769 274.607 690.316 274.28 689.929 273.84C689.556 273.4 689.369 272.807 689.369 272.06C689.369 271.447 689.543 270.887 689.889 270.38C690.249 269.873 690.756 269.473 691.409 269.18C692.076 268.887 692.856 268.74 693.749 268.74C695.069 268.74 696.123 269.073 696.909 269.74C697.696 270.393 698.129 271.28 698.209 272.4H695.529C695.489 271.96 695.303 271.613 694.969 271.36C694.649 271.093 694.216 270.96 693.669 270.96C693.163 270.96 692.769 271.053 692.489 271.24C692.223 271.427 692.089 271.687 692.089 272.02C692.089 272.393 692.276 272.68 692.649 272.88C693.023 273.067 693.603 273.26 694.389 273.46C695.189 273.66 695.849 273.867 696.369 274.08C696.889 274.293 697.336 274.627 697.709 275.08C698.096 275.52 698.296 276.107 698.309 276.84C698.309 277.48 698.129 278.053 697.769 278.56C697.423 279.067 696.916 279.467 696.249 279.76C695.596 280.04 694.829 280.18 693.949 280.18ZM704.648 280.18C703.741 280.18 702.928 280.02 702.208 279.7C701.488 279.367 700.914 278.92 700.488 278.36C700.074 277.8 699.848 277.18 699.808 276.5H702.628C702.681 276.927 702.888 277.28 703.248 277.56C703.621 277.84 704.081 277.98 704.628 277.98C705.161 277.98 705.574 277.873 705.868 277.66C706.174 277.447 706.328 277.173 706.328 276.84C706.328 276.48 706.141 276.213 705.768 276.04C705.408 275.853 704.828 275.653 704.028 275.44C703.201 275.24 702.521 275.033 701.988 274.82C701.468 274.607 701.014 274.28 700.628 273.84C700.254 273.4 700.068 272.807 700.068 272.06C700.068 271.447 700.241 270.887 700.588 270.38C700.948 269.873 701.454 269.473 702.108 269.18C702.774 268.887 703.554 268.74 704.448 268.74C705.768 268.74 706.821 269.073 707.608 269.74C708.394 270.393 708.828 271.28 708.908 272.4H706.228C706.188 271.96 706.001 271.613 705.668 271.36C705.348 271.093 704.914 270.96 704.368 270.96C703.861 270.96 703.468 271.053 703.188 271.24C702.921 271.427 702.788 271.687 702.788 272.02C702.788 272.393 702.974 272.68 703.348 272.88C703.721 273.067 704.301 273.26 705.088 273.46C705.888 273.66 706.548 273.867 707.068 274.08C707.588 274.293 708.034 274.627 708.408 275.08C708.794 275.52 708.994 276.107 709.008 276.84C709.008 277.48 708.828 278.053 708.468 278.56C708.121 279.067 707.614 279.467 706.948 279.76C706.294 280.04 705.528 280.18 704.648 280.18ZM718.932 271.22V276.58C718.932 276.953 719.018 277.227 719.192 277.4C719.378 277.56 719.685 277.64 720.112 277.64H721.412V280H719.652C717.292 280 716.112 278.853 716.112 276.56V271.22H714.792V268.92H716.112V266.18H718.932V268.92H721.412V271.22H718.932ZM733.526 274.22C733.526 274.62 733.499 274.98 733.446 275.3H725.346C725.412 276.1 725.692 276.727 726.186 277.18C726.679 277.633 727.286 277.86 728.006 277.86C729.046 277.86 729.786 277.413 730.226 276.52H733.246C732.926 277.587 732.312 278.467 731.406 279.16C730.499 279.84 729.386 280.18 728.066 280.18C726.999 280.18 726.039 279.947 725.186 279.48C724.346 279 723.686 278.327 723.206 277.46C722.739 276.593 722.506 275.593 722.506 274.46C722.506 273.313 722.739 272.307 723.206 271.44C723.672 270.573 724.326 269.907 725.166 269.44C726.006 268.973 726.972 268.74 728.066 268.74C729.119 268.74 730.059 268.967 730.886 269.42C731.726 269.873 732.372 270.52 732.826 271.36C733.292 272.187 733.526 273.14 733.526 274.22ZM730.626 273.42C730.612 272.7 730.352 272.127 729.846 271.7C729.339 271.26 728.719 271.04 727.986 271.04C727.292 271.04 726.706 271.253 726.226 271.68C725.759 272.093 725.472 272.673 725.366 273.42H730.626ZM739.609 280.18C738.703 280.18 737.889 280.02 737.169 279.7C736.449 279.367 735.876 278.92 735.449 278.36C735.036 277.8 734.809 277.18 734.769 276.5H737.589C737.643 276.927 737.849 277.28 738.209 277.56C738.583 277.84 739.043 277.98 739.589 277.98C740.123 277.98 740.536 277.873 740.829 277.66C741.136 277.447 741.289 277.173 741.289 276.84C741.289 276.48 741.103 276.213 740.729 276.04C740.369 275.853 739.789 275.653 738.989 275.44C738.163 275.24 737.483 275.033 736.949 274.82C736.429 274.607 735.976 274.28 735.589 273.84C735.216 273.4 735.029 272.807 735.029 272.06C735.029 271.447 735.203 270.887 735.549 270.38C735.909 269.873 736.416 269.473 737.069 269.18C737.736 268.887 738.516 268.74 739.409 268.74C740.729 268.74 741.783 269.073 742.569 269.74C743.356 270.393 743.789 271.28 743.869 272.4H741.189C741.149 271.96 740.963 271.613 740.629 271.36C740.309 271.093 739.876 270.96 739.329 270.96C738.823 270.96 738.429 271.053 738.149 271.24C737.883 271.427 737.749 271.687 737.749 272.02C737.749 272.393 737.936 272.68 738.309 272.88C738.683 273.067 739.263 273.26 740.049 273.46C740.849 273.66 741.509 273.867 742.029 274.08C742.549 274.293 742.996 274.627 743.369 275.08C743.756 275.52 743.956 276.107 743.969 276.84C743.969 277.48 743.789 278.053 743.429 278.56C743.083 279.067 742.576 279.467 741.909 279.76C741.256 280.04 740.489 280.18 739.609 280.18ZM749.328 271.22V276.58C749.328 276.953 749.415 277.227 749.588 277.4C749.775 277.56 750.081 277.64 750.508 277.64H751.808V280H750.048C747.688 280 746.508 278.853 746.508 276.56V271.22H745.188V268.92H746.508V266.18H749.328V268.92H751.808V271.22H749.328ZM635.055 300L631.975 294.56H630.655V300H627.855V286.04H633.095C634.175 286.04 635.095 286.233 635.855 286.62C636.615 286.993 637.182 287.507 637.555 288.16C637.942 288.8 638.135 289.52 638.135 290.32C638.135 291.24 637.869 292.073 637.335 292.82C636.802 293.553 636.009 294.06 634.955 294.34L638.295 300H635.055ZM630.655 292.46H632.995C633.755 292.46 634.322 292.28 634.695 291.92C635.069 291.547 635.255 291.033 635.255 290.38C635.255 289.74 635.069 289.247 634.695 288.9C634.322 288.54 633.755 288.36 632.995 288.36H630.655V292.46ZM650.768 294.22C650.768 294.62 650.741 294.98 650.688 295.3H642.588C642.655 296.1 642.935 296.727 643.428 297.18C643.921 297.633 644.528 297.86 645.248 297.86C646.288 297.86 647.028 297.413 647.468 296.52H650.488C650.168 297.587 649.555 298.467 648.648 299.16C647.741 299.84 646.628 300.18 645.308 300.18C644.241 300.18 643.281 299.947 642.428 299.48C641.588 299 640.928 298.327 640.448 297.46C639.981 296.593 639.748 295.593 639.748 294.46C639.748 293.313 639.981 292.307 640.448 291.44C640.915 290.573 641.568 289.907 642.408 289.44C643.248 288.973 644.215 288.74 645.308 288.74C646.361 288.74 647.301 288.967 648.128 289.42C648.968 289.873 649.615 290.52 650.068 291.36C650.535 292.187 650.768 293.14 650.768 294.22ZM647.868 293.42C647.855 292.7 647.595 292.127 647.088 291.7C646.581 291.26 645.961 291.04 645.228 291.04C644.535 291.04 643.948 291.253 643.468 291.68C643.001 292.093 642.715 292.673 642.608 293.42H647.868ZM647.448 286L642.848 288.1V286.1L647.448 283.72V286ZM656.952 288.74C657.778 288.74 658.505 288.907 659.132 289.24C659.758 289.56 660.252 289.98 660.612 290.5V288.92H663.432V300.08C663.432 301.107 663.225 302.02 662.812 302.82C662.398 303.633 661.778 304.273 660.952 304.74C660.125 305.22 659.125 305.46 657.952 305.46C656.378 305.46 655.085 305.093 654.072 304.36C653.072 303.627 652.505 302.627 652.372 301.36H655.152C655.298 301.867 655.612 302.267 656.092 302.56C656.585 302.867 657.178 303.02 657.872 303.02C658.685 303.02 659.345 302.773 659.852 302.28C660.358 301.8 660.612 301.067 660.612 300.08V298.36C660.252 298.88 659.752 299.313 659.112 299.66C658.485 300.007 657.765 300.18 656.952 300.18C656.018 300.18 655.165 299.94 654.392 299.46C653.618 298.98 653.005 298.307 652.552 297.44C652.112 296.56 651.892 295.553 651.892 294.42C651.892 293.3 652.112 292.307 652.552 291.44C653.005 290.573 653.612 289.907 654.372 289.44C655.145 288.973 656.005 288.74 656.952 288.74ZM660.612 294.46C660.612 293.78 660.478 293.2 660.212 292.72C659.945 292.227 659.585 291.853 659.132 291.6C658.678 291.333 658.192 291.2 657.672 291.2C657.152 291.2 656.672 291.327 656.232 291.58C655.792 291.833 655.432 292.207 655.152 292.7C654.885 293.18 654.752 293.753 654.752 294.42C654.752 295.087 654.885 295.673 655.152 296.18C655.432 296.673 655.792 297.053 656.232 297.32C656.685 297.587 657.165 297.72 657.672 297.72C658.192 297.72 658.678 297.593 659.132 297.34C659.585 297.073 659.945 296.7 660.212 296.22C660.478 295.727 660.612 295.14 660.612 294.46ZM668.766 285.2V300H665.966V285.2H668.766ZM681.633 294.22C681.633 294.62 681.606 294.98 681.553 295.3H673.453C673.519 296.1 673.799 296.727 674.293 297.18C674.786 297.633 675.393 297.86 676.113 297.86C677.153 297.86 677.893 297.413 678.333 296.52H681.353C681.033 297.587 680.419 298.467 679.513 299.16C678.606 299.84 677.493 300.18 676.173 300.18C675.106 300.18 674.146 299.947 673.293 299.48C672.453 299 671.793 298.327 671.313 297.46C670.846 296.593 670.613 295.593 670.613 294.46C670.613 293.313 670.846 292.307 671.313 291.44C671.779 290.573 672.433 289.907 673.273 289.44C674.113 288.973 675.079 288.74 676.173 288.74C677.226 288.74 678.166 288.967 678.993 289.42C679.833 289.873 680.479 290.52 680.933 291.36C681.399 292.187 681.633 293.14 681.633 294.22ZM678.733 293.42C678.719 292.7 678.459 292.127 677.953 291.7C677.446 291.26 676.826 291.04 676.093 291.04C675.399 291.04 674.813 291.253 674.333 291.68C673.866 292.093 673.579 292.673 673.473 293.42H678.733ZM697.236 288.76C698.596 288.76 699.69 289.18 700.516 290.02C701.356 290.847 701.776 292.007 701.776 293.5V300H698.976V293.88C698.976 293.013 698.756 292.353 698.316 291.9C697.876 291.433 697.276 291.2 696.516 291.2C695.756 291.2 695.15 291.433 694.696 291.9C694.256 292.353 694.036 293.013 694.036 293.88V300H691.236V293.88C691.236 293.013 691.016 292.353 690.576 291.9C690.136 291.433 689.536 291.2 688.776 291.2C688.003 291.2 687.39 291.433 686.936 291.9C686.496 292.353 686.276 293.013 686.276 293.88V300H683.476V288.92H686.276V290.26C686.636 289.793 687.096 289.427 687.656 289.16C688.23 288.893 688.856 288.76 689.536 288.76C690.403 288.76 691.176 288.947 691.856 289.32C692.536 289.68 693.063 290.2 693.436 290.88C693.796 290.24 694.316 289.727 694.996 289.34C695.69 288.953 696.436 288.76 697.236 288.76ZM714.534 294.22C714.534 294.62 714.507 294.98 714.454 295.3H706.354C706.42 296.1 706.7 296.727 707.194 297.18C707.687 297.633 708.294 297.86 709.014 297.86C710.054 297.86 710.794 297.413 711.234 296.52H714.254C713.934 297.587 713.32 298.467 712.414 299.16C711.507 299.84 710.394 300.18 709.074 300.18C708.007 300.18 707.047 299.947 706.194 299.48C705.354 299 704.694 298.327 704.214 297.46C703.747 296.593 703.514 295.593 703.514 294.46C703.514 293.313 703.747 292.307 704.214 291.44C704.68 290.573 705.334 289.907 706.174 289.44C707.014 288.973 707.98 288.74 709.074 288.74C710.127 288.74 711.067 288.967 711.894 289.42C712.734 289.873 713.38 290.52 713.834 291.36C714.3 292.187 714.534 293.14 714.534 294.22ZM711.634 293.42C711.62 292.7 711.36 292.127 710.854 291.7C710.347 291.26 709.727 291.04 708.994 291.04C708.3 291.04 707.714 291.253 707.234 291.68C706.767 292.093 706.48 292.673 706.374 293.42H711.634ZM722.517 288.76C723.837 288.76 724.904 289.18 725.717 290.02C726.531 290.847 726.937 292.007 726.937 293.5V300H724.137V293.88C724.137 293 723.917 292.327 723.477 291.86C723.037 291.38 722.437 291.14 721.677 291.14C720.904 291.14 720.291 291.38 719.837 291.86C719.397 292.327 719.177 293 719.177 293.88V300H716.377V288.92H719.177V290.3C719.551 289.82 720.024 289.447 720.597 289.18C721.184 288.9 721.824 288.76 722.517 288.76ZM732.66 291.22V296.58C732.66 296.953 732.747 297.227 732.92 297.4C733.107 297.56 733.413 297.64 733.84 297.64H735.14V300H733.38C731.02 300 729.84 298.853 729.84 296.56V291.22H728.52V288.92H729.84V286.18H732.66V288.92H735.14V291.22H732.66ZM736.234 294.42C736.234 293.3 736.454 292.307 736.894 291.44C737.347 290.573 737.954 289.907 738.714 289.44C739.487 288.973 740.347 288.74 741.294 288.74C742.12 288.74 742.84 288.907 743.454 289.24C744.08 289.573 744.58 289.993 744.954 290.5V288.92H747.774V300H744.954V298.38C744.594 298.9 744.094 299.333 743.454 299.68C742.827 300.013 742.1 300.18 741.274 300.18C740.34 300.18 739.487 299.94 738.714 299.46C737.954 298.98 737.347 298.307 736.894 297.44C736.454 296.56 736.234 295.553 736.234 294.42ZM744.954 294.46C744.954 293.78 744.82 293.2 744.554 292.72C744.287 292.227 743.927 291.853 743.474 291.6C743.02 291.333 742.534 291.2 742.014 291.2C741.494 291.2 741.014 291.327 740.574 291.58C740.134 291.833 739.774 292.207 739.494 292.7C739.227 293.18 739.094 293.753 739.094 294.42C739.094 295.087 739.227 295.673 739.494 296.18C739.774 296.673 740.134 297.053 740.574 297.32C741.027 297.587 741.507 297.72 742.014 297.72C742.534 297.72 743.02 297.593 743.474 297.34C743.927 297.073 744.287 296.7 744.554 296.22C744.82 295.727 744.954 295.14 744.954 294.46ZM751.729 287.6C751.235 287.6 750.822 287.447 750.489 287.14C750.169 286.82 750.009 286.427 750.009 285.96C750.009 285.493 750.169 285.107 750.489 284.8C750.822 284.48 751.235 284.32 751.729 284.32C752.222 284.32 752.629 284.48 752.949 284.8C753.282 285.107 753.449 285.493 753.449 285.96C753.449 286.427 753.282 286.82 752.949 287.14C752.629 287.447 752.222 287.6 751.729 287.6ZM753.109 288.92V300H750.309V288.92H753.109ZM758.475 290.64C758.835 290.053 759.302 289.593 759.875 289.26C760.462 288.927 761.128 288.76 761.875 288.76V291.7H761.135C760.255 291.7 759.588 291.907 759.135 292.32C758.695 292.733 758.475 293.453 758.475 294.48V300H755.675V288.92H758.475V290.64ZM773.861 294.22C773.861 294.62 773.834 294.98 773.781 295.3H765.681C765.748 296.1 766.028 296.727 766.521 297.18C767.014 297.633 767.621 297.86 768.341 297.86C769.381 297.86 770.121 297.413 770.561 296.52H773.581C773.261 297.587 772.648 298.467 771.741 299.16C770.834 299.84 769.721 300.18 768.401 300.18C767.334 300.18 766.374 299.947 765.521 299.48C764.681 299 764.021 298.327 763.541 297.46C763.074 296.593 762.841 295.593 762.841 294.46C762.841 293.313 763.074 292.307 763.541 291.44C764.008 290.573 764.661 289.907 765.501 289.44C766.341 288.973 767.308 288.74 768.401 288.74C769.454 288.74 770.394 288.967 771.221 289.42C772.061 289.873 772.708 290.52 773.161 291.36C773.628 292.187 773.861 293.14 773.861 294.22ZM770.961 293.42C770.948 292.7 770.688 292.127 770.181 291.7C769.674 291.26 769.054 291.04 768.321 291.04C767.628 291.04 767.041 291.253 766.561 291.68C766.094 292.093 765.808 292.673 765.701 293.42H770.961Z" fill="#4F5955"/>
<path d="M16.4976 267.924C16.1183 268.551 15.5684 269.063 14.8289 269.443C14.0893 269.823 13.1981 270.013 12.1362 270.013C11.0932 270.013 10.164 269.842 9.34864 269.481C8.53324 269.12 7.86955 268.608 7.37652 267.943C6.88349 267.278 6.59905 266.5 6.5232 265.607H9.65204C9.72789 266.215 9.95544 266.709 10.3726 267.107C10.7898 267.506 11.3208 267.696 12.0034 267.696C12.6102 267.696 13.0843 267.525 13.4067 267.202C13.729 266.879 13.8997 266.462 13.8997 265.93C13.8997 265.474 13.7669 265.094 13.5015 264.79C13.236 264.487 12.8947 264.259 12.4964 264.069C12.0982 263.898 11.5293 263.67 10.8277 263.442C9.91752 263.138 9.15901 262.834 8.57117 262.531C7.98332 262.227 7.49029 261.79 7.07311 261.22C6.65594 260.65 6.46631 259.91 6.46631 258.979C6.46631 257.707 6.92141 256.719 7.83162 255.979C8.74183 255.238 9.95544 254.877 11.4535 254.877C13.0084 254.877 14.26 255.257 15.1702 255.998C16.0994 256.757 16.6113 257.745 16.7441 258.998H13.5963C13.5204 258.466 13.2929 258.03 12.9326 257.688C12.5723 257.346 12.0793 257.175 11.4535 257.175C10.9036 257.175 10.4674 257.327 10.1451 257.593C9.80374 257.878 9.65204 258.296 9.65204 258.846C9.65204 259.283 9.78478 259.644 10.0313 259.929C10.2778 260.214 10.6191 260.442 11.0174 260.631C11.4156 260.821 11.9465 261.011 12.6292 261.239C13.5773 261.581 14.3358 261.885 14.9237 262.189C15.5115 262.474 16.0235 262.91 16.4407 263.499C16.8579 264.088 17.0665 264.847 17.0665 265.797C17.0475 266.595 16.8579 267.297 16.4976 267.924Z" fill="#4F5955"/>
<path d="M24.5566 267.354V269.88H23.0207C21.7312 269.88 20.7262 269.557 20.0435 268.93C19.3609 268.304 19.0195 267.259 19.0195 265.797V260.783H17.4077V258.295H19.0195V255.428H21.9588V258.295H24.5377V260.783H21.9588V265.835C21.9588 266.386 22.0725 266.784 22.3001 267.012C22.5276 267.24 22.9069 267.354 23.4189 267.354H24.5566Z" fill="#4F5955"/>
<path d="M30.492 258.77C31.1936 258.352 31.99 258.144 32.8623 258.144V261.296H32.009C29.8472 261.296 28.7664 262.303 28.7664 264.297V269.88H25.8271V258.314H28.7664V260.536C29.2025 259.777 29.7714 259.207 30.492 258.77Z" fill="#4F5955"/>
<path d="M44.4105 264.658H35.9342C35.9721 265.683 36.2565 266.443 36.7685 266.936C37.2805 267.43 37.9252 267.658 38.6838 267.658C39.3664 267.658 39.9353 267.487 40.3904 267.164C40.8455 266.841 41.1299 266.386 41.2627 265.816H44.3726C44.2209 266.614 43.8985 267.354 43.3865 267.981C42.8935 268.627 42.2487 269.12 41.4523 269.481C40.6748 269.842 39.8026 270.032 38.8355 270.032C37.7167 270.032 36.7116 269.785 35.8394 269.31C34.9671 268.836 34.2844 268.152 33.7914 267.259C33.2984 266.367 33.0708 265.322 33.0708 264.107C33.0708 262.891 33.3173 261.847 33.7914 260.935C34.2844 260.043 34.9671 259.359 35.8394 258.884C36.7116 258.41 37.7167 258.182 38.8355 258.182C39.9732 258.182 40.9782 258.41 41.8316 258.884C42.6849 259.359 43.3486 260.005 43.8037 260.84C44.2777 261.676 44.5053 262.607 44.5053 263.67C44.5243 263.936 44.4863 264.278 44.4105 264.658ZM40.8265 261.201C40.2956 260.707 39.6319 260.461 38.8544 260.461C38.058 260.461 37.3943 260.707 36.8444 261.201C36.2945 261.695 36.01 262.398 35.9531 263.347H41.5661C41.604 262.417 41.3575 261.695 40.8265 261.201Z" fill="#4F5955"/>
<path d="M53.1336 259.226C53.9869 259.929 54.5179 260.878 54.7265 262.075H51.9769C51.8631 261.524 51.6166 261.068 51.2184 260.745C50.8201 260.404 50.3271 260.252 49.7013 260.252C49.2083 260.252 48.8101 260.366 48.5257 260.612C48.2412 260.84 48.1085 261.163 48.1085 261.581C48.1085 261.904 48.2223 262.151 48.4498 262.36C48.6774 262.549 48.9428 262.701 49.2842 262.815C49.6255 262.929 50.0996 263.062 50.7253 263.214C51.5976 263.404 52.3182 263.613 52.8681 263.822C53.418 264.031 53.8921 264.373 54.2903 264.847C54.6885 265.322 54.8782 265.949 54.8782 266.747C54.8782 267.734 54.4989 268.532 53.7214 269.139C52.944 269.747 51.901 270.051 50.6116 270.051C49.1135 270.051 47.8999 269.709 47.0086 269.044C46.1174 268.38 45.5485 267.411 45.3589 266.158H48.1843C48.2602 266.727 48.5067 267.183 48.9428 267.506C49.379 267.829 49.9289 268 50.6305 268C51.1235 268 51.5218 267.886 51.7683 267.639C52.0338 267.392 52.1665 267.088 52.1665 266.69C52.1665 266.348 52.0527 266.082 51.8252 265.873C51.5976 265.664 51.3132 265.512 50.9718 265.398C50.6305 265.284 50.1564 265.151 49.5307 264.999C48.6584 264.809 47.9757 264.601 47.4258 264.411C46.8759 264.221 46.4398 263.879 46.0415 263.442C45.6623 263.005 45.4727 262.379 45.4727 261.6C45.4727 260.593 45.8519 259.777 46.6104 259.15C47.3689 258.523 48.4308 258.201 49.7772 258.201C51.1615 258.163 52.2992 258.504 53.1336 259.226Z" fill="#4F5955"/>
<path d="M63.5818 259.226C64.4351 259.929 64.9661 260.878 65.1747 262.075H62.4251C62.3113 261.524 62.0648 261.068 61.6666 260.745C61.2684 260.404 60.7754 260.252 60.1496 260.252C59.6566 260.252 59.2583 260.366 58.9739 260.612C58.6895 260.84 58.5567 261.163 58.5567 261.581C58.5567 261.904 58.6705 262.151 58.898 262.36C59.1256 262.549 59.3911 262.701 59.7324 262.815C60.0737 262.929 60.5478 263.062 61.1736 263.214C62.0458 263.404 62.7664 263.613 63.3164 263.822C63.8663 264.031 64.3403 264.373 64.7386 264.847C65.1368 265.322 65.3264 265.949 65.3264 266.747C65.3264 267.734 64.9471 268.532 64.1697 269.139C63.3922 269.747 62.3493 270.051 61.0598 270.051C59.5617 270.051 58.3481 269.709 57.4569 269.044C56.5656 268.38 55.9968 267.411 55.8071 266.158H58.6326C58.7084 266.727 58.9549 267.183 59.3911 267.506C59.8272 267.829 60.3771 268 61.0788 268C61.5718 268 61.97 267.886 62.2165 267.639C62.482 267.392 62.6147 267.088 62.6147 266.69C62.6147 266.348 62.501 266.082 62.2734 265.873C62.0459 265.664 61.7614 265.512 61.4201 265.398C61.0788 265.284 60.6047 265.151 59.9789 264.999C59.1066 264.809 58.424 264.601 57.8741 264.411C57.3241 264.221 56.888 263.879 56.4898 263.442C56.1105 263.005 55.9209 262.379 55.9209 261.6C55.9209 260.593 56.3002 259.777 57.0587 259.15C57.8172 258.523 58.8791 258.201 60.2254 258.201C61.6097 258.163 62.7475 258.504 63.5818 259.226Z" fill="#4F5955"/>
<path d="M76.5712 267.354V269.88H75.0352C73.7458 269.88 72.7408 269.557 72.0581 268.93C71.3754 268.304 71.0341 267.259 71.0341 265.797V260.783H69.4033V258.295H71.0152V255.428H73.9544V258.295H76.5333V260.783H73.9544V265.835C73.9544 266.386 74.0681 266.784 74.2957 267.012C74.5232 267.24 74.9025 267.354 75.4145 267.354H76.5712Z" fill="#4F5955"/>
<path d="M88.5936 264.658H80.1173C80.1552 265.683 80.4396 266.443 80.9516 266.936C81.4636 267.43 82.1084 267.658 82.8669 267.658C83.5495 267.658 84.1184 267.487 84.5735 267.164C85.0286 266.841 85.313 266.386 85.4458 265.816H88.5557C88.404 266.614 88.0816 267.354 87.5696 267.981C87.0766 268.627 86.4318 269.12 85.6354 269.481C84.8579 269.842 83.9857 270.032 83.0186 270.032C81.8998 270.032 80.8947 269.785 80.0225 269.31C79.1502 268.836 78.4675 268.152 77.9745 267.259C77.4815 266.367 77.2539 265.322 77.2539 264.107C77.2539 262.891 77.5004 261.847 77.9745 260.935C78.4675 260.043 79.1502 259.359 80.0225 258.884C80.8947 258.41 81.8998 258.182 83.0186 258.182C84.1563 258.182 85.1613 258.41 86.0147 258.884C86.868 259.359 87.5317 260.005 87.9868 260.84C88.4609 261.676 88.6884 262.607 88.6884 263.67C88.7074 263.936 88.6694 264.278 88.5936 264.658ZM84.9907 261.201C84.4597 260.707 83.796 260.461 83.0186 260.461C82.2221 260.461 81.5584 260.707 81.0085 261.201C80.4586 261.695 80.1742 262.398 80.1173 263.347H85.7302C85.7871 262.417 85.5406 261.695 84.9907 261.201Z" fill="#4F5955"/>
<path d="M97.3166 259.226C98.1699 259.929 98.7009 260.878 98.9095 262.075H96.1409C96.0272 261.524 95.7806 261.068 95.3824 260.745C94.9842 260.404 94.4912 260.252 93.8654 260.252C93.3724 260.252 92.9742 260.366 92.6897 260.612C92.4053 260.84 92.2725 261.163 92.2725 261.581C92.2725 261.904 92.3863 262.151 92.6139 262.36C92.8414 262.549 93.1069 262.701 93.4482 262.815C93.7896 262.929 94.2636 263.062 94.8894 263.214C95.7617 263.404 96.4823 263.613 97.0322 263.822C97.5821 264.031 98.0562 264.373 98.4544 264.847C98.8526 265.322 99.0422 265.949 99.0422 266.747C99.0422 267.734 98.663 268.532 97.8855 269.139C97.108 269.747 96.0651 270.051 94.7756 270.051C93.2776 270.051 92.064 269.709 91.1727 269.044C90.2815 268.38 89.7126 267.411 89.5229 266.158H92.3484C92.4242 266.727 92.6708 267.183 93.1069 267.506C93.543 267.829 94.093 268 94.7946 268C95.2876 268 95.6858 267.886 95.9323 267.639C96.1978 267.392 96.3306 267.088 96.3306 266.69C96.3306 266.348 96.2168 266.082 95.9892 265.873C95.7617 265.664 95.4772 265.512 95.1359 265.398C94.7946 265.284 94.3205 265.151 93.6947 264.999C92.8225 264.809 92.1398 264.601 91.5899 264.411C91.04 264.221 90.6038 263.879 90.2056 263.442C89.8264 263.005 89.6367 262.379 89.6367 261.6C89.6367 260.593 90.016 259.777 90.7745 259.15C91.533 258.523 92.5949 258.201 93.9413 258.201C95.3445 258.163 96.4633 258.504 97.3166 259.226Z" fill="#4F5955"/>
<path d="M106.57 267.354V269.88H105.034C103.745 269.88 102.74 269.557 102.057 268.93C101.375 268.304 101.033 267.259 101.033 265.797V260.783H99.4214V258.295H101.033V255.428H103.972V258.295H106.551V260.783H103.972V265.835C103.972 266.386 104.086 266.784 104.314 267.012C104.541 267.24 104.921 267.354 105.433 267.354H106.57Z" fill="#4F5955"/>
<path d="M11.6811 282.946C12.8947 283.895 13.6911 285.187 14.0704 286.82H10.9984C10.6761 286.022 10.183 285.396 9.50039 284.94C8.81773 284.484 8.0213 284.256 7.07316 284.256C6.29569 284.256 5.59407 284.446 4.9683 284.845C4.34254 285.244 3.84951 285.794 3.50818 286.516C3.16685 287.238 2.99618 288.092 2.99618 289.061C2.99618 290.029 3.16685 290.865 3.50818 291.587C3.84951 292.308 4.34254 292.859 4.9683 293.258C5.59407 293.657 6.29569 293.847 7.07316 293.847C8.0213 293.847 8.83669 293.619 9.50039 293.163C10.1641 292.707 10.6761 292.08 10.9984 291.283H14.0894C13.6911 292.916 12.8947 294.207 11.7001 295.157C10.5054 296.106 8.96943 296.581 7.13005 296.581C5.72681 296.581 4.47527 296.258 3.41336 295.632C2.33249 295.005 1.49813 294.112 0.910289 292.973C0.322446 291.833 0.019043 290.542 0.019043 289.08C0.019043 287.618 0.322446 286.307 0.910289 285.168C1.49813 284.028 2.33249 283.136 3.3944 282.509C4.45631 281.882 5.70785 281.559 7.13005 281.559C8.95047 281.54 10.4675 282.015 11.6811 282.946Z" fill="#4F5955"/>
<path d="M18.3938 280.971V296.429H15.4546V280.971H18.3938Z" fill="#4F5955"/>
<path d="M20.4041 280.382C20.7455 280.078 21.1816 279.926 21.7125 279.926C22.2435 279.926 22.6986 280.078 23.021 280.382C23.3623 280.686 23.514 281.066 23.514 281.54C23.514 281.996 23.3433 282.376 23.021 282.68C22.6986 282.984 22.2435 283.136 21.7125 283.136C21.1816 283.136 20.7265 282.984 20.4041 282.68C20.0818 282.376 19.9111 281.996 19.9111 281.54C19.8921 281.066 20.0628 280.667 20.4041 280.382ZM23.1727 284.864V296.429H20.2335V284.864H23.1727Z" fill="#4F5955"/>
<path d="M43.0453 285.984C43.8607 286.858 44.2589 288.092 44.2589 289.687V296.41H41.3387V290.01C41.3387 289.118 41.1111 288.434 40.656 287.959C40.2009 287.485 39.5751 287.238 38.7787 287.238C37.9633 287.238 37.2996 287.504 36.8256 288.016C36.3325 288.529 36.086 289.289 36.086 290.276V296.41H33.1847V290.01C33.1847 289.118 32.9572 288.434 32.5021 287.959C32.047 287.485 31.4212 287.238 30.6437 287.238C29.8283 287.238 29.1646 287.504 28.6906 288.016C28.2165 288.529 27.97 289.289 27.97 290.276V296.41H25.0308V284.864H27.97V287.067C28.2734 286.307 28.7664 285.737 29.4111 285.32C30.0748 284.902 30.8333 284.712 31.7246 284.712C32.6538 284.712 33.4692 284.94 34.1518 285.377C34.8345 285.832 35.3654 286.459 35.7068 287.295C36.067 286.497 36.598 285.87 37.3186 285.396C38.0392 284.921 38.8356 284.693 39.7268 284.693C41.1111 284.693 42.2299 285.13 43.0453 285.984Z" fill="#4F5955"/>
<path d="M53.0385 285.396C53.7401 285.851 54.2332 286.478 54.5176 287.257V284.864H57.4379V296.429H54.5176V293.998C54.2332 294.777 53.7212 295.404 53.0385 295.86C52.3369 296.334 51.5025 296.562 50.5355 296.562C49.5684 296.562 48.6771 296.334 47.8996 295.86C47.1222 295.385 46.5154 294.701 46.0792 293.809C45.6431 292.916 45.4155 291.852 45.4155 290.637C45.4155 289.422 45.6431 288.377 46.0792 287.466C46.5154 286.573 47.1222 285.889 47.8996 285.415C48.6771 284.94 49.5494 284.712 50.5355 284.712C51.5215 284.712 52.3559 284.94 53.0385 285.396ZM49.246 288.168C48.6961 288.776 48.4116 289.593 48.4116 290.637C48.4116 291.682 48.6961 292.498 49.246 293.087C49.7959 293.676 50.5355 293.979 51.4646 293.979C52.3559 293.979 53.0954 293.676 53.6643 293.068C54.2332 292.46 54.5366 291.644 54.5366 290.637C54.5366 289.612 54.2521 288.795 53.6643 288.187C53.0954 287.58 52.3559 287.276 51.4646 287.276C50.5355 287.276 49.7959 287.58 49.246 288.168Z" fill="#4F5955"/>
<path d="M65.4594 293.904V296.429H63.9045C62.615 296.429 61.61 296.106 60.9273 295.48C60.2447 294.853 59.9033 293.809 59.9033 292.346V287.333H58.2915V284.864H59.9033V281.996H62.8425V284.864H65.4215V287.352H62.8425V292.403C62.8425 292.954 62.9563 293.353 63.1839 293.581C63.4114 293.809 63.7907 293.923 64.3027 293.923H65.4594V293.904Z" fill="#4F5955"/>
<path d="M66.9002 280.382C67.2415 280.078 67.6777 279.926 68.2086 279.926C68.7396 279.926 69.1947 280.078 69.5171 280.382C69.8584 280.686 70.0101 281.066 70.0101 281.54C70.0101 281.996 69.8394 282.376 69.5171 282.68C69.1947 282.984 68.7396 283.136 68.2086 283.136C67.6777 283.136 67.2226 282.984 66.9002 282.68C66.5778 282.376 66.4072 281.996 66.4072 281.54C66.3882 281.066 66.5589 280.667 66.9002 280.382ZM69.6688 284.864V296.429H66.7295V284.864H69.6688Z" fill="#4F5955"/>
<path d="M78.5435 285.301C79.1882 285.68 79.6813 286.231 80.0226 286.915V284.864H82.9428V301.956H80.0226V294.207C79.6433 294.967 79.1503 295.537 78.5056 295.954C77.8798 296.372 77.1213 296.562 76.249 296.562C75.2629 296.562 74.3717 296.315 73.5563 295.841C72.7409 295.347 72.1151 294.663 71.6411 293.771C71.167 292.878 70.9395 291.852 70.9395 290.694C70.9395 289.517 71.167 288.491 71.6411 287.598C72.1151 286.706 72.7599 286.003 73.5563 285.49C74.3527 284.997 75.2629 284.731 76.249 284.731C77.1213 284.731 77.8988 284.921 78.5435 285.301ZM74.7699 288.187C74.201 288.776 73.8976 289.612 73.8976 290.675C73.8976 291.738 74.1821 292.574 74.7699 293.125C75.3388 293.695 76.0783 293.979 76.9506 293.979C77.5005 293.979 77.9936 293.847 78.4676 293.6C78.9417 293.353 79.321 292.954 79.5864 292.46C79.8519 291.966 80.0036 291.359 80.0036 290.637C80.0036 289.915 79.8709 289.327 79.5864 288.814C79.302 288.301 78.9417 287.94 78.4676 287.674C77.9936 287.409 77.4816 287.295 76.9317 287.295C76.0783 287.295 75.3388 287.598 74.7699 288.187Z" fill="#4F5955"/>
<path d="M95.8185 284.864V296.429H92.8793V294.093C92.5759 294.872 92.0639 295.48 91.3623 295.916C90.6607 296.353 89.8453 296.581 88.9351 296.581C87.6077 296.581 86.5268 296.144 85.7493 295.271C84.9529 294.397 84.5547 293.163 84.5547 291.587V284.864H87.4749V291.264C87.4749 292.175 87.7025 292.897 88.1766 293.41C88.6506 293.922 89.2954 294.169 90.0918 294.169C90.9451 294.169 91.6088 293.903 92.1208 293.353C92.6328 292.802 92.8793 292.023 92.8793 291.017V284.864H95.8185Z" fill="#4F5955"/>
<path d="M108.429 291.207H99.9522C99.9902 292.232 100.275 292.992 100.787 293.486C101.299 293.979 101.943 294.207 102.702 294.207C103.384 294.207 103.953 294.036 104.408 293.714C104.864 293.391 105.148 292.935 105.281 292.365H108.391C108.239 293.163 107.917 293.903 107.405 294.53C106.912 295.176 106.267 295.67 105.47 296.03C104.693 296.391 103.821 296.581 102.854 296.581C101.735 296.581 100.73 296.334 99.8574 295.86C98.9851 295.385 98.3025 294.701 97.8095 293.809C97.3164 292.916 97.0889 291.871 97.0889 290.656C97.0889 289.441 97.3354 288.396 97.8095 287.485C98.3025 286.592 98.9851 285.908 99.8574 285.434C100.73 284.959 101.735 284.731 102.854 284.731C103.991 284.731 104.996 284.959 105.85 285.434C106.703 285.908 107.367 286.554 107.822 287.39C108.296 288.225 108.523 289.156 108.523 290.219C108.523 290.485 108.485 290.827 108.429 291.207ZM104.826 287.75C104.295 287.257 103.631 287.01 102.854 287.01C102.057 287.01 101.393 287.257 100.843 287.75C100.294 288.244 100.009 288.947 99.9522 289.896H105.565C105.603 288.966 105.357 288.244 104.826 287.75Z" fill="#4F5955"/>
<path d="M286.659 454.282H283.72L277.121 444.255V454.282H274.182V439.526H277.121L283.72 449.629V439.526H286.659V454.282Z" fill="#4F5955"/>
<path d="M296.861 443.286C297.752 443.761 298.473 444.445 298.985 445.337C299.497 446.23 299.762 447.293 299.762 448.509C299.762 449.724 299.497 450.768 298.985 451.661C298.473 452.554 297.771 453.237 296.861 453.712C295.97 454.187 294.946 454.434 293.827 454.434C292.708 454.434 291.684 454.187 290.793 453.712C289.902 453.237 289.181 452.554 288.669 451.661C288.157 450.768 287.892 449.724 287.892 448.509C287.892 447.293 288.138 446.249 288.669 445.337C289.2 444.426 289.883 443.761 290.793 443.286C291.684 442.811 292.708 442.583 293.827 442.583C294.946 442.564 295.97 442.811 296.861 443.286ZM291.741 445.983C291.172 446.553 290.888 447.407 290.888 448.509C290.888 449.61 291.172 450.446 291.741 451.034C292.31 451.623 293.012 451.908 293.827 451.908C294.642 451.908 295.344 451.623 295.913 451.034C296.482 450.446 296.766 449.61 296.766 448.509C296.766 447.407 296.482 446.571 295.913 445.983C295.344 445.413 294.642 445.109 293.827 445.109C293.012 445.109 292.31 445.413 291.741 445.983Z" fill="#4F5955"/>
<path d="M308.371 443.628C309.225 444.331 309.756 445.28 309.964 446.476H307.196C307.082 445.926 306.835 445.47 306.437 445.147C306.039 444.805 305.546 444.653 304.92 444.653C304.427 444.653 304.029 444.767 303.744 445.014C303.46 445.242 303.327 445.565 303.327 445.983C303.327 446.306 303.441 446.552 303.669 446.761C303.896 446.951 304.162 447.103 304.503 447.217C304.844 447.331 305.318 447.464 305.944 447.616C306.816 447.806 307.537 448.015 308.087 448.224C308.637 448.433 309.111 448.774 309.509 449.249C309.907 449.724 310.097 450.351 310.097 451.148C310.097 452.136 309.718 452.933 308.94 453.541C308.163 454.149 307.12 454.453 305.83 454.453C304.332 454.453 303.119 454.111 302.227 453.446C301.317 452.762 300.767 451.813 300.578 450.56H303.403C303.479 451.129 303.725 451.585 304.162 451.908C304.598 452.231 305.148 452.402 305.849 452.402C306.342 452.402 306.741 452.288 306.987 452.041C307.253 451.794 307.385 451.49 307.385 451.091C307.385 450.749 307.271 450.484 307.044 450.275C306.816 450.066 306.532 449.914 306.191 449.8C305.849 449.686 305.375 449.553 304.749 449.401C303.877 449.211 303.195 449.002 302.645 448.812C302.114 448.603 301.659 448.281 301.26 447.844C300.881 447.388 300.691 446.78 300.691 446.002C300.691 444.995 301.071 444.179 301.829 443.552C302.588 442.925 303.65 442.602 304.996 442.602C306.399 442.564 307.518 442.925 308.371 443.628Z" fill="#4F5955"/>
<path d="M315.331 438.234C315.672 437.931 316.108 437.779 316.639 437.779C317.17 437.779 317.625 437.931 317.948 438.234C318.289 438.538 318.441 438.918 318.441 439.393C318.441 439.849 318.27 440.229 317.948 440.532C317.606 440.836 317.17 440.988 316.639 440.988C316.108 440.988 315.653 440.836 315.331 440.532C314.99 440.229 314.838 439.849 314.838 439.393C314.838 438.918 314.99 438.538 315.331 438.234ZM318.099 442.716V454.282H315.16V442.716H318.099Z" fill="#4F5955"/>
<path d="M330.008 443.875C330.804 444.748 331.202 445.983 331.202 447.578V454.301H328.282V447.901C328.282 446.989 328.055 446.268 327.58 445.755C327.106 445.242 326.462 444.995 325.646 444.995C324.812 444.995 324.148 445.261 323.636 445.812C323.143 446.363 322.878 447.141 322.878 448.148V454.282H319.938V442.716H322.878V445.033C323.181 444.255 323.693 443.647 324.395 443.21C325.096 442.773 325.912 442.545 326.822 442.545C328.168 442.545 329.23 442.982 330.008 443.875Z" fill="#4F5955"/>
<path d="M337.991 451.338L340.912 442.716H344.04L339.774 454.282H336.19L331.904 442.716H335.052L337.991 451.338Z" fill="#4F5955"/>
<path d="M355.589 449.059H347.112C347.15 450.085 347.435 450.844 347.947 451.338C348.459 451.832 349.103 452.06 349.862 452.06C350.545 452.06 351.114 451.889 351.569 451.566C352.024 451.224 352.308 450.787 352.441 450.218H355.551C355.399 451.034 355.077 451.756 354.565 452.383C354.072 453.028 353.427 453.522 352.631 453.883C351.834 454.244 350.981 454.434 350.014 454.434C348.895 454.434 347.89 454.187 347.018 453.712C346.145 453.237 345.463 452.554 344.97 451.661C344.477 450.768 344.249 449.724 344.249 448.509C344.249 447.293 344.496 446.249 344.97 445.337C345.444 444.425 346.145 443.761 347.018 443.286C347.89 442.811 348.895 442.583 350.014 442.583C351.151 442.583 352.156 442.811 353.01 443.286C353.863 443.761 354.527 444.406 354.982 445.242C355.437 446.078 355.684 447.008 355.684 448.072C355.703 448.357 355.665 448.698 355.589 449.059ZM351.986 445.622C351.455 445.128 350.791 444.9 350.014 444.9C349.217 444.9 348.554 445.147 348.004 445.622C347.454 446.097 347.169 446.818 347.112 447.768H352.725C352.782 446.818 352.536 446.116 351.986 445.622Z" fill="#4F5955"/>
<path d="M364.311 443.628C365.165 444.331 365.696 445.28 365.904 446.476H363.155C363.041 445.926 362.794 445.47 362.396 445.147C361.998 444.805 361.505 444.653 360.879 444.653C360.386 444.653 359.988 444.767 359.703 445.014C359.419 445.242 359.286 445.565 359.286 445.983C359.286 446.306 359.4 446.552 359.628 446.761C359.855 446.951 360.121 447.103 360.462 447.217C360.803 447.331 361.277 447.464 361.903 447.616C362.775 447.806 363.496 448.015 364.046 448.224C364.596 448.433 365.07 448.774 365.468 449.249C365.866 449.724 366.056 450.351 366.056 451.148C366.056 452.136 365.677 452.933 364.899 453.541C364.122 454.149 363.079 454.453 361.789 454.453C360.291 454.453 359.078 454.111 358.186 453.446C357.276 452.762 356.726 451.813 356.537 450.56H359.362C359.438 451.129 359.684 451.585 360.121 451.908C360.557 452.231 361.107 452.402 361.808 452.402C362.301 452.402 362.699 452.288 362.946 452.041C363.211 451.794 363.344 451.49 363.344 451.091C363.344 450.749 363.23 450.484 363.003 450.275C362.775 450.066 362.491 449.914 362.15 449.8C361.808 449.686 361.334 449.553 360.708 449.401C359.836 449.211 359.153 449.002 358.604 448.812C358.073 448.603 357.617 448.281 357.219 447.844C356.84 447.388 356.65 446.78 356.65 446.002C356.65 444.995 357.03 444.179 357.788 443.552C358.547 442.925 359.609 442.602 360.955 442.602C362.339 442.564 363.458 442.925 364.311 443.628Z" fill="#4F5955"/>
<path d="M373.565 451.756V454.282H372.029C370.74 454.282 369.734 453.959 369.052 453.332C368.369 452.706 368.028 451.661 368.028 450.199V445.185H366.416V442.697H368.028V439.83H370.967V442.697H373.546V445.185H370.967V450.237C370.967 450.787 371.081 451.186 371.308 451.414C371.536 451.642 371.915 451.756 372.427 451.756H373.565Z" fill="#4F5955"/>
<path d="M375.006 438.234C375.348 437.931 375.784 437.779 376.315 437.779C376.846 437.779 377.301 437.931 377.623 438.234C377.964 438.538 378.116 438.918 378.116 439.393C378.116 439.849 377.945 440.229 377.623 440.532C377.282 440.836 376.846 440.988 376.315 440.988C375.784 440.988 375.329 440.836 375.006 440.532C374.665 440.229 374.513 439.849 374.513 439.393C374.513 438.918 374.665 438.538 375.006 438.234ZM377.775 442.716V454.282H374.836V442.716H377.775Z" fill="#4F5955"/>
<path d="M386.972 443.628C387.825 444.331 388.356 445.28 388.565 446.476H385.815C385.701 445.926 385.455 445.47 385.057 445.147C384.659 444.805 384.165 444.653 383.54 444.653C383.047 444.653 382.648 444.767 382.364 445.014C382.08 445.242 381.947 445.565 381.947 445.983C381.947 446.306 382.061 446.552 382.288 446.761C382.516 446.951 382.781 447.103 383.123 447.217C383.464 447.331 383.938 447.464 384.564 447.616C385.436 447.806 386.157 448.015 386.706 448.224C387.256 448.433 387.73 448.774 388.129 449.249C388.527 449.724 388.717 450.351 388.717 451.148C388.717 452.136 388.337 452.933 387.56 453.541C386.782 454.149 385.739 454.453 384.45 454.453C382.952 454.453 381.738 454.111 380.847 453.446C379.937 452.762 379.387 451.813 379.197 450.56H382.023C382.099 451.129 382.345 451.585 382.781 451.908C383.217 452.231 383.767 452.402 384.469 452.402C384.962 452.402 385.36 452.288 385.607 452.041C385.872 451.794 386.005 451.49 386.005 451.091C386.005 450.749 385.891 450.484 385.664 450.275C385.436 450.066 385.152 449.914 384.81 449.8C384.469 449.686 383.995 449.553 383.369 449.401C382.497 449.211 381.814 449.002 381.264 448.812C380.733 448.603 380.278 448.281 379.88 447.844C379.501 447.388 379.311 446.78 379.311 446.002C379.311 444.995 379.69 444.179 380.449 443.552C381.207 442.925 382.269 442.602 383.616 442.602C385 442.564 386.138 442.925 386.972 443.628Z" fill="#4F5955"/>
<path d="M397.439 443.628C398.293 444.331 398.824 445.28 399.032 446.476H396.283C396.169 445.926 395.922 445.47 395.524 445.147C395.126 444.805 394.633 444.653 394.007 444.653C393.514 444.653 393.116 444.767 392.831 445.014C392.547 445.242 392.414 445.565 392.414 445.983C392.414 446.306 392.528 446.552 392.755 446.761C392.983 446.951 393.248 447.103 393.59 447.217C393.931 447.331 394.405 447.464 395.031 447.616C395.903 447.806 396.624 448.015 397.174 448.224C397.724 448.433 398.198 448.774 398.596 449.249C398.994 449.724 399.184 450.351 399.184 451.148C399.184 452.136 398.805 452.933 398.027 453.541C397.25 454.149 396.207 454.453 394.917 454.453C393.419 454.453 392.206 454.111 391.314 453.446C390.404 452.762 389.854 451.813 389.665 450.56H392.49C392.566 451.129 392.812 451.585 393.248 451.908C393.685 452.231 394.235 452.402 394.936 452.402C395.429 452.402 395.827 452.288 396.074 452.041C396.339 451.794 396.472 451.49 396.472 451.091C396.472 450.749 396.358 450.484 396.131 450.275C395.903 450.066 395.619 449.914 395.277 449.8C394.936 449.686 394.462 449.553 393.836 449.401C392.964 449.211 392.281 449.002 391.731 448.812C391.201 448.603 390.745 448.281 390.347 447.844C389.968 447.388 389.778 446.78 389.778 446.002C389.778 444.995 390.158 444.179 390.916 443.552C391.675 442.925 392.737 442.602 394.083 442.602C395.448 442.564 396.586 442.925 397.439 443.628Z" fill="#4F5955"/>
<path d="M411.282 449.059H402.806C402.844 450.085 403.128 450.844 403.64 451.338C404.152 451.832 404.797 452.06 405.555 452.06C406.238 452.06 406.807 451.889 407.262 451.566C407.717 451.224 408.002 450.787 408.134 450.218H411.244C411.092 451.034 410.77 451.756 410.258 452.383C409.765 453.028 409.12 453.522 408.324 453.883C407.527 454.244 406.674 454.434 405.707 454.434C404.588 454.434 403.583 454.187 402.711 453.712C401.839 453.237 401.156 452.554 400.663 451.661C400.17 450.768 399.942 449.724 399.942 448.509C399.942 447.293 400.189 446.249 400.663 445.337C401.137 444.425 401.839 443.761 402.711 443.286C403.583 442.811 404.588 442.583 405.707 442.583C406.845 442.583 407.85 442.811 408.703 443.286C409.556 443.761 410.22 444.406 410.675 445.242C411.13 446.078 411.377 447.008 411.377 448.072C411.377 448.357 411.358 448.698 411.282 449.059ZM407.679 445.622C407.148 445.128 406.484 444.9 405.707 444.9C404.911 444.9 404.247 445.147 403.697 445.622C403.147 446.097 402.863 446.818 402.806 447.768H408.419C408.457 446.818 408.21 446.116 407.679 445.622Z" fill="#4F5955"/>
<path d="M430.662 443.856C431.477 444.729 431.876 445.964 431.876 447.559V454.282H428.955V447.882C428.955 446.989 428.728 446.306 428.273 445.831C427.818 445.356 427.192 445.109 426.395 445.109C425.58 445.109 424.916 445.375 424.442 445.888C423.949 446.4 423.703 447.16 423.703 448.148V454.282H420.782V447.882C420.782 446.989 420.555 446.306 420.1 445.831C419.645 445.356 419.019 445.109 418.241 445.109C417.426 445.109 416.762 445.375 416.288 445.888C415.814 446.4 415.568 447.16 415.568 448.148V454.282H412.628V442.716H415.568V444.919C415.871 444.16 416.364 443.59 417.009 443.172C417.672 442.754 418.431 442.545 419.322 442.545C420.251 442.545 421.067 442.773 421.749 443.21C422.432 443.647 422.963 444.293 423.304 445.128C423.665 444.33 424.196 443.704 424.916 443.229C425.637 442.754 426.433 442.526 427.325 442.526C428.747 442.545 429.847 442.982 430.662 443.856Z" fill="#4F5955"/>
<path d="M444.41 449.059H435.933C435.971 450.085 436.256 450.844 436.768 451.338C437.28 451.832 437.924 452.06 438.683 452.06C439.365 452.06 439.934 451.889 440.389 451.566C440.845 451.224 441.129 450.787 441.262 450.218H444.372C444.22 451.034 443.898 451.756 443.386 452.383C442.892 453.028 442.248 453.522 441.451 453.883C440.655 454.244 439.802 454.434 438.834 454.434C437.716 454.434 436.711 454.187 435.838 453.712C434.966 453.237 434.283 452.554 433.79 451.661C433.297 450.768 433.07 449.724 433.07 448.509C433.07 447.293 433.316 446.249 433.79 445.337C434.264 444.425 434.966 443.761 435.838 443.286C436.711 442.811 437.716 442.583 438.834 442.583C439.972 442.583 440.977 442.811 441.831 443.286C442.684 443.761 443.348 444.406 443.803 445.242C444.258 446.078 444.504 447.008 444.504 448.072C444.504 448.357 444.466 448.698 444.41 449.059ZM440.807 445.622C440.276 445.128 439.612 444.9 438.834 444.9C438.038 444.9 437.374 445.147 436.824 445.622C436.275 446.097 435.99 446.818 435.933 447.768H441.546C441.584 446.818 441.338 446.116 440.807 445.622Z" fill="#4F5955"/>
<path d="M455.825 443.875C456.621 444.748 457.02 445.983 457.02 447.578V454.301H454.099V447.901C454.099 446.989 453.872 446.268 453.398 445.755C452.924 445.242 452.279 444.995 451.464 444.995C450.629 444.995 449.966 445.261 449.454 445.812C448.961 446.363 448.695 447.141 448.695 448.148V454.282H445.756V442.716H448.695V445.033C448.998 444.255 449.51 443.647 450.212 443.21C450.914 442.773 451.729 442.545 452.639 442.545C453.986 442.545 455.048 442.982 455.825 443.875Z" fill="#4F5955"/>
<path d="M464.946 451.756V454.282H463.41C462.121 454.282 461.116 453.959 460.433 453.332C459.751 452.706 459.409 451.661 459.409 450.199V445.185H457.797V442.697H459.409V439.83H462.348V442.697H464.927V445.185H462.348V450.237C462.348 450.787 462.462 451.186 462.69 451.414C462.917 451.642 463.297 451.756 463.809 451.756H464.946Z" fill="#4F5955"/>
<path d="M473.593 443.628C474.446 444.331 474.977 445.28 475.186 446.476H472.436C472.323 445.926 472.076 445.47 471.678 445.147C471.28 444.805 470.787 444.653 470.161 444.653C469.668 444.653 469.27 444.767 468.985 445.014C468.701 445.242 468.568 445.565 468.568 445.983C468.568 446.306 468.682 446.552 468.909 446.761C469.137 446.951 469.402 447.103 469.744 447.217C470.085 447.331 470.559 447.464 471.185 447.616C472.057 447.806 472.778 448.015 473.328 448.224C473.878 448.433 474.352 448.774 474.75 449.249C475.148 449.724 475.338 450.351 475.338 451.148C475.338 452.136 474.958 452.933 474.181 453.541C473.403 454.149 472.36 454.453 471.071 454.453C469.573 454.453 468.359 454.111 467.468 453.446C466.558 452.762 466.008 451.813 465.818 450.56H468.644C468.72 451.129 468.966 451.585 469.402 451.908C469.838 452.231 470.388 452.402 471.09 452.402C471.583 452.402 471.981 452.288 472.228 452.041C472.493 451.794 472.626 451.49 472.626 451.091C472.626 450.749 472.512 450.484 472.285 450.275C472.057 450.066 471.773 449.914 471.431 449.8C471.09 449.686 470.616 449.553 469.99 449.401C469.118 449.211 468.435 449.002 467.885 448.812C467.354 448.603 466.899 448.281 466.501 447.844C466.122 447.388 465.932 446.78 465.932 446.002C465.932 444.995 466.311 444.179 467.07 443.552C467.828 442.925 468.89 442.602 470.237 442.602C471.621 442.564 472.74 442.925 473.593 443.628Z" fill="#4F5955"/>
<path d="M374.096 417.743C374.096 417.743 484.136 369.316 484.136 299.829C484.136 230.341 484.136 181.914 484.136 181.914C484.136 181.914 477.48 182.864 467.089 182.864C444.049 182.864 402.597 178.192 374.115 148.224C345.633 178.211 304.18 182.864 281.122 182.864C270.711 182.864 264.074 181.914 264.074 181.914C264.074 181.914 264.074 230.341 264.074 299.829C264.074 369.316 374.096 417.743 374.096 417.743ZM273.157 192.606C273.233 192.606 273.328 192.606 273.404 192.606C297.411 192.606 339.906 188.238 374.096 161.423C408.285 188.238 450.781 192.606 474.788 192.606C474.863 192.606 474.958 192.606 475.034 192.606V301.025C475.034 349.034 407.868 391.973 374.077 408.59C340.266 392.03 273.138 349.186 273.138 301.025V192.606H273.157Z" fill="#AE9C86"/>
<path d="M374.096 504C292.386 502.367 229.449 455.174 228.823 454.7C158.054 397.803 173.831 348.464 174.552 346.394C202.237 268.778 174.874 198.132 174.609 197.43C168.294 183.281 170.968 174.697 171.082 174.337C198.596 92.9226 288.195 77.9957 292.12 77.369C301.507 75.299 311.538 86.5986 313.036 88.3457C323.826 99.1326 335.867 106.653 348.838 110.717C357.39 113.034 365.923 114.287 374.134 114.363C382.269 114.287 390.821 113.034 399.468 110.679C412.344 106.653 424.385 99.1136 435.175 88.3457C436.654 86.5986 446.685 75.299 456.091 77.369C460.016 77.9767 549.615 92.9036 577.13 174.299C577.262 174.678 579.917 183.243 573.584 197.468C572.73 199.671 546.277 269.614 573.64 346.337C574.361 348.445 590.138 397.784 519.445 454.643C518.705 455.193 453.891 503.639 374.096 504ZM294.472 82.8384C294.055 82.8384 293.656 82.8764 293.277 82.9713L293.031 83.0093C292.139 83.1422 203.299 96.7207 176.467 176.141C176.467 176.16 174.457 183.167 179.842 195.227C180.184 196.062 208.324 268.627 179.918 348.274C179.766 348.692 164.957 396.056 232.331 450.218C232.881 450.636 294.415 496.707 374.153 498.303C451.938 497.942 515.292 450.654 515.918 450.161C551.151 421.826 563.495 395.581 567.648 378.546C572.123 360.201 568.274 348.35 568.236 348.217C539.849 268.608 568.008 196.043 568.293 195.322L568.331 195.208C573.716 183.148 571.706 176.141 571.687 176.065C544.855 96.7017 456.034 83.1232 455.143 82.9903L454.896 82.9523C449.605 81.7179 441.755 89.3523 439.422 92.1249L439.252 92.2958C427.798 103.766 414.942 111.8 401.042 116.148C391.807 118.655 382.781 119.966 374.096 120.061C365.354 119.966 356.328 118.674 347.207 116.186C333.212 111.8 320.356 103.785 308.902 92.2958L308.732 92.1249C306.589 89.5612 299.686 82.8384 294.472 82.8384Z" fill="#4F5955"/>
<path fill-rule="evenodd" clip-rule="evenodd" d="M154.736 252.256C159.457 260.593 162.169 270.203 162.169 280.458C162.169 290.694 159.476 300.284 154.774 308.602C153.977 310.027 154.47 311.831 155.893 312.647C157.315 313.445 159.116 312.951 159.932 311.527C165.127 302.354 168.105 291.757 168.105 280.458C168.105 269.139 165.127 258.523 159.894 249.332C159.078 247.907 157.277 247.414 155.855 248.211C154.432 249.009 153.939 250.832 154.736 252.256ZM143.112 258.846C146.734 265.227 148.8 272.596 148.8 280.458C148.8 288.263 146.752 295.613 143.169 301.956C142.372 303.38 142.865 305.184 144.287 306.001C145.71 306.798 147.511 306.305 148.326 304.88C152.403 297.664 154.717 289.327 154.717 280.458C154.717 271.532 152.365 263.157 148.251 255.922C147.435 254.497 145.634 254.004 144.211 254.801C142.808 255.599 142.296 257.422 143.112 258.846ZM131.488 265.436C134.01 269.861 135.432 274.988 135.432 280.458C135.432 285.87 134.029 290.941 131.563 295.328C130.767 296.752 131.279 298.556 132.701 299.373C134.123 300.17 135.925 299.658 136.74 298.233C139.698 292.973 141.367 286.915 141.367 280.458C141.367 273.925 139.641 267.81 136.645 262.511C135.83 261.087 134.028 260.593 132.606 261.391C131.165 262.208 130.672 264.012 131.488 265.436Z" fill="#4F5955"/>
<path fill-rule="evenodd" clip-rule="evenodd" d="M591.067 248.211C589.645 247.395 587.843 247.907 587.028 249.332C581.813 258.523 578.817 269.139 578.817 280.458C578.817 291.738 581.794 302.354 586.99 311.527C587.786 312.951 589.607 313.445 591.029 312.647C592.451 311.85 592.944 310.027 592.148 308.602C587.445 300.284 584.752 290.694 584.752 280.458C584.752 270.203 587.445 260.574 592.186 252.256C592.982 250.832 592.489 249.009 591.067 248.211ZM602.71 254.801C601.288 254.004 599.486 254.497 598.671 255.922C594.556 263.176 592.205 271.551 592.205 280.458C592.205 289.327 594.537 297.664 598.595 304.88C599.391 306.305 601.212 306.798 602.634 306.001C604.056 305.203 604.549 303.38 603.753 301.956C600.169 295.594 598.121 288.263 598.121 280.458C598.121 272.596 600.188 265.227 603.81 258.846C604.625 257.422 604.132 255.599 602.71 254.801ZM614.334 261.391C612.912 260.574 611.11 261.087 610.295 262.511C607.28 267.81 605.573 273.925 605.573 280.458C605.573 286.915 607.261 292.973 610.2 298.233C610.997 299.658 612.798 300.17 614.239 299.373C615.661 298.575 616.173 296.771 615.377 295.328C612.912 290.922 611.509 285.851 611.509 280.458C611.509 275.007 612.95 269.88 615.472 265.436C616.249 264.012 615.756 262.208 614.334 261.391Z" fill="#4F5955"/>
<path fill-rule="evenodd" clip-rule="evenodd" d="M345.614 78.0906C344.798 79.515 345.31 81.3191 346.733 82.1357C355.911 87.3582 366.511 90.3588 377.812 90.3588C389.076 90.3588 399.676 87.3772 408.835 82.1737C410.258 81.3761 410.751 79.5529 409.954 78.1286C409.158 76.7043 407.337 76.2106 405.915 77.0082C397.609 81.7179 388.033 84.4146 377.812 84.4146C367.573 84.4146 357.959 81.7179 349.653 76.9702C348.231 76.1726 346.429 76.6663 345.614 78.0906ZM352.194 66.4492C351.397 67.8735 351.89 69.6777 353.313 70.4943C360.556 74.6153 368.919 76.9702 377.812 76.9702C386.668 76.9702 394.993 74.6343 402.198 70.5703C403.621 69.7726 404.114 67.9495 403.317 66.5252C402.521 65.1009 400.7 64.6071 399.278 65.4047C392.926 68.994 385.606 71.045 377.812 71.045C369.962 71.045 362.604 68.975 356.233 65.3477C354.811 64.5311 353.009 65.0249 352.194 66.4492ZM358.793 54.8078C357.978 56.2321 358.489 58.0362 359.912 58.8529C365.202 61.8724 371.308 63.5816 377.831 63.5816C384.279 63.5816 390.328 61.8914 395.58 58.9478C397.003 58.1502 397.515 56.3461 396.718 54.9027C395.922 53.4784 394.12 52.9657 392.679 53.7633C388.28 56.2321 383.217 57.6374 377.831 57.6374C372.389 57.6374 367.269 56.1941 362.832 53.6873C361.41 52.8897 359.589 53.3835 358.793 54.8078Z" fill="#4F5955"/>
</g>
<defs>
<clipPath id="clip0_32_502">
<rect width="774" height="504" fill="white"/>
</clipPath>
</defs>
</svg>
