<svg width="616" height="377" viewBox="0 0 616 377" fill="none" xmlns="http://www.w3.org/2000/svg">
<g clip-path="url(#clip0_33_792)">
<path d="M616 374.397C607.161 374.378 598.34 374.455 589.5 374.34C585.368 374.282 581.235 374.014 577.14 373.536C568.568 372.56 564.876 369.134 563.881 360.58C562.981 352.79 563.058 344.906 561.987 337.135C560.8 328.428 559.212 319.739 557.05 311.223C555.653 305.768 551.788 301.558 546.259 298.151C546.89 300.199 547.292 301.634 547.789 303.051C551.463 313.825 549.32 324.007 544.001 333.499C538.931 342.552 525.748 345.977 514.268 341.92C504.682 338.533 499.344 329.691 500.492 318.973C500.76 316.428 501.238 313.902 501.793 311.395C504.51 299.166 501.008 289.214 491.174 281.425C486.257 277.54 481.358 273.616 476.652 269.483C473.743 266.937 472.155 263.607 472.844 259.55C473.839 253.713 477.895 251.78 482.698 255.186C485.453 257.138 488.151 259.473 490.141 262.172C498.98 274.305 510.613 282.133 525.021 286.133C529.383 287.338 533.593 289.137 538.778 290.975C537.898 289.29 537.438 288.238 536.845 287.281C531.851 279.147 526.705 271.109 521.864 262.88C516.43 253.617 515.301 243.723 519.357 233.694C524.026 222.097 522.342 211.054 517.253 200.203C516.372 198.346 514.957 196.509 513.311 195.304C496.646 182.979 478.469 179.821 458.762 186.768C458.494 186.864 458.226 186.959 457.958 187.055C445.942 191.82 444.565 196.892 453.749 205.715C461.479 213.14 466.071 221.58 465.248 233.484C468.558 231.168 470.873 229.388 473.341 227.876C479.12 224.336 483.54 226.537 483.08 233.273C482.832 237.024 481.339 241.139 479.139 244.182C475.025 249.904 469.304 249.043 465.937 242.823C464.751 240.622 464.693 237.388 460.733 237.867C460.293 237.924 458.953 235.283 459.068 234.001C459.642 227.742 456.504 223.915 452.084 219.877C447.397 215.59 443.991 209.906 439.877 204.643C437.026 208.892 434.711 214.346 435.802 220.489C437.237 228.68 437.045 236.087 429.889 241.847C427.995 243.378 428.263 245.043 430.502 246.67C432.032 247.78 432.76 249.923 434.08 251.416C435.151 252.622 436.491 253.598 437.811 254.555C440.987 256.851 441.121 258.229 438.059 260.66C434.482 263.511 434.902 267.148 436.05 270.765C437.179 274.305 439.973 276.296 443.627 275.626C449.903 274.478 456.102 272.774 462.34 271.377C464.406 270.918 466.549 270.344 468.616 270.459C469.706 270.516 471.39 271.817 471.581 272.813C471.753 273.712 470.51 275.454 469.496 275.894C467.314 276.851 464.865 277.195 462.512 277.788C458.915 278.688 455.299 279.415 451.74 280.468C441.35 283.53 436.012 291.07 434.711 301.328C433.621 310.074 433.582 318.954 432.836 327.758C432.224 334.839 431.956 342.073 430.234 348.924C425.661 367.163 413.99 376.1 395.22 376.962C377.407 377.785 360.914 372.828 344.708 366.034C335.677 362.245 326.378 358.934 316.926 356.35C303.36 352.656 290.063 356.063 276.899 359.45C262.434 363.182 248.122 367.89 233.428 370.359C211.96 373.957 190.818 371.488 170.804 362.13C169.369 361.46 167.494 361.383 165.849 361.498C140.286 363.469 114.858 362.474 89.5445 358.398C87.9947 358.149 85.89 358.245 84.742 359.106C71.4826 368.981 56.1376 372.407 40.1421 373.192C26.7678 373.842 13.3553 373.498 -0.0380859 373.593C-0.0380859 372.732 -0.0380859 371.89 -0.0380859 371.029C6.77341 371.259 13.6423 372.081 20.4155 371.603C34.0385 370.665 47.6615 369.46 61.1505 367.527C68.8996 366.417 75.8641 362.512 83.0009 357.326C79.7673 356.273 77.2609 355.47 74.7735 354.647C61.1888 350.168 56.0993 342.59 58.1275 328.466C61.5141 304.83 74.3909 287.243 93.9452 274.171C102.957 268.143 112.868 264.392 123.506 262.325C125.267 261.98 127.199 260.43 128.271 258.899C132.805 252.354 137.129 245.656 141.281 238.862C142.027 237.637 142.219 235.455 141.683 234.115C135.771 219.59 136.326 205.102 142.142 190.825C145.357 182.94 151.365 177.314 159.477 174.711C177.826 168.817 196.385 167.151 214.62 175.017C219.633 177.18 224.167 180.644 228.568 183.974C230.615 185.524 232.452 187.974 233.236 190.404C233.868 192.337 233.389 195.284 232.222 196.93C231.572 197.83 228.07 197.677 226.54 196.796C218.236 191.993 209.32 192.356 200.308 193.122C188.713 194.117 183.777 202.978 181.481 212.891C180.811 215.819 185.192 221.791 189.478 223.991C190.091 221.58 190.76 219.36 191.181 217.083C191.679 214.422 191.908 211.724 192.367 209.064C194.376 197.677 209.32 191.112 219.422 197.198C222.962 199.323 223.938 202.748 222.77 206.499C221.163 211.667 219.479 216.834 217.222 221.733C213.854 229.044 213.663 235.991 217.891 242.938C218.044 243.187 218.102 243.455 218.236 243.723C222.732 253.579 222.464 253.981 211.596 253.177C211.003 261.234 204.173 256.507 199.963 258.516C200.671 259.033 201.016 259.454 201.475 259.588C204.919 260.717 207.234 262.803 207.272 266.631C207.311 270.497 205.187 273.1 201.819 274.612C192.903 278.592 183.91 277.808 175.3 273.923C163.648 268.66 151.785 264.449 138.89 263.779C128.366 263.244 127.85 263.014 124.386 273.023C119.756 286.324 115.7 299.855 112.007 313.443C107.779 328.944 102 343.47 90.0229 354.762C89.8698 354.915 89.9081 355.259 89.8698 355.527C99.8 359.489 152.704 361.804 164.662 358.895C152.359 339.815 156.531 321.098 165.963 302.496C166.346 301.73 166.882 301.041 167.398 300.371C176.85 287.759 187.737 287.893 196.615 300.945C202.24 309.213 205.665 318.399 206.277 328.447C207.215 344.178 199.849 354.168 184.484 358.149C181.347 358.972 178.19 359.68 175.033 360.446C174.937 360.867 174.841 361.288 174.746 361.728C180.294 363.412 185.766 365.402 191.392 366.704C213.529 371.833 235.245 369.44 256.77 362.914C267.122 359.776 277.645 357.192 288.13 354.513C304.451 350.322 320.006 353.441 335.332 359.45C346.851 363.967 358.311 368.962 370.251 371.986C379.205 374.244 388.906 374.684 398.185 374.168C414.659 373.268 425.393 363.412 428.321 347.049C429.947 337.978 430.138 328.638 430.884 319.414C431.286 314.438 431.267 309.424 431.841 304.486C433.85 287.3 441.618 279.166 458.685 276.066C461.976 275.473 465.267 274.803 468.558 274.152C468.501 273.674 468.424 273.176 468.367 272.698C466.339 273.042 464.291 273.272 462.302 273.75C456.906 275.071 451.625 276.87 446.172 277.788C439.801 278.86 436.337 277.042 434.271 272.659C431.765 267.339 432.664 262.727 437.045 258.382C437.237 258.21 437.275 257.885 437.237 257.961C433.754 254.191 430.1 250.785 427.211 246.804C426.312 245.56 426.713 241.866 427.881 240.871C434.443 235.302 434.998 228.451 433.659 220.661C432.53 214.021 434.654 207.954 438.5 202.538C439.15 201.638 440.489 200.834 441.561 200.796C442.173 200.777 443.206 202.27 443.436 203.227C445.024 209.81 449.061 214.824 454.189 218.767C458.972 222.46 461.861 226.652 461.287 232.871C461.211 233.714 461.689 234.632 462.435 235.379C462.952 227.685 463.201 220.049 457.71 213.657C455.107 210.633 452.218 207.858 449.578 204.873C443.072 197.504 443.953 191.572 452.811 187.093C468.118 179.381 483.941 178.634 499.956 185.065C502.462 186.079 504.892 187.323 507.246 188.644C520.314 196.031 527.279 212.049 523.758 226.766C522.84 230.632 521.462 234.403 520.41 238.249C517.922 247.244 520.104 255.55 524.696 263.263C530.531 273.061 536.673 282.669 542.757 292.314C543.255 293.118 544.078 293.845 544.919 294.305C556.553 300.658 561.451 311.28 562.943 323.701C564.206 334.169 564.78 344.714 565.622 355.24C566.674 368.56 569.353 371.412 582.689 371.794C593.805 372.101 604.922 371.871 616.038 371.871C616 372.675 616 373.536 616 374.397ZM218.638 250.842C218.025 249.139 217.815 247.665 217.069 246.536C210.582 236.757 211.558 227.015 216.648 216.987C218.485 213.351 219.613 209.293 220.627 205.294C221.469 201.983 220.187 199.035 216.552 198.48C203.369 196.471 194.797 198.653 194.07 212.719C193.898 216.107 193.305 219.551 192.31 222.786C191.143 226.556 188.349 227.149 185.422 224.489C183.738 222.958 182.399 221.025 180.62 218.939C179.778 223.245 179.127 227.015 178.266 230.766C177.558 233.848 176.142 236.584 172.469 236.623C168.967 236.661 167.035 234.23 166.078 231.226C164.088 224.948 164.509 218.805 167.953 213.102C171.206 207.705 173.904 207.112 179.472 210.442C180.026 208.949 180.562 207.494 181.117 206.04C184.657 196.815 191.085 191.323 201.169 190.557C210.2 189.868 219.135 189.677 227.343 194.576C228.338 195.17 229.907 194.768 231.208 194.825C231.189 193.485 231.495 191.993 231.036 190.844C230.424 189.313 229.429 187.687 228.147 186.711C223.957 183.553 219.881 180.012 215.194 177.773C197.553 169.391 179.414 171.017 161.39 176.433C152.532 179.094 146.466 185.218 143.329 193.945C139.196 205.408 138.947 217.102 142.2 228.833C142.755 230.805 143.903 232.623 144.802 234.594C147.347 233.044 149.413 231.474 151.728 230.441C154.522 229.178 157.506 229.082 159.171 232.278C160.778 235.398 160.759 238.728 158.272 241.445C155.842 244.106 152.742 244.259 149.662 242.67C147.825 241.713 146.199 240.374 143.826 238.785C139.023 246.211 134.374 253.387 129.112 261.502C146.964 260.507 162.041 265.138 176.716 271.932C183.872 275.243 191.506 276.123 199.179 273.176C202.24 272.009 205.034 270.401 205.034 266.65C205.034 263.052 201.953 262.325 199.332 261.158C198.165 260.641 197.246 259.55 196.213 258.708C197.342 257.77 198.375 256.277 199.657 256.028C202.527 255.435 205.512 255.454 208.382 255.244C209.396 251.416 209.396 251.416 218.638 250.842ZM123.985 264.966C123.908 264.966 123.085 264.832 122.301 264.985C93.1799 270.65 64.5372 295.491 60.0408 330.284C58.7971 339.91 62.1646 346.264 70.9277 350.417C74.6396 352.178 78.6193 353.479 82.6374 354.36C84.3594 354.723 86.9232 354.015 88.2434 352.848C95.7055 346.188 101.465 338.131 104.507 328.619C111.242 307.472 117.518 286.19 123.985 264.966ZM526.59 341.059C531.048 340.925 538.318 339.643 541.648 332.523C544.479 326.476 546.68 319.682 547.12 313.079C547.885 301.328 542.585 294.764 531.545 290.86C528.867 289.903 526.226 288.812 523.49 288.046C509.561 284.181 498.158 276.736 489.471 265.043C487.29 262.114 484.496 259.512 481.588 257.311C478.087 254.651 475.102 256.182 475.121 260.602C475.121 262.574 475.924 264.87 477.13 266.44C478.948 268.755 481.378 270.593 483.635 272.545C488.055 276.353 492.724 279.894 496.952 283.893C502.769 289.386 505.352 296.391 504.892 304.333C504.644 308.562 503.898 312.811 502.979 316.964C500.033 330.38 509.446 341.308 526.59 341.059ZM159.707 334.686C159.63 342.245 160.415 349.518 165.849 355.47C167.915 357.747 170.211 358.972 173.387 358.13C178.343 356.829 183.49 356.082 188.254 354.302C197.533 350.819 203.446 344.197 204.039 333.959C204.708 322.15 201.073 311.433 194.376 301.826C186.532 290.534 177.616 290.515 169.388 301.577C168.872 302.266 168.412 302.974 167.953 303.701C162.041 313.194 159.936 323.701 159.707 334.686ZM166.576 223.475C167.417 226.728 167.628 229.101 168.661 231.053C169.407 232.45 171.225 233.943 172.679 234.077C173.636 234.173 175.454 232.068 175.779 230.69C176.946 225.714 177.903 220.642 178.304 215.552C178.419 214.078 176.64 211.954 175.167 211.092C174.382 210.633 171.684 211.839 171.072 212.949C169.178 216.508 167.858 220.374 166.576 223.475ZM481.339 233.407C480.574 231.895 479.694 228.967 479.024 229.025C476.805 229.197 474.375 230.02 472.595 231.34C470.261 233.082 468.443 235.551 466.434 237.733C466.339 237.828 466.568 238.268 466.664 238.517C467.965 241.464 468.883 245.713 472.614 245.292C475.063 245.024 477.532 242.019 479.349 239.742C480.555 238.23 480.631 235.8 481.339 233.407ZM146.773 237.082C150.408 241.311 154.368 242.708 156.09 240.048C157.219 238.288 157.487 235.111 156.664 233.178C155.593 230.671 150.982 232.47 146.773 237.082Z" fill="#4F5955"/>
<path d="M182.82 0C205.971 0.153104 229.008 1.43535 251.375 8.11452C269.609 13.5689 285.987 22.2192 297.926 37.5679C301.217 41.7975 304.183 46.5437 306.077 51.5196C312.946 69.4519 305.847 87.1737 288.226 98.3695C274.545 107.058 259.315 108.149 243.798 108.168C234.25 108.187 224.703 107.938 215.155 108.206C204.46 108.513 196.864 113.986 193.439 123.957C189.229 136.186 185.958 148.741 182.169 161.123C181.595 163.018 180.39 164.702 179.471 166.501C178.132 164.664 175.97 162.979 175.606 160.97C174.114 153.009 173.042 144.932 172.048 136.894C170.345 123.172 163.323 114.216 149.795 110.216C137.799 106.675 125.726 103.116 114.169 98.3886C103.072 93.8529 93.5623 86.2551 90.1374 74.2938C84.2826 53.8735 88.6259 34.9269 102.306 18.6787C109.596 10.0092 120.292 6.92797 130.949 4.55485C148.016 0.727245 165.408 0.0574141 182.82 0ZM177.998 162.52C178.495 162.52 178.993 162.52 179.49 162.539C180.084 160.051 180.581 157.544 181.308 155.095C184.35 144.875 187.163 134.559 190.607 124.474C194.969 111.785 204.345 105.738 217.662 105.623C220.933 105.584 224.224 105.565 227.496 105.565C236.47 105.565 245.462 105.833 254.436 105.565C269.685 105.087 283.672 101.011 294.922 89.987C307.684 77.509 310.019 62.3326 301.332 46.7925C293.277 32.4198 280.821 22.9656 266.146 16.1716C248.83 8.13366 230.328 4.97589 211.481 3.5214C184.829 1.43535 158.252 1.5119 131.867 6.66003C113.365 10.258 99.4363 19.2911 93.5623 38.2952C84.5313 67.5381 91.7064 87.5948 121.172 98.9436C130.834 102.676 140.975 105.183 150.943 108.149C163.61 111.9 171.474 119.976 173.693 133.162C174.458 137.66 174.86 142.196 175.53 146.712C176.295 151.975 177.156 157.238 177.998 162.52Z" fill="#4F5955"/>
<path d="M487.883 30.927C510.058 30.7931 523.318 41.2999 528.79 63.921C529.957 68.7246 530.34 73.7579 530.627 78.7147C531.335 90.963 525.786 99.8622 514.574 104.341C503.094 108.934 491.193 112.455 479.502 116.512C475.733 117.814 472.002 119.211 468.367 120.818C463.449 123 460.905 126.943 461.058 132.339C461.287 140.741 461.766 149.143 462.034 157.544C462.148 161.104 462.359 164.721 461.823 168.204C461.555 169.965 459.718 171.458 458.59 173.084C457.461 171.783 455.93 170.654 455.26 169.161C451.51 160.855 447.97 152.454 444.335 144.109C441.656 137.966 436.854 134.847 430.253 134.827C419.997 134.789 409.742 134.942 399.486 135.153C376.201 135.631 366.29 127.21 363.018 102.216C361.373 89.5277 365.639 78.6381 375.493 70.16C387.605 59.768 402.031 53.663 416.726 48.0939C436.49 40.6109 456.638 34.5633 477.666 31.8074C481.052 31.3289 484.477 31.195 487.883 30.927ZM458.149 169.831C458.609 169.773 459.049 169.716 459.508 169.659C459.642 166.75 459.948 163.822 459.852 160.913C459.527 151.516 458.934 142.119 458.685 132.722C458.513 126.1 461.479 121.125 467.697 118.56C472.289 116.665 477.015 115.039 481.703 113.374C492.819 109.412 504.146 105.929 515.033 101.451C524.428 97.5848 528.58 89.566 528.56 79.5568C528.541 70.0069 526.341 60.9163 522.093 52.3425C517.98 44.0749 511.933 37.5679 502.826 35.3862C496.837 33.9509 490.351 33.1471 484.247 33.7403C450.63 36.9555 419.041 47.2326 389.48 63.366C382.534 67.1553 375.78 72.5905 371.073 78.8678C361.794 91.1927 364.09 104.953 369.677 118.311C373.216 126.732 379.913 131.172 388.772 132.091C394.703 132.703 400.711 132.703 406.7 132.703C413.817 132.703 420.954 132.359 428.072 132.225C437.122 132.072 443.685 135.861 447.224 144.435C448.315 147.076 449.654 149.583 450.783 152.205C453.27 158.08 455.7 163.955 458.149 169.831Z" fill="#4F5955"/>
</g>
<defs>
<clipPath id="clip0_33_792">
<rect width="616" height="377" fill="white"/>
</clipPath>
</defs>
</svg>
